<svg width="304" height="457" viewBox="0 0 304 457" fill="none" xmlns="http://www.w3.org/2000/svg">
<path d="M189.811 220.86C189.811 220.86 146.677 229.824 128.615 219.876C128.615 219.876 135.487 210.133 150.611 207.07C165.735 204.008 189.811 220.86 189.811 220.86Z" fill="url(#paint0_linear_103_311)"/>
<path style="mix-blend-mode:multiply" d="M189.811 220.86C189.811 220.86 146.677 229.824 128.615 219.876C128.615 219.876 135.487 210.133 150.611 207.07C165.735 204.008 189.811 220.86 189.811 220.86Z" fill="url(#paint1_linear_103_311)"/>
<path d="M192.591 123.442C192.591 123.442 194.13 123.981 196.368 124.574C200.726 125.394 204.956 126.849 208.939 128.899C212.465 130.803 215.865 132.961 219.115 135.357C219.917 137.146 220.561 139.01 221.038 140.925C221.318 142.781 208.327 168.616 204.638 176.503C200.948 184.391 189.182 183.296 185.947 170.305C182.712 157.313 187.521 127.73 192.591 123.442Z" fill="url(#paint2_linear_103_311)"/>
<g style="mix-blend-mode:multiply" opacity="0.85">
<path d="M192.591 123.442C192.591 123.442 194.13 123.981 196.368 124.574C200.726 125.394 204.956 126.849 208.939 128.899C212.465 130.803 215.865 132.961 219.115 135.357C219.917 137.146 220.561 139.01 221.038 140.925C221.318 142.781 208.327 168.616 204.638 176.503C200.948 184.391 189.182 183.296 185.947 170.305C182.712 157.313 187.521 127.73 192.591 123.442Z" fill="#5A71B3"/>
</g>
<path d="M192.59 123.442C192.59 123.442 194.129 123.981 196.367 124.574C200.725 125.394 204.956 126.849 208.938 128.899C211.91 130.588 214.446 132.091 216.771 133.669C216.159 134.355 215.512 135.005 214.865 135.636C212.478 133.48 209.833 131.671 206.997 130.254C201.962 127.822 196.384 127.099 191.121 125.391C191.488 124.647 191.986 123.985 192.59 123.442Z" fill="#100142"/>
<path d="M0.122284 160.431C-1.08414 158.816 6.97617 157.127 8.46234 157.09C9.94852 157.053 16.7849 156.107 16.7849 156.107C6.88873 155.661 4.10873 153.657 4.38849 152.191C4.66821 150.724 12.2564 151.968 13.8475 152.191C15.4386 152.413 20.7189 153.508 22.5897 153.805C24.4605 154.102 29.4611 157.053 32.2585 158.092C35.0561 159.132 58.1529 153.063 70.5493 151.634C82.9457 150.205 89.345 151.448 95.0274 150.26C100.71 149.073 131.745 135.079 138.476 134.689C145.208 134.299 158.286 134.077 158.286 134.077C158.38 133.749 158.491 133.427 158.618 133.112C163.398 129.984 167.326 125.585 170.013 120.351C172.699 115.116 174.051 109.228 173.934 103.268L191.873 90.7038L192.922 95.9746C192.922 95.9746 189.618 115.035 192.59 123.145C193.226 124.209 193.921 125.231 194.671 126.208C194.903 126.374 195.156 126.505 195.423 126.597C195.389 126.742 195.349 126.885 195.3 127.024C197.818 130.142 201.752 134.058 205.913 134.225C212.907 134.522 236.546 112.177 239.711 106.386C242.875 100.596 259.38 70.5299 260.499 65.5931C261.111 62.8649 262.248 59.3201 261.793 56.8332C261.507 55.517 260.78 54.3561 259.748 53.5667C256.705 49.4488 254.465 44.7299 253.156 39.6844C251.582 34.0053 254.555 37.4202 258.261 42.7281C261.968 48.0361 266.059 49.2424 270.151 51.2097C274.242 53.177 283.142 47.071 290.205 48.2588C297.269 49.4466 288.107 54.6617 283.212 56.629C276.987 59.0974 274.592 59.5799 272.913 63.5702C271.742 66.3726 270.273 70.4 267.895 78.0649C265.535 85.3773 251.408 121.661 248.051 126.987C244.694 132.314 207.959 163.939 203.5 168.077C199.042 172.216 186.226 204.528 184.915 209.26C183.603 213.993 184.915 228.97 184.915 228.97C184.915 228.97 137.497 238.139 136.378 229.861C135.259 221.584 138.336 207.683 140.364 204.732C142.393 201.781 139.001 164.7 140.364 160.821C141.955 155.902 136.151 157.276 136.151 157.276C123.072 163.79 100.657 164.236 99.4335 164.236C98.2096 164.236 98.3145 164.087 88.9428 165.85C79.5712 167.613 37.2766 166.24 35.7904 167.483C34.3042 168.727 29.1638 174.907 27.7651 174.907C26.3663 174.907 22.1001 177.468 21.4008 175.835C20.7014 174.202 22.5198 173.367 24.6179 171.938C26.1298 170.865 27.2185 169.24 27.6777 167.372C27.8175 166.574 21.4532 166.333 20.1594 166.333C17.9931 166.021 15.7953 166.053 13.6377 166.426C9.98346 167.094 5.6998 168.43 4.66824 167.094C3.63666 165.757 9.12674 164.291 10.0534 163.994C10.9801 163.697 16.0505 162.807 16.0505 162.807C14.8266 162.807 9.63379 163.363 9.63379 163.363C2.64005 165.72 0.139771 164.477 0.891602 163.549C1.64343 162.621 8.72461 160.635 9.31909 160.449C9.91354 160.264 15.8932 159.484 15.8932 159.484C15.8932 159.484 9.72122 159.93 8.79456 160.227C7.86786 160.524 1.3287 162.064 0.122284 160.431Z" fill="#F5AA8D"/>
<path d="M140.47 179.899C140.068 170.917 139.718 162.565 140.277 160.82C141.956 155.902 136.151 157.276 136.151 157.276C123.073 163.79 100.658 164.235 99.4339 164.235C98.9854 164.21 98.536 164.21 98.0876 164.235L102.931 161.6C109.785 157.777 117.81 160.839 124.979 157.703C132.147 154.566 147.481 145.305 148.215 160.691C148.261 161.44 148.469 162.169 148.822 162.82C149.176 163.471 149.665 164.027 150.253 164.445C150.842 164.863 151.512 165.131 152.214 165.23C152.916 165.329 153.629 165.256 154.3 165.015V179.862L140.47 179.899Z" fill="#CA5645"/>
<path d="M185.614 142.262C186.244 140.666 186.943 139.162 187.66 137.696C188.884 136.23 190.09 134.782 191.279 133.446C192.935 131.636 194.494 129.727 195.947 127.73C197.951 130.299 200.505 132.323 203.396 133.632C201.158 138.346 198.797 147.421 200.86 152.469C202.102 155.513 203.78 157.573 206.98 157.165C209.76 156.831 217.471 150.465 217.89 150.261C230.566 144.563 234.063 137.102 241.057 132.147C242.524 131.116 244.111 130.292 245.778 129.697C236.896 139.069 207.487 164.403 203.536 168.078C201 170.435 195.738 181.96 191.436 192.316H176.802V164.087C180.334 157.072 182.712 149.611 185.614 142.262Z" fill="#CA5645"/>
<path d="M264.923 53.9565C262.818 52.6506 260.527 51.7167 258.139 51.1911C255.908 47.6635 254.226 43.7784 253.156 39.6844C251.582 34.0053 254.555 37.4202 258.261 42.7281C261.968 48.0361 266.059 49.2424 270.151 51.2097C274.242 53.177 283.142 47.071 290.205 48.2588C297.269 49.4466 288.107 54.6617 283.212 56.629C278.736 58.4849 276.218 59.1716 274.592 60.9348C271.445 58.4107 268.175 56.1836 264.923 53.9565Z" fill="#CA5645"/>
<path d="M181.47 229.602C181.347 228.622 180.93 227.711 180.281 227.003C167.465 212.267 152.131 217.464 136.361 221.435C137.007 214.29 138.931 206.811 140.364 204.732C140.865 203.214 141.079 201.606 140.994 200H188.202C186.453 204.435 185.194 207.924 184.827 209.279C183.498 214.012 184.827 228.989 184.827 228.989L181.47 229.602Z" fill="#CA5645"/>
<path d="M171.469 231.197C158.443 233.053 140.207 234.909 136.92 230.956C148.879 227.764 161.311 222.493 171.469 231.197Z" fill="#CA5645"/>
<path d="M176.662 268.669C176.662 268.669 174.144 327.446 175.316 328.281C185.251 334.665 193.043 344.202 197.591 355.545C204.585 373.547 223.258 401.739 226.073 404.56C226.073 404.56 228.818 416.864 221.142 419.611C221.142 419.611 159.947 347.935 148.355 338.34C137.585 329.469 140.819 254.823 140.819 254.823L176.662 268.669Z" fill="#F5AA8D"/>
<path d="M205.406 382.326C200.738 373.046 195.93 363.117 186.995 357.66C181.435 354.283 165.822 344.205 163.933 336.874C162.564 332.358 160.76 328.005 158.548 323.882C154.229 316.217 148.722 316.459 141.99 316.459C139.473 297.417 140.819 254.861 140.819 254.861L176.662 268.743C176.662 268.743 174.144 327.52 175.316 328.355C185.25 334.739 193.043 344.276 197.591 355.619C204.584 373.621 223.258 401.813 226.073 404.634C225.949 406.707 225.614 408.761 225.076 410.758C217.43 402.187 210.822 392.635 205.406 382.326Z" fill="#CA5645"/>
<path d="M132.951 289.826C141.806 288.806 150.607 287.307 159.318 285.335L151.118 223.514C151.118 223.514 138.704 224.034 134.245 226.019C134.245 226.019 130.748 244.579 131.658 256.679C132.567 268.78 132.951 289.826 132.951 289.826Z" fill="url(#paint3_linear_103_311)"/>
<path d="M158.391 282.7L158.216 281.382H158.793L159.318 285.335C150.607 287.307 141.806 288.806 132.951 289.826C132.951 289.826 132.951 288.787 132.951 287.098C141.497 286.095 149.988 284.627 158.391 282.7Z" fill="#100142"/>
<g style="mix-blend-mode:multiply" opacity="0.55">
<path d="M145.313 273.475C145.181 272.452 144.952 271.444 144.631 270.469C143.337 266.232 143.618 261.631 145.418 257.607C146.38 255.474 146.887 253.142 146.904 250.777C146.504 243.669 148.35 236.621 152.149 230.752L159.388 285.335C153.128 286.355 152.044 287.395 139.945 288.935C141.839 286.923 143.299 284.499 144.225 281.83C145.152 279.161 145.523 276.311 145.313 273.475Z" fill="#5A71B3"/>
</g>
<path d="M175.456 117.058C173.788 118.502 171.948 119.706 169.983 120.64C172.735 115.372 174.117 109.421 173.987 103.398L182.729 101.023C181.767 107.036 180.456 112.845 175.456 117.058Z" fill="#CA5645"/>
<path d="M187.538 129.363C186.769 120.083 184.566 112.659 187.188 103.268C188.426 99.9934 189.838 96.796 191.419 93.6919L192.923 95.9747C192.923 95.9747 188.045 124.036 195.423 126.542C193.753 132.552 191.01 138.165 187.346 143.078C187.847 138.525 187.912 133.93 187.538 129.363Z" fill="#CA5645"/>
<path d="M175.037 57.5384C171.9 59.1594 169.232 61.6465 167.312 64.7389C165.393 67.8312 164.292 71.4149 164.126 75.114C164.126 75.9121 164.459 77.5081 164.126 78.2134C162.728 80.8117 159.511 86.2124 158.584 87.7714C157.413 89.7201 162.081 90.5739 162.728 91.2977C163.375 92.0215 160.874 100.577 162.553 103.584C164.231 106.591 175.701 108.02 185.16 103.584C190.755 100.967 188.535 93.6733 195.493 90.1284C198.815 88.4396 207.278 81.3685 199.41 74.4273C191.542 67.4861 187.94 54.3276 175.037 57.5384Z" fill="#F5AA8D"/>
<path d="M189.863 260.001C189.863 260.001 194.566 321.637 195.982 321.785C210.582 323.363 211.299 326.518 224.115 340.345C236.931 354.171 269.224 370.503 272.844 371.988C272.844 371.988 277.022 384.107 270.885 389.712C270.885 389.712 195.703 349.216 181.226 346.265C166.748 343.314 155.873 262.897 155.873 262.897L189.863 260.001Z" fill="#F5AA8D"/>
<path d="M168.34 82.6305C168.192 83.0531 168.169 83.5136 168.275 83.9502C168.381 84.3868 168.61 84.7786 168.932 85.0729C169.253 85.3672 169.652 85.55 170.075 85.5967C170.497 85.6433 170.923 85.5517 171.295 85.3339C171.667 85.1162 171.967 84.7829 172.155 84.3788C172.343 83.9747 172.411 83.5191 172.348 83.0732C172.285 82.6274 172.095 82.2126 171.804 81.8846C171.512 81.5567 171.133 81.3312 170.718 81.2386C170.228 81.0894 169.703 81.1521 169.258 81.413C168.812 81.6739 168.482 82.1117 168.34 82.6305Z" fill="#100142"/>
<path d="M175.281 79.253C175.367 79.2769 175.457 79.2738 175.541 79.2442C175.624 79.2145 175.698 79.1595 175.753 79.086C175.841 78.9809 175.889 78.8456 175.889 78.7055C175.889 78.5654 175.841 78.4302 175.753 78.3251C173.981 76.728 171.691 75.9288 169.371 76.098C169.237 76.1127 169.114 76.1836 169.028 76.295C168.943 76.4063 168.903 76.5491 168.917 76.6918C168.931 76.8346 168.998 76.9656 169.102 77.0561C169.207 77.1466 169.342 77.1892 169.476 77.1744C171.513 77.0614 173.516 77.7633 175.089 79.1417C175.143 79.1962 175.209 79.2346 175.281 79.253Z" fill="#100142"/>
<path d="M162.378 95.492C163.652 95.5237 164.915 95.2377 166.067 94.6568C166.157 94.6092 166.256 94.581 166.357 94.5738C166.458 94.5667 166.559 94.5808 166.655 94.6152C166.751 94.6497 166.839 94.7039 166.915 94.7748C166.991 94.8456 167.054 94.9316 167.098 95.028C167.19 95.2251 167.204 95.4525 167.139 95.661C167.073 95.8694 166.933 96.0421 166.749 96.1415C165.329 97.0129 163.72 97.4796 162.08 97.4964C162.238 96.8839 162.185 96.0302 162.378 95.492Z" fill="url(#paint4_linear_103_311)"/>
<path d="M159.229 60.5638C159.964 54.4578 172.483 43.5264 180.053 45.9947C187.624 48.4631 191.995 62.6981 197.538 62.6981C203.08 62.6981 203.657 60.7308 206.455 62.8094C209.252 64.8881 214.06 73.945 207.277 82.9462C200.493 91.9475 198.534 92.5414 197.73 93.9333C195.492 97.8307 193.953 98.0349 192.66 98.4618C192.016 97.4881 191.602 96.3645 191.453 95.1856C191.304 94.0067 191.424 92.807 191.803 91.6876C192.66 89.5162 199.391 81.7213 192.083 79.7169C183.917 77.4898 186.837 87.2705 186.435 88.5882C184.799 88.8223 183.134 88.5917 181.609 87.9201C181.802 86.9921 181.994 86.0642 182.082 85.4517C182.344 83.2432 180.63 75.7452 184.966 71.2168C184.966 71.2168 177.343 66.2614 171.311 67.5049C165.279 68.7484 164.317 73.0727 164.317 73.0727C164.317 73.0727 158.478 66.6883 159.229 60.5638Z" fill="#100142"/>
<path d="M192.59 81.9439C191.928 81.7498 191.234 81.7124 190.558 81.8342C189.881 81.9561 189.238 82.2343 188.673 82.6492C187.992 83.4255 187.614 84.4467 187.614 85.5073C187.614 86.5679 187.992 87.5892 188.673 88.3654C189.425 89.2192 191.96 89.2934 191.086 85.9156C190.562 84.0968 190.911 83.2617 192.59 81.9439Z" fill="#CA5645"/>
<path d="M164.983 127.767C164.983 127.767 159.877 141.965 167.763 142.447C175.648 142.93 192.59 123.127 192.59 123.127L199.899 125.373C199.899 125.373 185.544 173.256 204.637 176.318C204.637 176.318 195.895 194.877 191.437 200.927C186.978 206.978 188.919 217.872 189.81 220.823C189.81 220.823 172.501 211.172 153.74 213.399C134.979 215.626 128.685 219.895 128.685 219.895C128.685 219.895 124.961 199.999 133.318 181.477C139.98 166.63 140.312 161.563 140.312 161.563C140.312 161.563 151.083 155.606 156.048 134.207C156.013 134.207 164.126 128.602 164.983 127.767Z" fill="url(#paint5_linear_103_311)"/>
<path d="M139.525 165.368C139.907 164.159 140.188 162.917 140.365 161.656C140.365 161.656 151.135 155.698 156.1 134.3L157.709 133.186C152.359 156.812 143.337 163.326 139.525 165.368Z" fill="#100142"/>
<g style="mix-blend-mode:multiply" opacity="0.55">
<path d="M167.221 213.696C170.91 209.539 175.963 206.013 179.652 201.447C181.641 198.94 182.898 195.872 183.267 192.618C183.637 189.364 183.104 186.066 181.733 183.129C175.473 171.047 188.884 169.191 189.793 158.055C190.37 150.984 188.045 143.691 192.276 137.418C194.863 133.52 196.594 129.103 198.92 125.076L199.899 125.373C199.899 125.373 199.549 126.542 199.025 128.528L198.553 130.384C195.493 142.744 189.373 173.868 204.637 176.355C204.637 176.355 195.895 194.914 191.437 200.964C186.978 207.015 188.919 217.909 189.81 220.86C182.609 217.432 175.014 215.023 167.221 213.696Z" fill="#5A71B3"/>
</g>
<path d="M204.637 176.318C204.637 176.318 204.095 177.468 203.221 179.269C186.856 175.111 192.626 143.319 195.983 129.363C196.212 127.971 196.819 126.681 197.731 125.651C198.381 125.251 199.148 125.125 199.882 125.298C199.882 125.298 205.634 126.709 205.232 128.231C205.127 128.602 199.357 127.099 198.885 128.899C196.018 140.201 188.744 173.775 204.637 176.318Z" fill="#100142"/>
<path d="M151.747 210.522C170.42 208.369 187.52 216.702 189.496 218.911C189.529 219.577 189.635 220.238 189.811 220.878C189.811 220.878 172.501 211.228 153.74 213.455C134.98 215.682 128.685 219.95 128.685 219.95C128.685 219.95 128.423 218.577 128.196 216.239C130.906 214.865 137.899 212.118 151.747 210.522Z" fill="#100142"/>
<path d="M184.407 220.86C184.407 220.86 193.289 240.57 194.216 250.239C195.143 259.909 195.335 277.818 201.455 283.145C201.455 283.145 186.051 288.471 177.326 289.455C168.601 290.439 159.125 289.047 155.873 289.455C155.873 289.455 148.25 235.466 146.134 225.203C146.134 225.221 165.874 217.148 184.407 220.86Z" fill="url(#paint6_linear_103_311)"/>
<path d="M176.365 286.448C183.848 285.613 195.825 281.512 199.217 280.38C199.865 281.37 200.59 282.301 201.385 283.164C201.385 283.164 185.981 288.49 177.256 289.474C168.532 290.457 159.055 289.065 155.803 289.474C155.803 289.474 155.523 287.896 155.331 286.43C158.88 286.17 168.025 287.414 176.365 286.448Z" fill="#100142"/>
<g style="mix-blend-mode:multiply" opacity="0.55">
<path d="M184.705 285.817C185.299 281.97 184.756 278.021 183.148 274.515C181.505 271.323 175.595 264.92 177.064 260.892C180.001 252.782 182.816 246.564 180.019 237.897C178.27 232.422 169.703 226.205 169.143 220.118C174.242 219.679 179.372 219.941 184.407 220.897C184.407 220.897 193.289 240.607 194.216 250.276C195.143 259.946 195.335 277.855 201.455 283.182C201.455 283.182 192.398 286.3 184.232 288.211C184.452 287.429 184.61 286.628 184.705 285.817Z" fill="#5A71B3"/>
</g>
<path d="M270.309 370.856C270.309 370.856 282.775 369.668 287.426 372.433C292.077 375.199 298.004 417.959 292.986 423.156C287.968 428.353 279.243 418.163 277.949 412.187C276.656 406.211 273.421 391.067 270.309 389.564C270.309 389.489 273.701 377.853 270.309 370.856Z" fill="#100142"/>
<path d="M225.007 402.741C225.007 402.741 236.599 404.597 240.253 408.179C243.908 411.761 239.449 451.923 233.819 455.412C228.189 458.901 223.329 447.784 223.329 442.049C223.329 436.314 223.591 421.783 221.073 419.778C221.143 419.611 226.651 409.83 225.007 402.741Z" fill="#100142"/>
<path d="M167.763 142.447C175.648 142.948 192.591 123.127 192.591 123.127L194.724 123.795C188.674 131.609 174.809 146.066 166.242 145.806C159.405 145.658 160.996 135.413 162.482 129.678C163.353 129.118 164.188 128.498 164.983 127.822C164.983 127.822 159.877 141.965 167.763 142.447Z" fill="#100142"/>
<path d="M250.499 33.4114C249.087 27.3825 249.737 21.0174 252.334 15.45C254.931 9.88266 259.306 5.47468 264.678 3.01137C271.235 0.153244 281.463 -2.8348 293.091 5.09001C308.966 15.8915 306.449 40.3526 292.409 48.927C272.529 61.139 253.873 47.1638 250.499 33.4114Z" fill="url(#paint7_linear_103_311)"/>
<path d="M249.799 27.8437C249.799 27.287 249.799 26.7302 249.799 26.1734C253.294 28.0024 256.971 29.4094 260.762 30.3678C265.671 31.4559 270.712 31.7003 275.694 31.0916C276.113 23.8906 272.039 19.2137 266.777 16.5597C262.549 14.4469 257.892 13.4838 253.226 13.7573C253.471 13.3118 253.716 12.885 253.995 12.4396C257.492 12.4396 265.081 13.1263 270.571 17.5248C272.533 19.0658 274.095 21.1103 275.111 23.4669C276.126 25.8235 276.561 28.415 276.375 30.9988C279.627 30.6219 282.802 29.7011 285.782 28.2706C285.782 28.0665 285.782 27.8623 285.782 27.6582C283.562 13.7201 273.333 5.81391 265.325 2.73307C265.937 2.4918 266.549 2.23197 267.214 1.9907C270.346 3.50588 273.284 5.43929 275.956 7.74407C281.633 12.8827 285.381 20.0163 286.516 27.8437L286.866 27.6396C288.615 26.5817 290.118 25.561 291.447 24.5773C290.317 23.0913 289.392 21.4414 288.702 19.6777C286.558 13.9347 285.754 7.72645 286.359 1.5824L287.181 1.86079C286.831 7.11306 286.971 17.1722 292.234 23.9834C295.685 21.2565 298.696 17.9534 301.151 14.2027C301.343 14.5924 301.535 15.0007 301.71 15.3905C299.118 18.8452 296.149 21.9603 292.863 24.6701C295.641 28.0454 299.495 30.2131 303.686 30.7575C303.581 31.4071 303.476 32.0381 303.336 32.6135C299.039 31.3597 295.15 28.8748 292.094 25.431C290.384 26.7771 288.571 27.9691 286.674 28.9944C287.273 33.8589 286.976 38.8007 285.8 43.5449C284.783 46.8128 283.55 50.0005 282.11 53.0843C281.463 53.2143 280.816 53.307 280.17 53.3998C282.619 50.0233 284.393 46.1522 285.385 42.023C286.378 37.8938 286.566 33.5933 285.939 29.3842C284.502 30.1265 283.011 30.7471 281.481 31.2401C279.759 31.74 278.006 32.1121 276.236 32.3536C275.842 35.2379 274.723 37.9562 272.997 40.2227C271.271 42.4892 269.001 44.2202 266.427 45.2338C264.067 46.1308 261.613 46.7168 259.118 46.9783C258.821 46.7185 258.524 46.4587 258.244 46.1803C264.871 45.6235 273.526 42.8396 275.431 32.4464C266.357 33.4115 255.622 31.8154 249.799 27.8437Z" fill="#752200"/>
<g style="mix-blend-mode:multiply" opacity="0.32">
<path d="M258.157 35.4901C262.032 36.4634 266.035 36.727 269.994 36.2695C273.91 35.9169 279.435 35.4901 282.897 33.43C289.087 29.6996 294.927 21.7191 295.871 8.95032C297.896 10.9301 299.551 13.2976 300.749 15.9286C305.767 27.0642 301.885 41.4105 291.797 47.4793C288.724 49.3498 285.38 50.6668 281.901 51.3768L280.992 51.5438L280.065 51.6737C265.815 53.5297 254.136 43.0994 251.583 32.9289C251.583 32.6691 251.461 32.4092 251.408 32.1494C253.474 33.6397 255.753 34.7677 258.157 35.4901Z" fill="#AA3B1D"/>
</g>
<defs>
<linearGradient id="paint0_linear_103_311" x1="148.862" y1="204.899" x2="169.006" y2="231.602" gradientUnits="userSpaceOnUse">
<stop stop-color="#56B8D6"/>
<stop offset="0.2" stop-color="#5A71D7"/>
<stop offset="0.98" stop-color="#1637A2"/>
</linearGradient>
<linearGradient id="paint1_linear_103_311" x1="158.514" y1="187.992" x2="159.144" y2="212.655" gradientUnits="userSpaceOnUse">
<stop stop-color="#56B8D6"/>
<stop offset="0.2" stop-color="#5A71D7"/>
<stop offset="0.98" stop-color="#1637A2"/>
</linearGradient>
<linearGradient id="paint2_linear_103_311" x1="186.506" y1="129.957" x2="212.942" y2="164.991" gradientUnits="userSpaceOnUse">
<stop stop-color="#56B8D6"/>
<stop offset="0.77" stop-color="#5A71D7"/>
</linearGradient>
<linearGradient id="paint3_linear_103_311" x1="149.02" y1="289.362" x2="133.729" y2="225.894" gradientUnits="userSpaceOnUse">
<stop stop-color="#56B8D6"/>
<stop offset="0.77" stop-color="#5A71D7"/>
</linearGradient>
<linearGradient id="paint4_linear_103_311" x1="161.839" y1="95.1175" x2="166.536" y2="96.5827" gradientUnits="userSpaceOnUse">
<stop stop-color="#FC5653"/>
<stop offset="1" stop-color="#FC0053"/>
</linearGradient>
<linearGradient id="paint5_linear_103_311" x1="145.942" y1="145.231" x2="192.656" y2="207.184" gradientUnits="userSpaceOnUse">
<stop stop-color="#56B8D6"/>
<stop offset="0.77" stop-color="#5A71D7"/>
</linearGradient>
<linearGradient id="paint6_linear_103_311" x1="177.833" y1="282.421" x2="162.562" y2="218.97" gradientUnits="userSpaceOnUse">
<stop stop-color="#56B8D6"/>
<stop offset="0.77" stop-color="#5A71D7"/>
</linearGradient>
<linearGradient id="paint7_linear_103_311" x1="254.188" y1="2.82578" x2="290.517" y2="36.4582" gradientUnits="userSpaceOnUse">
<stop stop-color="#F86C13"/>
<stop offset="1" stop-color="#EF248D"/>
</linearGradient>
</defs>
</svg>
