<svg width="295" height="378" viewBox="0 0 295 378" fill="none" xmlns="http://www.w3.org/2000/svg">
<path d="M162.138 64.2485C162.138 64.2485 174.097 62.8126 175.878 36.1309L195.543 47.636C195.543 47.636 190.763 66.3569 196.325 72.8637C196.325 72.8637 211.265 99.8726 207.975 111.16L204.94 121.647C190.273 136.496 145.344 122.828 134.203 121.538C129.168 120.956 121.68 99.7272 124.97 92.3116C132.513 75.3538 162.138 64.2485 162.138 64.2485Z" fill="#F5AA8D"/>
<path d="M184.639 102.817L184.221 128.463C192.782 128.154 200.342 126.3 204.941 121.647L207.976 111.159C208.576 108.544 208.613 105.83 208.085 103.199L184.639 102.817Z" fill="#CA5645"/>
<path d="M148.762 70.5735C139.874 75.4809 129.097 83.0238 124.971 92.3842C121.681 99.7271 129.115 120.956 134.204 121.538C137.712 121.938 142.564 119.957 147.999 116.594L148.762 70.5735Z" fill="#CA5645"/>
<path d="M174.915 79.2797C174.024 75.0336 173.755 70.6805 174.116 66.3569C175.551 57.2691 180.041 45.6549 177.878 36.4035L175.879 36.1309C174.061 62.8126 162.138 64.2485 162.138 64.2485C162.138 64.2485 159.285 84.3507 175.806 86.2591H176.915C175.986 84.0157 175.316 81.6743 174.915 79.2797Z" fill="#CA5645"/>
<path d="M212.938 220.467C212.938 220.467 209.212 231.755 199.27 237.389C191.965 241.301 184.341 244.584 176.479 247.204C176.479 247.204 178.115 226.574 185.367 221.013C192.618 215.451 212.938 220.467 212.938 220.467Z" fill="#1E2541"/>
<path d="M87.3125 225.957C87.3125 225.957 93.8918 240.043 106.378 243.423C114.799 245.522 123.453 246.542 132.132 246.459C132.132 246.459 118.337 220.94 87.3125 225.957Z" fill="#1E2541"/>
<path d="M282.002 79.7704C280.003 79.316 271.461 86.2227 270.661 90.0214C270.17 92.3115 268.844 96.6918 267.935 99.8181C267.554 101.057 267.004 102.238 266.299 103.326C261.156 111.323 241.854 127.209 237.219 134.224C237.05 134.447 236.831 134.627 236.58 134.751C236.33 134.875 236.054 134.939 235.774 134.939C235.495 134.939 235.219 134.875 234.968 134.751C234.718 134.627 234.499 134.447 234.329 134.224C225.133 121.502 218.335 91.0574 214.918 85.8774C209.811 86.7076 204.978 88.7522 200.825 91.8392C196.672 94.9262 193.322 98.9653 191.055 103.617C196.507 109.269 222.697 147.983 228.441 153.182C231.149 155.635 233.475 158.471 238.273 156.253C243.071 154.036 270.661 114.995 276.877 105.362C278.483 103.135 280.817 101.54 283.474 100.854C290.454 99.0365 292.162 94.5108 292.417 92.5296C292.671 90.5485 287.4 80.97 282.002 79.7704Z" fill="#F5AA8D"/>
<path d="M287.528 83.6235C286.262 84.3387 284.865 84.7901 283.42 84.9504C282.32 85.1317 281.209 85.2349 280.094 85.2593C278.777 85.2993 277.515 85.7935 276.521 86.6581C275.528 87.5228 274.863 88.7046 274.642 90.0032C274.633 90.1545 274.633 90.3062 274.642 90.4576C274.576 90.8133 274.491 91.1653 274.387 91.5117L292.562 91.8026C291.505 88.7396 289.786 85.9471 287.528 83.6235Z" fill="#CA5645"/>
<path d="M284.511 81.8059C284.627 82.637 284.546 83.4838 284.274 84.2778C283.09 86.7557 281.256 88.8662 278.967 90.3848C277.35 91.6753 275.623 92.8748 273.896 94.0199V98.1639C274.254 98.0456 274.618 97.9485 274.987 97.8731C276.89 97.696 278.806 98.0154 280.549 98.8001C282.459 99.5389 284.563 99.6107 286.519 99.0036C288.476 98.3966 290.17 97.1464 291.326 95.4558C291.956 94.5087 292.372 93.4356 292.544 92.3114C292.689 90.6392 289.054 84.3868 284.511 81.8059Z" fill="#CA5645"/>
<path d="M133.477 68.5559C133.477 68.5559 72.0269 111.614 70.9546 118.757C69.8823 125.9 60.8493 169.921 58.741 171.084C56.6327 172.248 49.6535 176.737 47.109 180.172C44.5645 183.607 40.348 191.696 41.2204 193.204C42.0927 194.713 43.1651 193.204 43.8739 192.35C43.8739 192.35 41.6202 196.149 42.9106 197.057C44.201 197.966 45.4188 195.458 45.4188 195.458C45.4188 195.458 43.7285 198.42 44.8008 199.438C45.8731 200.456 47.6543 197.984 47.6543 197.984C47.6543 197.984 46.4184 200.547 49.3627 200.002C51.053 199.693 54.5244 191.859 56.3601 189.805C58.1958 187.751 61.122 183.88 61.5036 184.589C61.8853 185.298 61.9944 185.788 61.6672 187.57C61.3401 189.351 57.4324 196.348 59.8497 196.657C62.267 196.966 66.0292 187.061 67.1197 184.88C68.2102 182.699 67.9194 175.992 68.9372 174.211C69.955 172.429 83.2954 128.208 85.4946 127.445C87.6938 126.681 125.207 99.2545 130.587 99.3454C135.967 99.4362 138.602 71.6094 133.477 68.5559Z" fill="#F5AA8D"/>
<path d="M281.785 79.752C278.786 79.8974 275.514 91.3662 277.514 92.3659C279.513 93.3655 281.767 87.9674 282.239 87.0768C282.239 87.0768 277.859 94.347 280.076 95.7647C282.294 97.1824 285.002 90.5483 285.62 89.4396C285.62 89.4396 281.603 96.5463 283.475 97.4732C285.347 98.4002 288.546 93.6745 289.309 92.0205C289.309 92.0205 286.092 97.4732 288.382 98.4183C290.672 99.3635 294.98 91.6752 293.835 88.7489C292.69 85.8227 284.729 79.6066 281.785 79.752Z" fill="#F5AA8D"/>
<path d="M267.989 101.981C268.719 99.8155 269.183 97.5695 269.371 95.2922C269.498 92.2387 279.803 84.8049 281.984 87.4585C284.165 90.1121 281.003 94.4379 276.768 96.2373C272.533 98.0367 275.677 104.107 267.989 101.981Z" fill="#F5AA8D"/>
<path d="M178.187 37.4939C178.695 39.8204 181.276 40.9473 181.403 43.3828C181.64 47.9994 179.695 55.1242 181.204 59.5591C182.08 62.699 183.893 65.4974 186.399 67.5819C188.906 69.6664 191.988 70.9381 195.235 71.2278C191.418 63.6849 195.507 47.5995 195.507 47.5995L178.187 37.4939Z" fill="#CA5645"/>
<path d="M217.118 15.0289C215.882 12.975 206.413 10.6122 198.398 8.92186C195.688 8.36876 192.877 8.58647 190.284 9.55028C187.692 10.5141 185.421 12.1854 183.731 14.3745C182.371 16.0737 180.722 17.5196 178.86 18.6458C178.014 19.1768 177.287 19.8761 176.724 20.7003C176.161 21.5245 175.774 22.4558 175.586 23.4362C175.398 24.4167 175.415 25.4253 175.634 26.3991C175.853 27.373 176.271 28.2913 176.86 29.0968C178.351 31.3324 177.497 33.6588 177.878 36.367C178.314 39.4387 177.497 42.0741 180.205 47.3996C184.93 53.5429 199.779 64.0302 205.195 62.2309C210.902 60.4133 215.228 44.6914 215.682 42.0196C216.137 39.3478 215.773 36.5669 216.191 34.9675C216.609 33.368 219.299 18.6276 217.118 15.0289Z" fill="#F5AA8D"/>
<path d="M193.181 18.5004C193.181 18.5004 202.268 30.5872 215.118 27.3155C227.968 24.0439 226.95 16.3738 226.95 16.3738C226.052 16.4288 225.157 16.2251 224.371 15.787C223.585 15.3489 222.941 14.6948 222.515 13.902C220.461 10.9939 211.865 -4.27363 189.982 1.34263C187.355 2.051 184.888 3.25391 182.712 4.88687C181.715 4.52822 180.631 4.48955 179.612 4.77627C178.592 5.06298 177.687 5.66079 177.023 6.48632C174.388 9.43076 170.226 19.2092 174.57 34.0042C174.57 34.0042 174.915 35.8217 175.169 37.8392C175.245 38.4895 175.526 39.0986 175.972 39.5778C176.419 40.0569 177.006 40.381 177.649 40.5027C178.292 40.6245 178.958 40.5375 179.548 40.2546C180.138 39.9716 180.623 39.5074 180.931 38.9297C181.408 37.7807 181.607 36.5352 181.512 35.2946C181.512 32.8954 175.569 24.9709 183.185 24.1166C189.419 23.426 185.984 35.9489 188.946 36.985C191.909 38.021 193.653 33.9315 192.872 28.297C192.036 21.8265 192.545 21.6811 193.181 18.5004Z" fill="#1E2541"/>
<path d="M181.822 27.4973C182.388 27.3429 182.981 27.3151 183.559 27.4156C184.137 27.5161 184.686 27.7425 185.166 28.0789C185.745 28.7011 186.067 29.5193 186.067 30.369C186.067 31.2187 185.745 32.0369 185.166 32.6591C184.512 33.3498 182.349 33.4225 183.095 30.6962C183.64 29.2421 183.258 28.5696 181.822 27.4973Z" fill="#CA5645"/>
<path d="M215.555 41.2745C215.539 41.4776 215.482 41.6755 215.39 41.8569C215.297 42.0383 215.169 42.1995 215.014 42.3313C214.858 42.4631 214.678 42.5628 214.484 42.6247C214.29 42.6866 214.085 42.7096 213.882 42.6922C213.682 42.6778 213.486 42.6242 213.307 42.5342C213.127 42.4442 212.967 42.3198 212.835 42.1679C212.703 42.016 212.603 41.8396 212.539 41.6489C212.476 41.4582 212.451 41.2568 212.465 41.0564C212.479 40.8559 212.533 40.6601 212.623 40.4804C212.713 40.3006 212.837 40.1404 212.989 40.0087C213.141 39.8771 213.317 39.7766 213.508 39.7131C213.699 39.6496 213.9 39.6243 214.101 39.6387C214.304 39.6502 214.502 39.7018 214.685 39.7903C214.868 39.8789 215.032 40.0027 215.167 40.1547C215.302 40.3067 215.406 40.4838 215.472 40.676C215.539 40.8681 215.567 41.0715 215.555 41.2745Z" fill="#100142"/>
<path d="M206.286 40.2201C206.214 40.6904 205.96 41.1137 205.58 41.3992C205.199 41.6846 204.722 41.8095 204.25 41.7469C204.006 41.7701 203.759 41.7397 203.528 41.6579C203.296 41.5761 203.085 41.4449 202.91 41.2734C202.734 41.1018 202.598 40.894 202.511 40.6645C202.423 40.435 202.387 40.1892 202.405 39.9443C202.422 39.6994 202.493 39.4612 202.611 39.2464C202.73 39.0315 202.894 38.845 203.092 38.7C203.291 38.555 203.518 38.4549 203.759 38.4067C203.999 38.3585 204.248 38.3633 204.486 38.4208C204.962 38.4255 205.417 38.6166 205.754 38.953C206.09 39.2895 206.281 39.7444 206.286 40.2201Z" fill="#100142"/>
<path d="M208.212 50.9073H208.03C207.963 50.8964 207.898 50.8721 207.841 50.8358C207.783 50.7995 207.733 50.7519 207.694 50.696C207.655 50.64 207.628 50.5768 207.614 50.5101C207.599 50.4433 207.599 50.3745 207.612 50.3075C207.65 50.1763 207.738 50.065 207.857 49.9972C207.975 49.9293 208.116 49.9103 208.248 49.944C209.339 50.1803 210.066 50.1621 210.375 49.944C210.684 49.7259 210.375 48.1265 210.084 47.254C209.957 46.8723 209.847 46.527 209.775 46.2362C209.612 44.3453 209.729 42.4407 210.12 40.5836C210.154 40.449 210.241 40.3334 210.36 40.2619C210.479 40.1904 210.621 40.1689 210.756 40.2019C210.89 40.2243 211.009 40.2972 211.091 40.4055C211.172 40.5137 211.208 40.6491 211.192 40.7835C210.811 42.5128 210.688 44.2892 210.829 46.0544C210.829 46.3271 210.992 46.6361 211.102 46.9814C211.538 48.2173 212.065 49.7623 211.102 50.6165C210.629 50.9073 209.648 51.1073 208.212 50.9073Z" fill="#E37C58"/>
<path d="M206.612 54.5426C205.914 54.5045 205.232 54.3236 204.606 54.0109C203.981 53.6983 203.427 53.2606 202.977 52.725C202.937 52.6845 202.904 52.6363 202.882 52.5833C202.86 52.5303 202.849 52.4734 202.849 52.416C202.849 52.3586 202.86 52.3018 202.882 52.2487C202.904 52.1957 202.937 52.1476 202.977 52.107C203.016 52.0669 203.063 52.035 203.115 52.0132C203.166 51.9914 203.221 51.9802 203.277 51.9802C203.333 51.9802 203.389 51.9914 203.44 52.0132C203.492 52.035 203.538 52.0669 203.577 52.107C206.085 54.7788 207.994 53.3066 208.085 53.2521C208.174 53.2074 208.277 53.1951 208.375 53.2172C208.473 53.2393 208.56 53.2946 208.622 53.3736C208.684 53.4526 208.717 53.5506 208.715 53.6509C208.713 53.7513 208.677 53.848 208.612 53.9246C208.026 54.3335 207.327 54.5495 206.612 54.5426Z" fill="url(#paint0_linear_103_171)"/>
<path d="M200.742 35.0038C200.65 34.9976 200.562 34.9674 200.485 34.9164C200.409 34.8654 200.347 34.7953 200.306 34.7129C200.249 34.5922 200.242 34.4542 200.287 34.3284C200.331 34.2027 200.423 34.0993 200.542 34.0404C202.76 33.088 205.25 32.9845 207.539 33.7496C207.601 33.7719 207.657 33.8061 207.705 33.8502C207.752 33.8944 207.791 33.9476 207.818 34.0068C207.845 34.066 207.86 34.13 207.862 34.1951C207.864 34.2601 207.853 34.325 207.83 34.3858C207.785 34.5097 207.693 34.6112 207.575 34.6688C207.456 34.7265 207.32 34.7358 207.194 34.6948C205.16 34.0213 202.95 34.1118 200.978 34.9492C200.905 34.9862 200.824 35.0049 200.742 35.0038Z" fill="#100142"/>
<path d="M212.901 33.9133C212.773 33.9552 212.666 34.0444 212.601 34.1627C212.537 34.281 212.521 34.4194 212.555 34.5494C212.597 34.6726 212.684 34.7751 212.799 34.8359C212.914 34.8968 213.048 34.9113 213.173 34.8766C214.193 34.615 215.262 34.615 216.281 34.8766C216.281 34.8766 216.281 34.713 216.281 34.6403L216.445 33.8951C215.28 33.6087 214.062 33.6149 212.901 33.9133Z" fill="#100142"/>
<path d="M98.6347 224.866C98.6347 224.866 86.8027 250.839 78.315 261.054C78.315 261.054 73.7713 285.263 96.2719 274.485C96.2719 274.485 123.789 247.095 127.515 239.37C131.241 231.645 114.356 228.065 98.6347 224.866Z" fill="#F5AA8D"/>
<path d="M98.6346 264.489C94.3272 264.325 90.7104 263.144 88.0932 259.509C86.4793 257.2 85.2913 254.62 84.5854 251.893C82.7201 255.071 80.6244 258.109 78.315 260.981C78.315 260.981 73.7713 285.191 96.2719 274.413C96.2719 274.413 100.743 269.96 106.323 264.143C103.77 264.421 101.202 264.537 98.6346 264.489Z" fill="#CA5645"/>
<path d="M167.809 233.972C175.155 239.737 183.394 244.261 192.2 247.367C192.519 248.36 193.072 249.26 193.813 249.994C194.553 250.728 195.458 251.273 196.453 251.584C198.27 252.111 202.941 251.203 204.741 251.112C224.988 250.203 218.99 239.661 218.99 239.661C218.99 239.661 205.013 218.341 200.324 213.488C195.635 208.635 166.591 224.394 167.809 233.972Z" fill="#F5AA8D"/>
<path d="M194.435 241.606C187.432 235.995 180.942 229.773 175.043 223.012C170.535 226.647 167.391 230.682 167.773 233.918C175.119 239.682 183.357 244.207 192.163 247.313C192.483 248.305 193.036 249.206 193.776 249.94C194.516 250.674 195.422 251.219 196.416 251.53C198.234 252.057 202.905 251.148 204.704 251.057C206.503 250.966 207.685 250.857 208.957 250.675C203.84 248.12 198.977 245.083 194.435 241.606Z" fill="#CA5645"/>
<path d="M120.264 170.394C120.264 170.394 103.361 193.386 104.288 198.184C105.215 202.983 90.9475 221.431 87.3125 225.957C87.3125 225.957 128.279 238.843 132.132 246.459C132.132 246.459 148.744 216.414 151.143 216.251C153.542 216.087 176.479 247.149 176.479 247.149C176.479 247.149 192.836 220.686 212.938 220.431C212.938 220.431 192.418 197.803 179.46 187.443C166.501 177.082 134.767 171.43 120.264 170.394Z" fill="url(#paint1_linear_103_171)"/>
<g style="mix-blend-mode:multiply" opacity="0.55">
<path d="M107.305 232.972C106.666 230.394 106.512 227.719 106.851 225.084C107.759 217.541 114.666 215.851 117.665 209.78C121.1 202.855 113.684 195.894 117.483 188.479C120.846 182.523 124.573 176.781 128.642 171.284C125.516 170.866 122.645 170.557 120.282 170.394C120.282 170.394 103.379 193.386 104.306 198.184C105.233 202.983 90.9475 221.431 87.3125 225.957C87.3125 225.957 96.9452 229.028 107.305 232.972Z" fill="#5A71B3"/>
</g>
<g style="mix-blend-mode:multiply" opacity="0.55">
<path d="M178.387 235.971C176.914 230.01 178.041 227.374 171.68 224.266C169.663 223.285 167.118 222.03 166.427 219.668C165.854 218.184 165.701 216.57 165.986 215.005C166.272 213.44 166.984 211.984 168.045 210.798C170.862 207.163 162.174 208.635 160.248 208.78C157.668 209.102 155.049 208.897 152.55 208.179C150.051 207.46 147.723 206.243 145.708 204.6C145.962 208.78 145.708 213.179 142.873 216.069C139.238 219.886 136.348 221.867 135.603 227.538C135.439 230.174 134.862 232.768 133.894 235.226C132.553 238.096 130.842 240.778 128.805 243.205C130.135 244.031 131.265 245.142 132.113 246.458C132.113 246.458 148.743 216.414 151.142 216.305C153.541 216.196 176.478 247.204 176.478 247.204C177.978 244.875 179.604 242.63 181.349 240.479C179.85 239.383 178.797 237.782 178.387 235.971Z" fill="#5A71B3"/>
</g>
<path d="M175.024 277.339C176.315 257.655 179.405 254.365 187.583 250.075C188.874 249.403 190.564 248.458 191.509 247.858C194.246 248.884 197.203 249.178 200.088 248.712C206.737 248.304 213.293 246.939 219.553 244.659C218.783 247.581 217.436 250.318 215.591 252.711C208.866 262.162 184.239 300.349 171.208 334.501C171.208 334.501 166.064 334.719 158.594 327.231C158.594 327.176 174.225 289.517 175.024 277.339Z" fill="#EAF0FC"/>
<path d="M175.024 277.339C176.315 257.655 179.405 254.365 187.583 250.076C189.178 249.283 190.715 248.378 192.182 247.367C193.005 247.929 193.905 248.37 194.853 248.676C196.172 248.854 197.506 248.896 198.834 248.803C198.997 248.949 190.564 253.056 187.929 255.892C182.967 261.344 180.877 269.196 179.423 278.03C176.388 296.351 167.736 313.018 163.065 330.957C161.466 329.832 159.97 328.567 158.594 327.176C158.594 327.176 174.225 289.517 175.024 277.339Z" fill="#B1C8D3"/>
<path d="M158.703 326.449C158.703 326.449 147.798 327.067 149.307 335.901C150.815 344.734 151.797 347.878 150.324 356.057C148.852 364.236 146.998 376.45 153.85 377.741C160.702 379.031 167.427 371.416 169.317 352.931C171.207 334.446 171.626 333.374 171.626 333.374C166.616 332.724 162.018 330.261 158.703 326.449Z" fill="#1E2541"/>
<path d="M24.4995 338.082C24.4995 338.082 47.5272 305.366 54.7427 290.716C57.578 284.991 58.8139 276.939 62.0127 272.25C67.1017 264.98 74.4262 258.527 81.6235 256.51C81.6235 256.51 81.7143 268.342 97.6175 272.868C95.8355 279.059 93.1205 284.943 89.5659 290.316C86.9851 293.951 60.6859 316.471 44.9282 332.556C41.4476 336.356 38.5781 340.672 36.4223 345.352C33.9534 345.379 31.5267 344.712 29.4187 343.426C27.3106 342.141 25.6062 340.289 24.4995 338.082Z" fill="#EAF0FC"/>
<path d="M54.779 300.967C62.667 291.534 61.2493 280.047 67.7923 270.323C71.0275 265.488 78.4974 267.47 82.3323 259.69C81.9855 258.638 81.7777 257.544 81.7143 256.437C74.4444 258.455 67.1744 264.87 62.1035 272.177C58.8502 276.866 57.6143 284.9 54.8335 290.643C47.5272 305.366 24.4995 338.082 24.4995 338.082C25.0047 339.12 25.6465 340.086 26.4079 340.953C35.041 328.031 46.1823 311.236 54.779 300.967Z" fill="#B1C8D3"/>
<path d="M24.4992 337.537C24.4992 337.537 13.2671 346.933 8.14171 350.26C-12.9776 363.928 12.7218 374.233 20.8642 372.07C29.0066 369.907 27.6798 360.111 31.7692 355.821C36.2584 351.096 36.0221 349.005 36.3675 344.916C31.6344 344.01 27.4055 341.381 24.4992 337.537Z" fill="#1E2541"/>
<path d="M165.756 62.5762C165.756 62.5762 143.655 63.285 132.75 69.083C132.75 69.083 142.001 92.0388 126.588 110.087C126.588 110.087 131.532 136.333 127.77 147.311C124.008 158.289 109.449 171.557 111.958 182.444C111.958 182.444 138.057 174.629 156.977 185.389C175.897 196.149 188.165 193.858 188.165 193.858C189.975 185.953 190.111 177.756 188.565 169.794C186.13 155.435 200.27 133.879 204.923 121.72C204.923 121.72 200.179 97.2734 214.81 85.9318C214.81 85.9318 203.414 73.3725 194.199 68.247C194.199 68.247 190.019 80.9699 180.968 78.5525C171.917 76.1352 165.756 62.5762 165.756 62.5762Z" fill="url(#paint2_linear_103_171)"/>
<path style="mix-blend-mode:multiply" opacity="0.5" d="M148.271 178.264C149.307 174.138 161.575 161.051 158.431 157.962C150.47 150.164 140.747 143.239 146.799 130.698C150.925 122.119 163.157 118.448 159.067 106.706C156.141 98.4729 148.907 91.439 147.417 82.7511C145.963 74.3539 147.744 68.6468 151.706 63.9211C145.2 64.8117 137.821 66.3748 132.75 69.083C132.75 69.083 142.001 92.0388 126.588 110.087C126.588 110.087 131.532 136.333 127.77 147.311C124.008 158.289 109.449 171.557 111.958 182.444C111.958 182.444 130.496 176.992 147.653 181.59C147.784 180.468 147.99 179.357 148.271 178.264Z" fill="url(#paint3_linear_103_171)"/>
<path style="mix-blend-mode:multiply" opacity="0.5" d="M208.54 93.2749C207.631 93.8565 206.722 94.42 205.723 94.9652C201.161 97.5825 194.636 100.709 193.255 106.307C191.673 112.814 194.163 119.211 193.491 125.773C193.036 130.262 189.856 133.625 187.13 136.933C180.35 145.094 181.677 150.928 181.841 160.725C182.077 172.466 172.299 181.008 170.172 191.278C181.423 195.04 188.202 193.786 188.202 193.786C190.012 185.88 190.148 177.683 188.602 169.721C186.166 155.363 200.306 133.806 204.959 121.647C204.941 121.647 201.815 105.434 208.54 93.2749Z" fill="url(#paint4_linear_103_171)"/>
<path d="M258.902 330.575C258.902 330.575 244.253 310.4 219.844 323.214C207.921 329.466 204.904 351.114 215.718 362.382C224.352 371.47 246.616 374.051 256.739 361.092C269.48 344.879 259.974 331.775 258.902 330.575Z" fill="url(#paint5_radial_103_171)"/>
<g style="mix-blend-mode:multiply" opacity="0.75">
<path d="M250.141 355.185C242.617 356.366 235.71 356.784 228.768 353.967C217.317 349.296 214.773 337.827 215.354 326.704C207.376 335.319 206.431 352.659 215.718 362.346C224.351 371.434 246.615 374.015 256.739 361.056C259.265 357.933 261.154 354.345 262.3 350.496C258.701 353.046 254.521 354.658 250.141 355.185Z" fill="url(#paint6_radial_103_171)"/>
</g>
<path d="M263.027 347.406C263.211 346.203 263.297 344.987 263.282 343.771C263.251 340.766 262.634 337.796 261.464 335.028L256.012 330.484L253.649 325.359L252.977 324.85L255.685 330.812L252.377 336.646L241.345 334.738L233.511 326.995L238.237 322.433L247.197 324.068L248.597 322.087C248.306 321.974 248.026 321.834 247.76 321.669L246.688 321.179C246.016 320.888 245.343 320.633 244.653 320.397C243.233 319.902 241.774 319.531 240.291 319.288C237.332 318.779 234.307 318.779 231.348 319.288L237.655 322.233L233.257 326.758L222.261 330.194L217.081 328.994L220.716 322.705C218.31 323.875 216.189 325.556 214.5 327.631C212.787 329.81 211.465 332.27 210.593 334.901L216.881 329.303L222.134 330.412L221.843 340.681L215.791 348.624L210.338 345.752L209.229 342.008C209.229 342.426 209.229 342.844 209.229 343.28L210.066 345.916L209.666 349.551C210.482 354.893 213.106 359.794 217.099 363.437L221.279 360.892L232.802 364.527L239.654 369.762C244.196 369.422 248.57 367.899 252.341 365.345L252.141 356.712L257.048 347.479L263.027 347.406ZM232.839 364.037L221.061 360.401L216.245 349.187L222.243 341.244L234.147 344.97V344.88L239.345 355.04L232.839 364.037ZM251.741 356.094L239.891 354.567L234.529 344.407L241.399 335.428L252.122 337.246L256.648 347.17L251.741 356.094Z" fill="#1E2541"/>
<defs>
<linearGradient id="paint0_linear_103_171" x1="210.66" y1="52.3079" x2="204.668" y2="53.3235" gradientUnits="userSpaceOnUse">
<stop stop-color="#FC5653"/>
<stop offset="1" stop-color="#FC0053"/>
</linearGradient>
<linearGradient id="paint1_linear_103_171" x1="172.726" y1="186.85" x2="128.567" y2="246.46" gradientUnits="userSpaceOnUse">
<stop stop-color="#56B8D6"/>
<stop offset="0.77" stop-color="#5A71D7"/>
</linearGradient>
<linearGradient id="paint2_linear_103_171" x1="204.072" y1="72.3248" x2="114.755" y2="193.325" gradientUnits="userSpaceOnUse">
<stop stop-color="#EF248D"/>
<stop offset="1" stop-color="#893F94"/>
</linearGradient>
<linearGradient id="paint3_linear_103_171" x1="120.631" y1="132.423" x2="159.911" y2="118.481" gradientUnits="userSpaceOnUse">
<stop stop-color="#EF248D"/>
<stop offset="1" stop-color="#893F94"/>
</linearGradient>
<linearGradient id="paint4_linear_103_171" x1="180.055" y1="144.976" x2="193.593" y2="144.447" gradientUnits="userSpaceOnUse">
<stop stop-color="#EF248D"/>
<stop offset="1" stop-color="#893F94"/>
</linearGradient>
<radialGradient id="paint5_radial_103_171" cx="0" cy="0" r="1" gradientUnits="userSpaceOnUse" gradientTransform="translate(236.165 344.461) scale(26.3356 26.3364)">
<stop offset="0.07" stop-color="#FFDF8C"/>
<stop offset="1" stop-color="#FFBF73"/>
</radialGradient>
<radialGradient id="paint6_radial_103_171" cx="0" cy="0" r="1" gradientUnits="userSpaceOnUse" gradientTransform="translate(235.674 348.369) scale(24.2454 24.2462)">
<stop offset="0.07" stop-color="#FFDF8C"/>
<stop offset="1" stop-color="#FFBF73"/>
</radialGradient>
</defs>
</svg>
