<svg width="213" height="197" viewBox="0 0 213 197" fill="none" xmlns="http://www.w3.org/2000/svg">
<g clip-path="url(#clip0_174_12)">
<path d="M21.3659 71.2571L63.3414 94.73L20.1558 158.48L21.3659 71.2571Z" fill="white"/>
<path d="M153.343 27.5884L91.3633 94.8444L83.8757 90.6147L71.0561 83.4128L30.8579 60.9306L153.343 27.5884Z" fill="white"/>
<path d="M172.402 0.342813C178.188 -1.25761 182.802 2.93398 182.726 9.64053L181.024 133.75C180.963 137.05 179.911 140.255 178.008 142.941C176.104 145.628 173.438 147.671 170.36 148.801L10.3615 192.394C4.5379 193.956 0 189.765 0 182.906L1.70171 58.9489C1.72256 55.6099 2.76 52.3578 4.67388 49.632C6.58775 46.9061 9.28583 44.8379 12.4036 43.7068L72.6442 27.3214L92.3841 22.101L172.402 0.342813ZM27.5299 165.644L153.797 131.349L110.8 89.1665L94.5396 106.695L91.0605 110.506L82.3629 105.628L72.1526 99.8741L27.5299 165.644ZM153.343 27.5882L30.8577 60.9685L71.0181 83.4507L83.8755 90.6526L91.4387 94.8823L153.343 27.5882ZM21.3659 71.257L20.1558 158.48L63.3415 94.7299L21.3659 71.257ZM161.285 119.994L162.608 32.8086L119.763 79.2591L161.36 119.994" fill="#FFB543"/>
<path d="M110.8 89.1667L153.759 131.273L27.5298 165.644L72.1903 99.6838L82.4384 105.438L91.1738 110.315L94.6151 106.581L110.8 89.1667Z" fill="white"/>
<path d="M162.57 32.8088L161.36 119.994L119.763 79.2593L162.57 32.8088Z" fill="white"/>
<path d="M222.735 28.2743C222.735 28.2743 222.735 27.9313 222.735 27.7789C222.735 27.6265 222.735 27.3979 222.735 27.2073C222.656 26.8785 222.542 26.5591 222.395 26.2547C222.32 25.9966 222.206 25.7521 222.054 25.5307L221.676 24.8829C221.572 24.6903 221.445 24.5111 221.298 24.3494C221.194 24.1686 221.067 24.0021 220.92 23.854L220.693 23.6254C220.573 23.479 220.433 23.3506 220.277 23.2444C219.982 23.0723 219.663 22.944 219.332 22.8633L218.878 22.5204L218.5 22.3298L178.302 0.838379C178.967 1.20791 179.578 1.66967 180.117 2.21017C180.695 2.76788 181.169 3.42622 181.516 4.15355C181.865 4.87004 182.131 5.62434 182.31 6.40177V6.89714C182.497 7.77347 182.586 8.66821 182.575 9.56452L181.024 133.75C180.986 134.465 180.91 135.177 180.797 135.884C180.797 136.074 180.797 136.227 180.797 136.379C180.653 137.152 180.464 137.915 180.23 138.666C179.951 139.448 179.622 140.211 179.247 140.952C178.855 141.685 178.426 142.397 177.961 143.086C177.47 143.734 176.978 144.343 176.449 144.915C175.918 145.463 175.349 145.972 174.747 146.439C174.293 146.782 173.801 147.049 173.31 147.354C172.482 147.853 171.592 148.237 170.663 148.497L10.3614 192.394C8.85185 192.815 7.25742 192.815 5.74787 192.394C5.28842 192.266 4.84451 192.088 4.42432 191.861L44.736 213.162C46.5666 214.083 48.6786 214.26 50.6353 213.657L210.634 170.103C211.56 169.833 212.449 169.449 213.281 168.959H213.622L214.643 168.235L215.55 167.664L216.231 167.054L216.609 166.673C216.805 166.488 216.982 166.284 217.138 166.063C217.323 165.878 217.487 165.673 217.63 165.454C217.768 165.298 217.894 165.133 218.008 164.958C218.233 164.61 218.424 164.24 218.575 163.853C218.575 163.853 218.84 163.434 218.991 163.206L219.37 162.52L219.672 161.91C219.815 161.657 219.93 161.389 220.012 161.11L220.353 160.271C220.353 160.005 220.542 159.7 220.617 159.395C220.693 159.09 220.844 158.595 220.92 158.214V157.985C220.938 157.82 220.938 157.654 220.92 157.49C220.92 157.109 220.92 156.728 220.92 156.347C220.92 155.965 220.92 155.699 220.92 155.356L223.113 30.9417C223.153 30.2563 223.153 29.5693 223.113 28.884C222.849 28.6553 222.773 28.4648 222.735 28.2743Z" fill="url(#paint0_linear_174_12)"/>
</g>
<defs>
<linearGradient id="paint0_linear_174_12" x1="4.42432" y1="107.419" x2="223" y2="107.419" gradientUnits="userSpaceOnUse">
<stop stop-color="#FAA61C"/>
<stop offset="0.22" stop-color="#FA9615"/>
<stop offset="0.72" stop-color="#FA7506"/>
<stop offset="1" stop-color="#FA6800"/>
</linearGradient>
<clipPath id="clip0_174_12">
<rect width="223" height="214" fill="white"/>
</clipPath>
</defs>
</svg>
