<svg width="303" height="301" viewBox="0 0 303 301" fill="none" xmlns="http://www.w3.org/2000/svg">
<path d="M166.302 211.195L133.891 209.258L164.427 242.543L196.838 244.48L166.302 211.195Z" fill="url(#paint0_linear_174_3)"/>
<path d="M187.369 38.5708L76.8814 113.307C69.0658 118.62 65.757 130.823 69.6174 140.808L104.14 230.72L116.947 241.424L84.5535 239.508C81.6001 239.156 78.8171 237.955 76.5411 236.052C74.2651 234.149 72.5935 231.624 71.7285 228.783L37.2056 138.87C33.4011 128.948 36.7472 116.786 44.4882 111.391L154.957 36.6335C157.364 34.9498 160.259 34.1112 163.184 34.25L195.596 36.1873C192.67 36.0486 189.776 36.8871 187.369 38.5708Z" fill="url(#paint1_linear_174_3)"/>
<path d="M235.643 164.283C243.477 158.992 246.788 146.749 242.926 136.804L208.421 46.9116C204.617 36.9888 195.203 33.2789 187.369 38.5706L76.8815 113.307C69.0659 118.619 65.7572 130.823 69.6176 140.807L104.14 230.72C107.947 240.604 117.34 244.332 125.135 239.039L166.303 211.195L196.838 244.48L195.606 191.372L235.643 164.283ZM183.825 106.441C188.532 103.29 194.289 105.493 196.626 111.525C197.765 114.404 197.947 117.578 197.147 120.579C196.346 123.581 194.605 126.253 192.179 128.203C187.491 131.375 181.716 129.15 179.436 123.141C178.295 120.264 178.105 117.092 178.895 114.088C179.684 111.084 181.412 108.405 183.825 106.441ZM152.095 127.925C156.783 124.753 162.558 126.977 164.877 132.988C166.023 135.871 166.215 139.05 165.425 142.062C164.635 145.073 162.905 147.759 160.486 149.728C155.779 152.879 150.022 150.675 147.703 144.665C146.571 141.783 146.39 138.61 147.187 135.607C147.983 132.604 149.716 129.927 152.132 127.966M120.362 149.448C125.069 146.297 130.825 148.5 133.124 154.53C134.267 157.405 134.456 160.577 133.662 163.579C132.869 166.581 131.135 169.255 128.716 171.21C124.027 174.381 118.252 172.157 115.973 166.148C114.831 163.271 114.642 160.099 115.431 157.095C116.221 154.091 117.948 151.412 120.362 149.448Z" fill="#44D1F1"/>
<path d="M192.179 128.203C194.605 126.254 196.346 123.582 197.147 120.58C197.947 117.578 197.765 114.404 196.626 111.525C194.309 105.475 188.595 103.234 183.825 106.441C181.412 108.405 179.684 111.084 178.894 114.088C178.105 117.093 178.295 120.264 179.436 123.142C181.736 129.132 187.449 131.412 192.179 128.203Z" fill="#FFF7F0"/>
<path d="M160.485 149.729C162.881 147.759 164.591 145.082 165.365 142.085C166.14 139.088 165.94 135.928 164.793 133.064C162.495 127.034 156.783 124.753 152.032 127.981C149.612 129.94 147.877 132.617 147.08 135.621C146.283 138.625 146.467 141.799 147.603 144.68C149.985 150.635 155.699 152.876 160.485 149.729Z" fill="#FFF7F0"/>
<path d="M128.679 171.169C131.099 169.214 132.832 166.54 133.626 163.538C134.419 160.536 134.23 157.364 133.087 154.489C130.789 148.459 125.095 146.2 120.325 149.407C117.911 151.371 116.184 154.05 115.394 157.054C114.605 160.058 114.795 163.23 115.936 166.107C118.236 172.097 123.949 174.378 128.679 171.169Z" fill="#FFF7F0"/>
<defs>
<linearGradient id="paint0_linear_174_3" x1="156.749" y1="234.645" x2="173.998" y2="219.114" gradientUnits="userSpaceOnUse">
<stop stop-color="#0070AB"/>
<stop offset="1" stop-color="#2A95CD"/>
</linearGradient>
<linearGradient id="paint1_linear_174_3" x1="163.114" y1="206.229" x2="115.729" y2="88.9387" gradientUnits="userSpaceOnUse">
<stop stop-color="#2A95CD"/>
<stop offset="1" stop-color="#0070AB"/>
</linearGradient>
</defs>
</svg>
