<svg width="135" height="135" viewBox="0 0 135 135" fill="none" xmlns="http://www.w3.org/2000/svg">
<path d="M91.3333 56.3334L67.9999 70.9167L44.6666 56.3334V50.5001L67.9999 65.0834L91.3333 50.5001M91.3333 44.6667H44.6666C41.4291 44.6667 38.8333 47.2626 38.8333 50.5001V85.5001C38.8333 87.0472 39.4478 88.5309 40.5418 89.6249C41.6358 90.7188 43.1195 91.3334 44.6666 91.3334H91.3333C92.8803 91.3334 94.3641 90.7188 95.458 89.6249C96.552 88.5309 97.1666 87.0472 97.1666 85.5001V50.5001C97.1666 48.953 96.552 47.4693 95.458 46.3753C94.3641 45.2813 92.8803 44.6667 91.3333 44.6667Z" fill="url(#paint0_linear_296_2)"/>
<circle cx="67.5" cy="67.5" r="65.5" stroke="url(#paint1_linear_296_2)" stroke-width="4"/>
<defs>
<linearGradient id="paint0_linear_296_2" x1="35.0206" y1="435.778" x2="101.109" y2="435.252" gradientUnits="userSpaceOnUse">
<stop stop-color="#FFC609"/>
<stop offset="0.5" stop-color="#039D4C"/>
<stop offset="1" stop-color="#0298D8"/>
</linearGradient>
<linearGradient id="paint1_linear_296_2" x1="-8.82353" y1="1131.43" x2="144.127" y2="1130.46" gradientUnits="userSpaceOnUse">
<stop stop-color="#FFC609"/>
<stop offset="0.5" stop-color="#039D4C"/>
<stop offset="1" stop-color="#0298D8"/>
</linearGradient>
</defs>
</svg>
