<svg width="119" height="119" viewBox="0 0 119 119" fill="none" xmlns="http://www.w3.org/2000/svg">
<circle cx="59.5" cy="59.5" r="59.5" fill="url(#paint0_linear_165_634)"/>
<path fill-rule="evenodd" clip-rule="evenodd" d="M97 40.5804C97 35.8397 93.1861 32 88.4773 32H30.5227C25.8139 32 22 35.8397 22 40.5804V78.4196C22 83.1603 25.8139 87 30.5227 87H88.4773C93.1861 87 97 83.1603 97 78.4196V40.5804ZM93.5909 40.5804V78.4196C93.5909 81.2597 91.2983 83.5679 88.4773 83.5679H30.5227C27.7017 83.5679 25.4091 81.2597 25.4091 78.4196V40.5804C25.4091 37.736 27.7017 35.4321 30.5227 35.4321H88.4773C91.2983 35.4321 93.5909 37.736 93.5909 40.5804ZM29.3931 41.9532C29.3931 41.9532 45.7185 56.4495 53.8622 63.6872C57.0837 66.5488 61.9161 66.5488 65.1378 63.6872C73.2812 56.4497 89.6069 41.9532 89.6069 41.9532C90.31 41.3269 90.3782 40.2414 89.7561 39.5293C89.1339 38.8214 88.0558 38.7528 87.3484 39.3791C87.3484 39.3791 71.0273 53.8798 62.8837 61.1131C60.9491 62.8292 58.0513 62.8292 56.1167 61.1131L31.6519 39.3791C30.9446 38.7528 29.8665 38.8214 29.2443 39.5293C28.6222 40.2415 28.69 41.3269 29.3931 41.9532Z" fill="white"/>
<defs>
<linearGradient id="paint0_linear_165_634" x1="-7.77778" y1="997.333" x2="127.045" y2="996.476" gradientUnits="userSpaceOnUse">
<stop stop-color="#FFC609"/>
<stop offset="0.5" stop-color="#039D4C"/>
<stop offset="1" stop-color="#0298D8"/>
</linearGradient>
</defs>
</svg>
