<svg width="697" height="43" viewBox="0 0 697 43" fill="none" xmlns="http://www.w3.org/2000/svg">
<g clip-path="url(#clip0_158_5)">
<path d="M689.307 43H7.33733C2.76247 43 -0.697181 38.6008 0.126546 33.8208L4.81545 6.39338C5.46176 2.69564 8.49055 0 12.0389 0H678.219C688.585 0 697 8.92869 697 19.9417V34.8329C697 39.3524 693.553 43 689.307 43Z" fill="#8D735C"/>
<g opacity="0.76">
<path d="M150.387 13.8291C139.723 14.1334 129.085 14.8692 118.515 16.0337C118.515 16.0337 130.529 14.8913 150.387 13.8291Z" fill="#7A5F49"/>
<path d="M118.579 16.4546L118.427 15.5127C129.018 14.3585 139.677 13.636 150.362 13.3481V14.3001C130.808 15.3624 118.705 16.4446 118.579 16.4546Z" fill="#7A5F49"/>
</g>
<g opacity="0.76">
<path d="M318.694 15.2717C253.138 9.84035 187.81 11.8045 150.387 13.8287C213.966 11.5339 318.694 15.2717 318.694 15.2717Z" fill="#7A5F49"/>
<path d="M318.668 15.7528C317.617 15.7528 213.231 12.035 150.413 14.2998V13.3478C184.553 11.5039 251.794 9.23918 318.82 14.8008L318.668 15.7528ZM199.773 12.6062C234.471 12.6062 270.74 13.4079 294.02 14.0392C258.143 12.035 223.382 11.9749 194.97 12.6163L199.773 12.6062Z" fill="#7A5F49"/>
</g>
<g opacity="0.76">
<path d="M27.5759 31.7265C56.1656 33.1395 84.3624 32.1073 112.559 32.0171C78.2035 31.5862 21.7085 30.7344 21.6831 30.4639C21.7591 31.2455 24.978 31.5962 27.5759 31.7265Z" fill="#7A5F49"/>
<path d="M61.7922 32.939C50.3868 32.939 38.9813 32.7687 27.5759 32.1975C21.3662 31.8968 21.1635 30.9448 21.1128 30.524H21.7211L21.8858 30.063C23.6347 30.3336 75.9097 31.1352 112.61 31.5962V32.5983C104.778 32.5983 96.807 32.7185 89.102 32.8188C80.079 32.8288 70.9673 32.939 61.7922 32.939ZM25.8777 31.1252C26.3973 31.1753 26.9676 31.2154 27.6139 31.2455C42.555 31.987 57.5469 32.0572 72.2979 31.9369L54.2393 31.6563C38.4744 31.4058 30.2118 31.2655 25.8777 31.1252Z" fill="#7A5F49"/>
</g>
<g opacity="0.76">
<path d="M112.559 32.0675C125.295 32.2278 134.99 32.3281 137.639 32.318C129.262 32.0675 120.911 31.9873 112.559 32.0675Z" fill="#7A5F49"/>
<path d="M137.398 32.7487C134.597 32.7487 125.599 32.6585 112.547 32.4982V31.4961C122.19 31.4961 130.174 31.5462 137.639 31.7566V32.7086L137.398 32.7487Z" fill="#7A5F49"/>
</g>
<g opacity="0.76">
<path d="M59.4098 20.2828L49.8926 19.1304L49.0562 20.0423C52.4935 20.3427 55.956 20.4232 59.4098 20.2828Z" fill="#7A5F49"/>
<path d="M56.1655 20.8338C53.7689 20.8324 51.3743 20.7254 48.9928 20.5131L47.9536 20.4229L49.6264 18.6191L65.3786 20.5231L59.4478 20.7636C58.3579 20.8137 57.2681 20.8338 56.1655 20.8338Z" fill="#7A5F49"/>
</g>
<g opacity="0.76">
<path d="M456.218 20.3824C511.015 17.8972 601.27 21.3845 601.27 21.3845C544.725 16.0934 488.42 18.2479 456.218 20.3824Z" fill="#7A5F49"/>
<path d="M601.182 21.8156C600.282 21.8156 510.331 18.4085 456.193 20.8135L456.104 19.8615C485.556 17.9174 543.546 15.4623 601.283 20.8636L601.182 21.8156ZM504.577 19.0398C532.647 19.0398 561.224 19.6811 579.942 20.2122C551.547 18.5381 523.055 18.1466 494.604 19.0398C497.911 19.0398 501.244 19.0398 504.577 19.0398Z" fill="#7A5F49"/>
</g>
<g opacity="0.76">
<path d="M456.218 20.3828C447.012 20.7053 437.838 21.4548 428.744 22.6275C428.744 22.6275 439.034 21.5052 456.218 20.3828Z" fill="#7A5F49"/>
<path d="M428.756 23.0985L428.566 22.1566C437.686 20.9773 446.885 20.2244 456.117 19.9019L456.205 20.8538C439.3 21.9662 428.858 23.0484 428.756 23.0985Z" fill="#7A5F49"/>
</g>
<g opacity="0.76">
<path d="M371.97 27.3872L332.862 26.8961L253.873 25.894L382.032 28.6899C390.612 28.8803 400.902 29.4214 409.215 28.249C401.269 26.2247 381.601 27.5074 371.97 27.3872Z" fill="#7A5F49"/>
<path d="M396.213 29.4816C392.804 29.4816 389.395 29.3814 386.176 29.2912L382.019 29.191L253.86 26.3851V25.4331L371.945 26.9062C374.619 26.9062 378.129 26.9062 381.842 26.7859C391.511 26.5755 403.55 26.315 409.38 27.788L411.674 28.3793L409.291 28.72C404.967 29.2705 400.592 29.5253 396.213 29.4816ZM356.598 27.6778L382.057 28.229L386.214 28.3392C392.78 28.6454 399.365 28.5851 405.92 28.1588C399.685 27.3571 389.965 27.5676 381.905 27.748C378.18 27.8281 374.644 27.9083 371.957 27.8682L356.598 27.6778Z" fill="#7A5F49"/>
</g>
<g opacity="0.76">
<path d="M436.639 11.7345C418.365 11.7946 400.053 11.1132 381.791 10.7324C384.744 12.0853 388.558 12.3057 392.17 12.446C406.995 13.0662 421.858 12.8284 436.639 11.7345Z" fill="#7A5F49"/>
<path d="M408.924 13.2475C403.474 13.2475 397.881 13.1407 392.145 12.9269C388.406 12.7866 384.541 12.526 381.487 11.1431L379.434 10.2012L381.817 10.2513C387.152 10.3615 392.5 10.5018 397.848 10.6321C410.52 10.9628 423.738 11.3035 436.626 11.2634V12.2154C427.983 12.9068 418.682 13.2475 408.924 13.2475ZM385.124 11.2434C387.449 11.6634 389.823 11.8918 392.208 11.9248C402.194 12.3056 411.788 12.3457 420.899 12.0651C413.144 11.9448 405.401 11.7444 397.81 11.554C393.577 11.4839 389.344 11.3736 385.124 11.2834V11.2434Z" fill="#7A5F49"/>
</g>
<g opacity="0.76">
<path d="M650.453 13.8387C652.988 13.7485 655.408 13.6683 657.879 13.5581C655.408 13.5581 652.937 13.6683 650.453 13.8387Z" fill="#7A5F49"/>
<path d="M650.478 14.3198L650.402 13.3177C653.266 13.1273 655.636 13.0371 657.879 13.0371V13.9891C655.433 14.1394 652.962 14.2296 650.478 14.3198Z" fill="#7A5F49"/>
</g>
<g opacity="0.76">
<path d="M622.446 15.2218C631.672 15.8831 641.113 14.4602 650.453 13.8389C641.101 14.1595 631.697 14.4101 622.446 15.2218Z" fill="#7A5F49"/>
<path d="M627.503 15.8732C625.792 15.8732 624.081 15.8231 622.434 15.6928L616.477 15.2719L622.421 14.7408C630.633 14.0193 639.098 13.7387 647.285 13.4681L650.466 13.3579L650.542 14.3099C648.007 14.4903 645.359 14.7208 642.837 14.9512C637.751 15.4859 632.632 15.7937 627.503 15.8732Z" fill="#7A5F49"/>
</g>
<g opacity="0.76">
<path d="M590.853 32.8389C594.29 33.1477 597.753 33.2315 601.207 33.0894L591.69 31.937L590.853 32.8389Z" fill="#7A5F49"/>
<path d="M597.963 33.6304C595.562 33.6321 593.163 33.5284 590.777 33.3197L589.738 33.2296L591.424 31.4258L607.176 33.3298L601.245 33.5703C600.155 33.6104 599.065 33.6304 597.963 33.6304Z" fill="#7A5F49"/>
</g>
</g>
<defs>
<clipPath id="clip0_158_5">
<rect width="697" height="43" fill="white"/>
</clipPath>
</defs>
</svg>
