<svg width="697" height="737" viewBox="0 0 697 737" fill="none" xmlns="http://www.w3.org/2000/svg">
<g clip-path="url(#clip0_146_4)">
<path d="M39 723.67L39 9.40979C39 6.92206 39.9883 4.53625 41.7473 2.77716C43.5064 1.01807 45.8923 0.0297852 48.38 0.0297852H59.73C65.9653 0.0297852 71.9451 2.50677 76.3541 6.91577C80.763 11.3248 83.24 17.3046 83.24 23.5398L83.24 723.67C83.24 727.094 81.8798 730.377 79.4587 732.799C77.0376 735.22 73.7539 736.58 70.33 736.58H51.91C50.2146 736.58 48.5359 736.246 46.9695 735.597C45.4032 734.948 43.9801 733.997 42.7812 732.799C41.5824 731.6 40.6315 730.177 39.9827 728.61C39.3339 727.044 39 725.365 39 723.67Z" fill="#896C52"/>
<g opacity="0.1">
<path d="M83.25 116.69L39 129.14V109.7L83.25 116.69Z" fill="#232222"/>
</g>
<path d="M70.2399 116.69C68.2899 123.6 69.1199 140.84 68.8599 149.27L67.8099 183.48C67.0899 206.507 66.3766 229.54 65.6699 252.58L70.1999 140.48C70.4999 133 71.1499 124 70.2399 116.69Z" fill="#7A5F49"/>
<path d="M66.1499 252.6H65.1499L68.3499 149.29C68.4199 146.95 68.4099 143.88 68.3499 140.62C68.3499 132.17 68.2799 121.62 69.6999 116.62L70.3399 114.34L70.6299 116.69C71.4099 122.88 71.0599 130.34 70.7599 136.92C70.6999 138.16 70.6499 139.38 70.5999 140.56L66.1499 252.6ZM70.0699 120.05C69.3299 125.51 69.3599 133.73 69.3899 140.58C69.3899 143.84 69.3899 146.92 69.3399 149.28L69.2599 152L69.7199 140.45C69.7699 139.27 69.8299 138.05 69.8899 136.81C70.2442 131.23 70.3043 125.636 70.0699 120.05Z" fill="#7A5F49"/>
<path d="M56.0799 401.59C55.8299 343.47 56.2299 285.11 55.2799 227.03C54.8199 285.12 55.7999 343.48 56.0799 401.59Z" fill="#7A5F49"/>
<path d="M55.6 401.59C55.51 382.59 55.34 363.24 55.18 344.53C54.84 305.98 54.5 266.13 54.8 227.03H55.8C56.44 266.14 56.46 306.03 56.49 344.58C56.49 363.28 56.49 382.58 56.6 401.58H55.6V401.59Z" fill="#7A5F49"/>
<path d="M58.8799 191.14C60.0899 188.54 60.2899 185.14 60.4099 181.97C60.9688 168.876 60.7618 155.76 59.7899 142.69C59.8399 158.82 59.2199 175 58.8799 191.14Z" fill="#7A5F49"/>
<path d="M58.3601 193.41L58.4101 191.13C58.5101 186.41 58.6234 181.687 58.7501 176.96C59.0401 165.72 59.3501 154.1 59.3101 142.69H60.3101C61.27 155.771 61.4637 168.897 60.8901 182C60.7601 185.42 60.5401 188.7 59.3201 191.35L58.3601 193.41ZM60.1301 158.89C60.0001 165 59.8601 171 59.7101 177C59.6101 180.553 59.5201 184.103 59.4401 187.65C59.7353 185.77 59.9023 183.872 59.9401 181.97C60.2401 174 60.3001 166.25 60.1301 158.89Z" fill="#7A5F49"/>
<path d="M50.6599 18.1499C50.9499 26.4199 51.1699 34.7199 51.8999 42.8999C52.4899 34.7399 51.2199 26.4099 50.6599 18.1499Z" fill="#7A5F49"/>
<path d="M51.4199 42.9396C50.7799 35.6796 50.5299 28.2096 50.2799 20.9896L50.1899 18.1696L51.1899 18.1196C51.3399 20.3896 51.5599 22.6996 51.7599 24.9396C52.47 30.9116 52.6908 36.9317 52.4199 42.9396H51.4199Z" fill="#7A5F49"/>
<path d="M50.6599 18.1498C50.5866 15.9632 50.5032 13.7765 50.4099 11.5898C50.4099 13.7698 50.5199 15.9998 50.6599 18.1498Z" fill="#7A5F49"/>
<path d="M50.1899 18.1898C50.0199 15.6598 49.9399 13.5598 49.9399 11.5898H50.9399C51.0399 13.7698 51.1199 15.9698 51.1899 18.1598L50.1899 18.1898Z" fill="#7A5F49"/>
<path d="M67.8201 61.6597L66.8201 70.0797L67.6201 70.8197C67.8867 67.774 67.9535 64.7141 67.8201 61.6597Z" fill="#7A5F49"/>
<path d="M68 71.8196L66.3 70.2596L67.3601 61.5996H68.31C68.4317 64.6745 68.3582 67.754 68.09 70.8196L68 71.8196Z" fill="#7A5F49"/>
<path d="M63.2801 341.08C63.0935 356.36 62.8868 371.667 62.6601 387L62.3701 370.18V440.02C63.9101 408.11 64.2101 373.87 63.2801 341.08Z" fill="#7A5F49"/>
<path d="M62.8799 440H61.9299V370.16H62.4399L62.8299 341.1H63.8299C64.6899 373.89 64.3899 408.1 62.8799 440ZM62.8799 387V414.24C63.2399 400.76 63.3899 387.06 63.3299 373.4L63.1399 387H62.8799Z" fill="#7A5F49"/>
<path d="M71.67 443.58C72.08 415.48 72.52 391.83 71.11 364.12C71.05 370.56 71.69 376.27 71.62 382.78C71.55 389.29 71 395.56 70.81 402C70.41 417 70.67 432.76 70.73 447.85C70.85 477.78 71.37 507.74 72.73 537.31C71.56 506.27 71.2 474.85 71.67 443.58Z" fill="#7A5F49"/>
<path d="M72.2699 537.33C71.0499 510.97 70.3899 481.7 70.2699 447.86C70.2699 444.39 70.2699 440.86 70.2099 437.37C70.1299 425.68 70.0399 413.58 70.3499 401.98C70.4299 399.12 70.5899 396.24 70.7399 393.45C70.9299 389.96 71.1199 386.36 71.1599 382.77C71.1599 379.49 71.0499 376.36 70.9099 373.34C70.7699 370.32 70.6199 367.34 70.6499 364.12H71.6499C72.9899 390.63 72.6499 413.47 72.2599 439.93L72.1999 443.61C71.7399 474.81 72.0999 506.33 73.2799 537.31L72.2699 537.33ZM71.5499 395.7C71.4399 397.78 71.3399 399.9 71.2899 402.01C70.9799 413.59 71.0599 425.68 71.1499 437.37C71.1499 439.457 71.1499 441.543 71.1499 443.63V443.58L71.1999 439.9C71.4699 424.41 71.6899 410.17 71.5499 395.7Z" fill="#7A5F49"/>
<path d="M63.3901 552.74C63.2801 545.51 64.2001 526.87 62.3201 521.74C62.4401 554.31 63.8801 587.27 64.9101 620.1C64.5901 609.27 64.2601 598.44 64.0401 587.62C63.8001 575.986 63.5834 564.36 63.3901 552.74Z" fill="#7A5F49"/>
<path d="M64.4301 620.1C64.1834 612.166 63.9201 604.236 63.6401 596.31C62.8001 571.8 61.9301 546.44 61.8501 521.72V519L62.7801 521.57C64.2201 525.51 64.0501 537.08 63.9301 545.57C63.9301 548.47 63.8501 550.97 63.8801 552.79C64.0701 564.39 64.2901 576.11 64.5201 587.64C64.7301 597.52 65.0301 607.58 65.3101 617.3L65.4001 620.12L64.4301 620.1ZM62.8401 528.6C62.8801 532.86 62.9401 537.133 63.0201 541.42C63.0701 537.07 63.0601 532.41 62.8401 528.6Z" fill="#7A5F49"/>
<path d="M64.9099 620.08C65.2599 632.16 65.6099 644.24 65.7799 656.3C65.6099 644.26 65.2799 632.18 64.9099 620.08Z" fill="#7A5F49"/>
<path d="M65.2999 656.31C65.1299 644.39 64.7899 632.38 64.4299 620.1H65.4299C65.8699 634.34 66.1499 645.85 66.2999 656.33L65.2999 656.31Z" fill="#7A5F49"/>
<path d="M56.43 612.61C55.63 648.08 56.86 691.17 57.21 727.41C56.82 688 58.55 652.6 56.43 612.61Z" fill="#7A5F49"/>
<path d="M56.7299 727.41C56.6299 717.03 56.4599 706.29 56.2799 694.91C55.8399 666.91 55.3799 637.91 55.9499 612.6H56.8999C58.2799 638.39 58.0499 661.78 57.8099 686.55C57.6799 699.76 57.5499 713.42 57.6899 727.41H56.7299ZM56.6699 630.23C56.5799 644.98 56.7299 660.53 56.9499 676.1C57.0799 660.79 57.1099 645.81 56.6699 630.23Z" fill="#7A5F49"/>
<path d="M53.2 560.31C53.1 522.72 56.1 488.91 53.42 450.71C51.81 484.57 53.11 525.71 53.2 560.31Z" fill="#7A5F49"/>
<path d="M52.7201 560.31C52.7201 550.4 52.5701 540.16 52.4401 529.31C52.1201 502.54 51.7901 474.86 52.9401 450.69H53.9401C55.6701 475.33 55.0501 497.69 54.4001 521.31C54.0501 533.92 53.6901 546.96 53.7201 560.31H52.7201ZM53.5101 460.5C52.8901 480.43 53.0801 502.22 53.3301 523.63L53.3901 521.28C54.0001 500.81 54.5001 481.34 53.5101 460.5Z" fill="#7A5F49"/>
<path d="M70.5901 267.08C70.8801 284.13 71.1001 301.29 71.8201 318.16C72.4201 301.32 71.1501 284.12 70.5901 267.08Z" fill="#7A5F49"/>
<path d="M71.3501 318.18C70.7001 303.18 70.4501 287.8 70.2101 272.9L70.1101 267.09H71.1101C71.2601 271.77 71.4701 276.55 71.6801 281.17C72.2201 293.37 72.7701 305.98 72.3401 318.17L71.3501 318.18Z" fill="#7A5F49"/>
<path d="M73.23 222.46C72.89 225.26 72.54 228.06 72.23 230.87L73.04 231.61C73.2982 228.567 73.3617 225.511 73.23 222.46Z" fill="#7A5F49"/>
<path d="M73.4 232.62L71.7 231.06L72.7 222.4H73.7C73.8267 225.471 73.7532 228.548 73.4799 231.61L73.4 232.62Z" fill="#7A5F49"/>
<g opacity="0.21">
<path d="M67.5801 94.5996C67.5801 95.9841 67.1695 97.3375 66.4004 98.4886C65.6312 99.6397 64.5379 100.537 63.2589 101.067C61.9798 101.597 60.5723 101.735 59.2144 101.465C57.8566 101.195 56.6093 100.528 55.6303 99.5494C54.6514 98.5704 53.9847 97.3231 53.7146 95.9652C53.4445 94.6074 53.5831 93.1999 54.1129 91.9208C54.6427 90.6417 55.5399 89.5485 56.6911 88.7793C57.8422 88.0102 59.1956 87.5996 60.5801 87.5996C61.4993 87.5996 62.4096 87.7807 63.2589 88.1325C64.1081 88.4842 64.8798 88.9999 65.5298 89.6499C66.1798 90.2999 66.6955 91.0716 67.0472 91.9208C67.399 92.7701 67.5801 93.6804 67.5801 94.5996Z" fill="#232222"/>
</g>
<path d="M68 93.6796C68.002 95.0407 67.6001 96.3719 66.8454 97.5046C66.0906 98.6373 65.0168 99.5207 63.7598 100.043C62.5028 100.565 61.1192 100.703 59.7839 100.439C58.4487 100.174 57.2218 99.5198 56.2586 98.558C55.2955 97.5962 54.6392 96.3703 54.3729 95.0355C54.1066 93.7006 54.2423 92.3168 54.7627 91.059C55.2832 89.8013 56.165 88.7262 57.2966 87.9698C58.4283 87.2133 59.7588 86.8096 61.12 86.8096C62.023 86.8083 62.9174 86.985 63.7521 87.3297C64.5868 87.6743 65.3453 88.1801 65.9843 88.8182C66.6233 89.4563 67.1302 90.2141 67.4761 91.0482C67.822 91.8824 68 92.7766 68 93.6796Z" fill="#CACACA"/>
<g opacity="0.21">
<path d="M64.2802 98.1198C64.2802 98.1198 63.2802 94.1198 57.9602 90.0498C59.06 93.3952 61.2959 96.2503 64.2802 98.1198Z" fill="#232222"/>
<path d="M57.0901 97.2399C57.0901 97.2399 61.0901 96.2399 65.1601 90.9199C61.8147 92.0197 58.9596 94.2556 57.0901 97.2399Z" fill="#232222"/>
</g>
<path d="M64.28 97.7197C64.28 97.7197 63.28 93.7196 57.96 89.6396C59.0584 92.9884 61.2944 95.847 64.28 97.7197Z" fill="#DBDBDB"/>
<path d="M57.0901 96.84C57.0901 96.84 61.0901 95.84 65.1601 90.52C61.8147 91.6198 58.9596 93.8557 57.0901 96.84Z" fill="#DBDBDB"/>
</g>
<g clip-path="url(#clip1_146_4)">
<path d="M689.307 102H7.33721C2.76235 102 -0.697303 97.6008 0.126424 92.8208L4.81533 65.3934C5.46164 61.6956 8.49042 59 12.0388 59H678.219C688.585 59 697 67.9287 697 78.9417V93.8329C697 98.3524 693.553 102 689.307 102Z" fill="#8D735C"/>
<path d="M71.06 78.91C71.0541 80.2694 70.6455 81.5967 69.8859 82.7241C69.1264 83.8516 68.0498 84.7287 66.7921 85.2449C65.5345 85.761 64.1521 85.893 62.8195 85.6241C61.4869 85.3553 60.2638 84.6977 59.3046 83.7343C58.3454 82.7709 57.6931 81.545 57.4301 80.2112C57.167 78.8775 57.305 77.4957 57.8266 76.2403C58.3482 74.9848 59.23 73.9121 60.3608 73.1574C61.4916 72.4028 62.8205 72 64.18 72C65.086 72 65.9831 72.1789 66.8198 72.5266C67.6565 72.8742 68.4163 73.3837 69.0555 74.0257C69.6948 74.6677 70.2009 75.4297 70.5449 76.2679C70.8889 77.1061 71.0639 78.004 71.06 78.91Z" fill="#CACACA"/>
<g opacity="0.76">
<path d="M150.387 72.8291C139.722 73.1334 129.085 73.8692 118.515 75.0337C118.515 75.0337 130.529 73.8913 150.387 72.8291Z" fill="#7A5F49"/>
<path d="M118.579 75.4546L118.427 74.5127C129.018 73.3585 139.677 72.636 150.362 72.3481V73.3001C130.808 74.3624 118.705 75.4446 118.579 75.4546Z" fill="#7A5F49"/>
</g>
<g opacity="0.76">
<path d="M318.694 74.2717C253.138 68.8403 187.81 70.8045 150.387 72.8287C213.966 70.5339 318.694 74.2717 318.694 74.2717Z" fill="#7A5F49"/>
<path d="M318.668 74.7528C317.617 74.7528 213.231 71.035 150.413 73.2998V72.3478C184.553 70.5039 251.794 68.2392 318.82 73.8008L318.668 74.7528ZM199.773 71.6062C234.471 71.6062 270.74 72.4079 294.02 73.0392C258.143 71.035 223.382 70.9749 194.97 71.6163L199.773 71.6062Z" fill="#7A5F49"/>
</g>
<g opacity="0.76">
<path d="M27.5757 90.7265C56.1654 92.1395 84.3622 91.1073 112.559 91.0171C78.2032 90.5862 21.7082 89.7344 21.6829 89.4639C21.7589 90.2455 24.9778 90.5962 27.5757 90.7265Z" fill="#7A5F49"/>
<path d="M61.792 91.939C50.3865 91.939 38.9811 91.7687 27.5756 91.1975C21.366 90.8968 21.1632 89.9448 21.1125 89.524H21.7208L21.8856 89.063C23.6344 89.3336 75.9094 90.1352 112.61 90.5962V91.5983C104.778 91.5983 96.8067 91.7185 89.1017 91.8188C80.0787 91.8288 70.9671 91.939 61.792 91.939ZM25.8775 90.1252C26.3971 90.1753 26.9674 90.2154 27.6137 90.2455C42.5548 90.987 57.5466 91.0572 72.2977 90.9369L54.2391 90.6563C38.4742 90.4058 30.2116 90.2655 25.8775 90.1252Z" fill="#7A5F49"/>
</g>
<g opacity="0.76">
<path d="M112.559 91.0675C125.295 91.2278 134.99 91.3281 137.638 91.318C129.262 91.0675 120.91 90.9873 112.559 91.0675Z" fill="#7A5F49"/>
<path d="M137.398 91.7487C134.597 91.7487 125.599 91.6585 112.546 91.4982V90.4961C122.19 90.4961 130.174 90.5462 137.638 90.7566V91.7086L137.398 91.7487Z" fill="#7A5F49"/>
</g>
<g opacity="0.76">
<path d="M59.4098 79.2828L49.8926 78.1304L49.0562 79.0423C52.4935 79.3427 55.956 79.4232 59.4098 79.2828Z" fill="#7A5F49"/>
<path d="M56.1655 79.8338C53.7689 79.8324 51.3743 79.7254 48.9928 79.5131L47.9536 79.4229L49.6264 77.6191L65.3786 79.5231L59.4478 79.7636C58.3579 79.8137 57.2681 79.8338 56.1655 79.8338Z" fill="#7A5F49"/>
</g>
<g opacity="0.76">
<path d="M456.218 79.3824C511.015 76.8972 601.27 80.3845 601.27 80.3845C544.724 75.0934 488.419 77.2479 456.218 79.3824Z" fill="#7A5F49"/>
<path d="M601.181 80.8156C600.282 80.8156 510.331 77.4085 456.193 79.8135L456.104 78.8615C485.555 76.9174 543.546 74.4623 601.283 79.8636L601.181 80.8156ZM504.577 78.0398C532.647 78.0398 561.224 78.6811 579.942 79.2122C551.547 77.5381 523.055 77.1466 494.604 78.0398C497.911 78.0398 501.244 78.0398 504.577 78.0398Z" fill="#7A5F49"/>
</g>
<g opacity="0.76">
<path d="M456.218 79.3828C447.012 79.7053 437.838 80.4548 428.744 81.6275C428.744 81.6275 439.034 80.5052 456.218 79.3828Z" fill="#7A5F49"/>
<path d="M428.756 82.0985L428.566 81.1566C437.686 79.9773 446.885 79.2244 456.117 78.9019L456.205 79.8538C439.3 80.9662 428.858 82.0484 428.756 82.0985Z" fill="#7A5F49"/>
</g>
<g opacity="0.76">
<path d="M371.97 86.3872L332.862 85.8961L253.873 84.894L382.032 87.6899C390.611 87.8803 400.902 88.4214 409.215 87.249C401.269 85.2247 381.601 86.5074 371.97 86.3872Z" fill="#7A5F49"/>
<path d="M396.213 88.4816C392.804 88.4816 389.395 88.3814 386.176 88.2912L382.019 88.191L253.86 85.3851V84.4331L371.944 85.9062C374.618 85.9062 378.129 85.9062 381.842 85.7859C391.511 85.5755 403.55 85.315 409.38 86.788L411.673 87.3793L409.291 87.72C404.967 88.2705 400.592 88.5253 396.213 88.4816ZM356.598 86.6778L382.057 87.229L386.214 87.3392C392.78 87.6454 399.365 87.5851 405.92 87.1588C399.685 86.3571 389.965 86.5676 381.905 86.748C378.179 86.8281 374.644 86.9083 371.957 86.8682L356.598 86.6778Z" fill="#7A5F49"/>
</g>
<g opacity="0.76">
<path d="M436.639 70.7345C418.365 70.7946 400.053 70.1132 381.791 69.7324C384.744 71.0853 388.558 71.3057 392.17 71.446C406.995 72.0662 421.858 71.8284 436.639 70.7345Z" fill="#7A5F49"/>
<path d="M408.924 72.2475C403.474 72.2475 397.881 72.1407 392.145 71.9269C388.406 71.7866 384.541 71.526 381.487 70.1431L379.434 69.2012L381.817 69.2513C387.152 69.3615 392.5 69.5018 397.848 69.6321C410.52 69.9628 423.738 70.3035 436.626 70.2634V71.2154C427.983 71.9068 418.682 72.2475 408.924 72.2475ZM385.124 70.2434C387.449 70.6634 389.823 70.8918 392.208 70.9248C402.194 71.3056 411.788 71.3457 420.899 71.0651C413.144 70.9448 405.4 70.7444 397.81 70.554C393.577 70.4839 389.344 70.3736 385.124 70.2834V70.2434Z" fill="#7A5F49"/>
</g>
<g opacity="0.76">
<path d="M650.453 72.8387C652.988 72.7485 655.408 72.6683 657.879 72.5581C655.408 72.5581 652.937 72.6683 650.453 72.8387Z" fill="#7A5F49"/>
<path d="M650.478 73.3198L650.402 72.3177C653.266 72.1273 655.636 72.0371 657.879 72.0371V72.9891C655.433 73.1394 652.962 73.2296 650.478 73.3198Z" fill="#7A5F49"/>
</g>
<g opacity="0.76">
<path d="M622.446 74.2218C631.672 74.8831 641.113 73.4602 650.453 72.8389C641.101 73.1595 631.697 73.4101 622.446 74.2218Z" fill="#7A5F49"/>
<path d="M627.503 74.8732C625.792 74.8732 624.081 74.8231 622.433 74.6928L616.477 74.2719L622.421 73.7408C630.633 73.0193 639.098 72.7387 647.285 72.4681L650.466 72.3579L650.542 73.3099C648.007 73.4903 645.358 73.7208 642.837 73.9512C637.751 74.4859 632.632 74.7937 627.503 74.8732Z" fill="#7A5F49"/>
</g>
<g opacity="0.76">
<path d="M590.853 91.8389C594.29 92.1477 597.753 92.2315 601.207 92.0894L591.689 90.937L590.853 91.8389Z" fill="#7A5F49"/>
<path d="M597.962 92.6304C595.562 92.6321 593.163 92.5284 590.777 92.3197L589.738 92.2296L591.423 90.4258L607.175 92.3298L601.245 92.5703C600.155 92.6104 599.065 92.6304 597.962 92.6304Z" fill="#7A5F49"/>
</g>
</g>
<defs>
<clipPath id="clip0_146_4">
<rect width="44.25" height="736.57" fill="white" transform="translate(39)"/>
</clipPath>
<clipPath id="clip1_146_4">
<rect width="697" height="43" fill="white" transform="translate(0 59)"/>
</clipPath>
</defs>
</svg>
