<svg width="232" height="267" viewBox="0 0 232 267" fill="none" xmlns="http://www.w3.org/2000/svg">
<g clip-path="url(#clip0_14_141)">
<path d="M152.827 49.5281C152.827 49.5281 145.843 35.0176 157.606 27.9104L181.577 31.2419C182.661 35.1571 182.616 39.2988 181.446 43.1893C180.276 47.0798 178.028 50.5605 174.963 53.2297L152.827 49.5281Z" fill="#D9560A"/>
<path d="M195.266 126.152C164.312 87.7661 169.443 63.9645 174.704 52.2673H174.241C169.67 52.2301 165.119 51.6586 160.681 50.5645C158.217 49.9908 155.661 49.8057 153.271 49.306C153.271 61.9286 150.585 85.6377 132.894 97.4274C108.016 113.974 66.4842 127.041 71.245 182.658C76.0057 238.275 151.493 252.841 183.429 236.332C215.365 219.822 234.908 175.31 195.266 126.152Z" fill="url(#paint0_radial_14_141)"/>
<path style="mix-blend-mode:multiply" opacity="0.32" d="M187.708 172.96C177.26 177.679 158.736 179.049 147.992 175.477C135.025 171.127 127.93 161.447 121.002 150.157C115.392 140.697 108.978 131.736 101.829 123.376C86.6202 135.11 74.3385 151.601 76.9319 181.825C81.3037 232.982 150.826 246.456 180.224 231.279C203.213 219.434 219.274 191.745 207.789 158.616C202.076 164.638 195.259 169.507 187.708 172.96Z" fill="url(#paint1_linear_14_141)"/>
<path style="mix-blend-mode:multiply" opacity="0.32" d="M195.266 126.152C164.312 87.7661 169.443 63.9645 174.704 52.2673H174.241C172.427 52.2568 170.616 52.1518 168.813 51.9526C165.405 63.0576 164.719 74.8844 164.96 86.7667C165.275 101.333 185.337 134.74 192.006 152.397C199.675 172.515 197.934 194.966 189.931 215.529C186.42 224.222 181.563 232.311 175.538 239.497C178.204 238.687 180.795 237.647 183.281 236.387C215.217 219.952 234.908 175.31 195.266 126.152Z" fill="url(#paint2_linear_14_141)"/>
<path style="mix-blend-mode:multiply" opacity="0.5" d="M148.121 108.625C154.33 89.7882 158.825 70.4303 161.552 50.7866L160.681 50.6015C158.217 50.0278 155.661 49.8427 153.271 49.343C153.271 61.9656 150.585 85.6747 132.894 97.4644C108.016 114.011 66.4842 127.078 71.245 182.695C73.931 214.159 99.4021 232.538 126.818 239.515C122.375 233.041 118.578 226.148 115.481 218.934C108.423 202.277 112.573 183.028 119.946 167.352C129.097 147.603 141.193 129.558 148.121 108.625Z" fill="url(#paint3_linear_14_141)"/>
<path style="mix-blend-mode:multiply" opacity="0.75" d="M172.11 59.9112C172.743 57.2904 173.611 54.732 174.704 52.2673H174.241C173.278 52.2673 172.388 52.2673 171.388 52.1747C170.388 52.0822 169.665 52.0452 168.813 51.9526C166.371 51.6961 163.946 51.2944 161.552 50.7496L160.681 50.5645C158.217 49.9908 155.661 49.8057 153.271 49.306C153.271 50.9532 153.271 52.8225 153.067 54.8584C159.757 54.7786 166.342 56.5257 172.11 59.9112Z" fill="url(#paint4_linear_14_141)"/>
<path d="M192.839 9.9019C183.133 -3.60912 148.381 -5.44144 142.564 18.0825C140.863 25.9822 141.922 34.2257 145.565 41.44L186.671 45.2527C186.671 45.2527 202.546 23.3944 192.839 9.9019ZM184.077 40.8847L148.455 37.3496C148.455 37.3496 144.75 27.5403 148.251 19.082C154.957 2.97982 183.633 6.12622 188.264 17.2312C192.08 26.5038 184.077 40.8847 184.077 40.8847Z" fill="#FFD000"/>
<path d="M184.67 41.0513C184.67 41.0513 185.985 38.4786 186.374 37.6828C188.227 33.9811 193.136 22.8762 189.931 15.2878C185.652 5.12677 161.07 1.6102 151.956 13.6776C162.126 3.99777 184.188 7.68091 188.208 17.2497C191.005 23.8941 187.653 33.1298 185.522 37.8308C185.356 38.201 184.133 40.6626 183.985 40.9772L184.67 41.0513Z" fill="#E59C00"/>
<path d="M144.287 16.1207C145.135 13.0512 146.521 10.1563 148.381 7.56985C145.498 10.4632 143.483 14.1047 142.564 18.0825C140.863 25.9822 141.922 34.2256 145.565 41.44L147.417 41.625C145.769 39.8668 140.434 28.151 144.287 16.1207Z" fill="#E59C00"/>
<path d="M152.827 49.5281C152.827 49.5281 164.145 41.1438 157.606 27.9104L181.577 31.2419C182.661 35.1571 182.616 39.2988 181.446 43.1893C180.276 47.0798 178.028 50.5605 174.963 53.2297L152.827 49.5281Z" fill="#FC8008"/>
<g style="mix-blend-mode:multiply" opacity="0.55">
<path d="M174.945 42.9391C169.591 42.9391 165.145 39.8853 160.977 36.5353C160.994 38.8925 160.476 41.2228 159.462 43.3514C158.448 45.4799 156.965 47.3512 155.124 48.8248L174.222 52.0267C177.53 49.2472 179.71 45.3583 180.354 41.0883C178.83 42.3317 176.911 42.9883 174.945 42.9391Z" fill="#D68008"/>
</g>
<g style="mix-blend-mode:screen" opacity="0.32">
<path d="M182.503 148.066C180.558 153.304 172.648 155.21 164.83 152.304C157.013 149.399 152.252 142.81 154.197 137.498C156.142 132.186 164.052 130.372 171.87 133.259C179.687 136.147 184.448 142.791 182.503 148.066Z" fill="#6F737E"/>
</g>
<g style="mix-blend-mode:multiply" opacity="0.55">
<path d="M186.189 205.331C185.355 192.19 185.448 174.126 176.556 163.391C166.812 151.62 152.011 152.675 138.637 149.658C133.08 148.418 129.893 144.994 125.058 142.532C119.853 139.885 112.795 141.236 107.053 140.681C102.959 140.237 100.18 134.981 101.255 131.279C101.551 130.28 102.422 122.025 100.069 117.935C96.8126 120.258 93.7181 122.799 90.8068 125.541C84.6168 131.467 79.6597 138.556 76.22 146.401C72.7803 154.246 70.9259 162.693 70.7633 171.257C70.3558 183.805 72.3749 196.447 78.9696 207.329C85.489 217.632 94.6735 225.984 105.552 231.501C112.225 234.995 119.289 237.685 126.596 239.515C143.916 243.92 161.978 243.772 175.537 239.515C179.461 238.259 183.232 236.57 186.782 234.481C186.874 224.764 186.819 215.029 186.189 205.331Z" fill="#6F737E"/>
</g>
<path d="M-24.5264 251.712C-24.5264 251.712 -1.96362 248.677 4.07535 248.307C14.0224 248.492 23.9367 249.507 33.7144 251.342L36.03 174.699C36.03 174.699 25.8416 171.22 0.722435 179.956C0.722435 179.956 -18.7653 184.102 -28.7314 179.697C-28.7314 179.697 -43.0323 212.012 -35.7522 231.76C-28.4721 251.509 -24.5264 251.712 -24.5264 251.712Z" fill="url(#paint5_linear_14_141)"/>
<g style="mix-blend-mode:multiply" opacity="0.32">
<path d="M-7.98401 232.556C5.14981 231.464 18.1354 228.854 31.084 231.112L30.5283 249.121C21.354 247.469 12.0621 246.553 2.74164 246.382C-2.94536 246.715 -24.1373 249.51 -24.1373 249.51C-24.1373 249.51 -27.9533 249.121 -34.7333 231.316C-35.1778 230.107 -35.5429 228.871 -35.8262 227.614C-26.8048 230.853 -18.1724 233.408 -7.98401 232.556Z" fill="#072A81"/>
</g>
<path d="M33.6589 251.305C33.6589 251.305 22.9703 237.498 26.0269 205.941C29.0649 173.978 35.9745 174.662 35.9745 174.662C35.9745 174.662 40.8094 186.397 39.9572 215.695C39.1792 242.717 33.6589 251.305 33.6589 251.305Z" fill="#4454D3"/>
<path d="M50.4235 238.849C50.4235 238.849 40.902 244.938 33.7515 239.996C30.1791 230.018 28.8263 219.382 29.7873 208.829C31.6397 192.319 34.0664 186.508 35.5114 182.658C35.5114 182.658 47.015 176.828 52.665 185.12C52.6835 185.082 46.6445 215.066 50.4235 238.849Z" fill="url(#paint6_linear_14_141)"/>
<path style="mix-blend-mode:multiply" d="M49.7752 233.796C49.9419 235.499 50.1642 237.183 50.4235 238.849C50.4235 238.849 40.902 244.938 33.7515 239.996C33.7515 239.996 33.2514 238.719 32.603 236.535C38.4706 237.231 44.4161 236.282 49.7752 233.796Z" fill="url(#paint7_linear_14_141)"/>
<path style="mix-blend-mode:multiply" d="M41.2909 227.392C44.0265 226.901 46.694 226.087 49.2379 224.968C49.2379 226.362 49.2935 227.75 49.4047 229.132C43.9166 232.166 37.5231 233.138 31.3804 231.871C31.1025 230.687 30.8432 229.373 30.6024 227.985C34.1733 227.981 37.7415 227.783 41.2909 227.392Z" fill="url(#paint8_linear_14_141)"/>
<path style="mix-blend-mode:multiply" d="M49.275 216.361C49.275 217.694 49.275 219.045 49.275 220.396C46.1992 221.779 42.954 222.75 39.6238 223.284C36.4376 223.561 33.2514 223.617 30.0466 223.654C29.8243 221.803 29.6761 219.952 29.6021 217.879C36.1597 217.564 42.6803 216.954 49.275 216.361Z" fill="url(#paint9_linear_14_141)"/>
<path style="mix-blend-mode:multiply" d="M49.664 208.773C49.664 209.828 49.5158 210.92 49.4602 212.012C42.81 212.586 36.1967 213.215 29.4909 213.53C29.4909 212.142 29.6206 210.735 29.7688 209.31C33.0291 209.014 36.3079 208.995 39.6238 208.995C42.9396 208.995 46.3481 208.477 49.664 208.773Z" fill="url(#paint10_linear_14_141)"/>
<path style="mix-blend-mode:multiply" d="M39.4571 200.185C42.4766 200.185 47.1818 199.741 50.368 201C50.2383 202.147 50.1271 203.35 50.016 204.572C47.367 204.405 44.681 204.572 41.9579 204.572C38.0307 204.572 34.1406 204.572 30.2875 204.849C30.4727 203.424 30.658 202.073 30.8617 200.833C33.7066 200.402 36.5798 200.186 39.4571 200.185Z" fill="url(#paint11_linear_14_141)"/>
<path style="mix-blend-mode:multiply" d="M51.3868 193.004C51.22 194.115 51.0533 195.373 50.8866 196.706C48.243 196.11 45.538 195.831 42.8285 195.873C39.0745 195.859 35.3239 196.1 31.6027 196.595C31.8805 195.077 32.1769 193.689 32.4733 192.449C38.6585 190.486 45.3276 190.682 51.3868 193.004Z" fill="url(#paint12_linear_14_141)"/>
<path style="mix-blend-mode:multiply" d="M52.6835 185.082C52.6835 185.082 52.4427 186.304 52.0907 188.414C47.9026 186.722 43.3937 185.97 38.8828 186.211C37.2109 186.339 35.5549 186.624 33.9368 187.063C34.5295 185.212 35.0668 183.824 35.5299 182.621C35.5299 182.658 47.0335 176.828 52.6835 185.082Z" fill="url(#paint13_linear_14_141)"/>
<path style="mix-blend-mode:multiply" opacity="0.55" d="M38.5123 210.198C40.1387 200.254 42.4033 190.424 45.2923 180.77C46.778 180.881 48.2185 181.331 49.503 182.085C50.7876 182.839 51.8819 183.877 52.702 185.12C52.702 185.12 52.4612 186.341 52.1093 188.451C51.9055 189.691 51.6461 191.209 51.3868 193.004C51.2201 194.115 51.0534 195.373 50.8866 196.706C50.7199 198.057 50.5347 199.519 50.368 201.037C50.2383 202.184 50.1271 203.387 50.016 204.609C49.8863 205.96 49.7752 207.366 49.664 208.81C49.664 209.865 49.5158 210.957 49.4603 212.049C49.4603 213.474 49.3306 214.936 49.275 216.398C49.275 217.731 49.275 219.082 49.275 220.433C49.275 221.932 49.275 223.469 49.275 224.986C49.275 226.381 49.3306 227.769 49.4417 229.151C49.5344 230.724 49.664 232.279 49.8122 233.815C49.9604 235.351 50.2012 237.202 50.4606 238.867C48.1071 240.265 45.5223 241.23 42.8285 241.718C38.0863 228.818 37.0489 222.321 38.5123 210.198Z" fill="url(#paint14_linear_14_141)"/>
<path style="mix-blend-mode:multiply" opacity="0.5" d="M-28.6758 200.963C-24.0594 201.31 -19.6524 203.029 -16.0214 205.898C-12.3903 208.768 -9.70091 212.657 -8.29892 217.065C-8.15072 217.546 -8.00253 218.009 -7.83581 218.471C-4.42731 228.059 7.24308 232.834 17.6353 234.055C16.9499 247.751 -22.3775 248.418 -25.8971 235.184C-28.6811 223.998 -29.6505 212.437 -28.7684 200.944L-28.6758 200.963Z" fill="url(#paint15_linear_14_141)"/>
<g style="mix-blend-mode:screen" opacity="0.55">
<path d="M-14.3379 185.601C-11.3184 185.841 -6.39094 185.841 -5.85373 185.786C-1.14262 185.266 3.44747 183.958 7.72468 181.918C11.4457 180.211 15.3484 178.932 19.358 178.105V178.327C15.9963 183.334 14.1386 189.197 14.0045 195.225C10.406 195.181 6.81961 195.648 3.35291 196.613C-2.31557 198.464 -7.87289 201.573 -13.3191 201.61C-15.0782 201.631 -16.8331 201.432 -18.543 201.018C-18.4139 195.614 -16.9707 190.323 -14.3379 185.601Z" fill="#2875AE"/>
</g>
<path d="M167.757 175.384C163.348 151.768 99.4577 165.649 78.7289 171.571C70.4715 173.822 62.037 175.363 53.5171 176.18C41.1613 191.579 43.4213 221.599 49.0157 242.81C59.6117 245.475 58.5743 248.991 110.739 255.932C168.535 263.631 171.981 198.038 167.757 175.384Z" fill="url(#paint16_linear_14_141)"/>
<path style="mix-blend-mode:multiply" d="M144.491 166.574C131.264 174.44 118.76 190.024 103.274 187.637C97.1607 186.693 84.9716 186.693 74.1163 186.137C64.4095 185.656 55.5918 194.077 55.1658 204.516C54.7714 210.03 55.0827 215.572 56.092 221.007C58.1482 230.613 64.5577 236.387 73.0048 239.349C90.8994 245.623 111.406 245.179 129.541 242.217C138.507 240.755 147.658 238.978 155.253 232.186C159.325 228.483 162.794 224.168 165.534 219.397C168.868 206.525 169.841 193.156 168.406 179.937C164.472 178.769 160.265 178.912 156.42 180.344C157.18 181.103 145.769 165.704 144.491 166.574Z" fill="url(#paint17_linear_14_141)"/>
<path d="M141.953 184.62C141.953 184.62 110.091 183.213 100.903 223.487C92.0294 262.354 144.342 271.312 157.347 256.247C170.351 241.181 181.021 180.104 161.607 166.741C155.531 162.558 135.136 161.984 135.136 161.984C135.136 161.984 148.696 168.573 144.009 176.032C139.322 183.491 140.508 183.047 141.953 184.62Z" fill="url(#paint18_linear_14_141)"/>
<g style="mix-blend-mode:multiply" opacity="0.55">
<path d="M132.209 234.333C124.484 228.244 124.355 217.675 125.151 207.626C125.522 202.98 126.003 195.965 128.337 190.265C119.242 194.152 107.96 203.221 103.2 223.746C94.8822 260.115 143.805 268.61 156.013 254.47C160.218 249.584 164.015 239.663 166.498 228.41C156.291 237.424 142.064 242.051 132.209 234.333Z" fill="#2875AE"/>
</g>
<path style="mix-blend-mode:multiply" d="M141.619 180.141C141.619 180.141 142.175 175.181 146.565 175.125C148.216 175.189 149.818 175.706 151.194 176.621C152.57 177.535 153.667 178.811 154.364 180.307C153.179 179.937 147.01 175.68 141.619 180.141Z" fill="url(#paint19_linear_14_141)"/>
<path style="mix-blend-mode:multiply" d="M147.325 185.619C147.325 185.619 145.472 184.027 140.378 184.638C140.378 184.638 139.86 183.398 140.489 183.213C141.119 183.028 146.325 182.547 147.325 185.619Z" fill="url(#paint20_linear_14_141)"/>
<path style="mix-blend-mode:multiply" d="M143.768 189.469C143.56 188.354 143.066 187.311 142.336 186.442C141.606 185.573 140.664 184.907 139.6 184.509C138.192 184.028 140.304 183.121 141.786 184.509C143.268 185.897 144.676 188.081 143.768 189.469Z" fill="url(#paint21_linear_14_141)"/>
<g style="mix-blend-mode:multiply" opacity="0.55">
<path d="M83.8601 244.309C80.8036 239.127 77.6915 229.502 75.6353 223.82C70.078 208.199 74.3941 199.426 73.7828 182.621C73.6717 179.66 73.4865 176.384 73.3568 172.978C66.8182 174.464 60.1916 175.534 53.5171 176.18C41.1613 191.579 43.4213 221.599 49.0157 242.81C58.1853 245.105 58.6669 248.066 92.4184 253.304C91.4551 251.712 84.6382 245.586 83.8601 244.309Z" fill="#2875AE"/>
</g>
<path d="M60.7231 176.476C60.7231 176.476 66.6694 198.334 102.718 197.668L116.537 186.193L68.9665 166.796L60.7231 176.476Z" fill="url(#paint22_linear_14_141)"/>
<path style="mix-blend-mode:multiply" d="M72.023 168.036L68.9665 166.796L60.7231 176.476C61.149 177.767 61.7142 179.009 62.4088 180.178C65.3468 175.927 68.5583 171.871 72.023 168.036Z" fill="url(#paint23_linear_14_141)"/>
<path style="mix-blend-mode:multiply" d="M67.7254 186.822C71.7637 181.621 75.802 176.439 79.6921 171.164L76.4318 169.832C72.304 174.29 68.5436 179.075 65.1875 184.139C65.9782 185.084 66.8257 185.98 67.7254 186.822Z" fill="url(#paint24_linear_14_141)"/>
<path style="mix-blend-mode:multiply" d="M88.7691 174.866L83.8786 172.867C79.7292 178.42 75.4315 183.972 71.1153 189.524C72.0093 190.188 72.9368 190.806 73.894 191.375C78.5065 185.582 84.6381 180.9 88.7691 174.866Z" fill="url(#paint25_linear_14_141)"/>
<path style="mix-blend-mode:multiply" d="M91.6404 185.693C93.4928 183.398 95.7157 180.974 97.3829 178.29L92.863 176.439C88.7135 182.658 82.4893 187.378 77.8026 193.263C79.6808 194.077 81.6117 194.763 83.5822 195.318C86.2868 192.19 89.0284 188.988 91.6404 185.693Z" fill="url(#paint26_linear_14_141)"/>
<path style="mix-blend-mode:multiply" d="M105.663 181.751L101.31 179.9C99.6985 182.417 97.6052 184.749 95.7528 187.118C93.2705 190.265 90.6956 193.337 88.1207 196.372C89.473 196.65 90.9179 196.854 92.3999 197.02C97.1051 192.319 102.31 187.285 105.663 181.751Z" fill="url(#paint27_linear_14_141)"/>
<path style="mix-blend-mode:multiply" d="M109.479 183.324C106.06 188.477 102.105 193.254 97.6793 197.576C99.2909 197.576 100.958 197.705 102.718 197.576L116.537 186.1L109.479 183.324Z" fill="url(#paint28_linear_14_141)"/>
<path d="M70.4484 163.594C69.5686 164.22 68.8253 165.018 68.2637 165.939C67.7021 166.861 67.3338 167.887 67.1814 168.955C67.0289 170.023 67.0954 171.111 67.3768 172.152C67.6582 173.194 68.1486 174.168 68.8183 175.014C72.5231 179.549 79.6551 185.027 92.6036 187.211C115.315 191.061 131.635 186.693 133.672 171.664C136.025 154.433 102.811 140.255 70.4484 163.594Z" fill="url(#paint29_linear_14_141)"/>
<g style="mix-blend-mode:multiply" opacity="0.55">
<path d="M131.635 162.706C130.494 165.981 128.468 168.876 125.781 171.072C122.858 173.431 119.469 175.146 115.835 176.103C112.202 177.06 108.407 177.238 104.7 176.624C99.4691 175.937 94.6195 173.518 90.9259 169.753C87.2323 165.989 84.9076 161.097 84.3232 155.858C79.4231 157.913 74.7742 160.521 70.4669 163.631C69.5857 164.256 68.8408 165.052 68.2774 165.973C67.7141 166.894 67.344 167.92 67.1898 168.988C67.0356 170.056 67.1004 171.144 67.3804 172.187C67.6603 173.229 68.1495 174.203 68.8182 175.051C72.5231 179.586 79.6551 185.064 92.6036 187.248C115.315 191.098 131.635 186.73 133.672 171.701C134.096 168.555 133.373 165.363 131.635 162.706Z" fill="#2875AE"/>
</g>
<g style="mix-blend-mode:screen" opacity="0.75">
<path d="M123.539 164.964C122.372 166.981 118.575 167.703 114.814 166.593C111.054 165.482 108.127 162.521 109.257 160.152C110.387 157.783 114.814 156.987 119.001 158.56C122.743 160.022 124.688 162.873 123.539 164.964Z" fill="#2875D4"/>
</g>
<g style="mix-blend-mode:multiply" opacity="0.75">
<path d="M81.6557 247.529C79.6921 228.355 87.5465 221.784 87.5094 201.61C87.5094 195.799 81.9521 182.288 82.1003 176.532C82.3596 167.74 85.4162 162.947 87.5094 154.562C81.4206 156.745 75.6754 159.787 70.4484 163.594C68.7273 164.85 67.5695 166.731 67.2252 168.832L61.9087 175.088L60.9454 175.236L58.8706 175.551C57.0182 175.791 55.1658 176.013 53.5171 176.18C52.9614 176.883 52.4797 177.624 51.9796 178.364V243.698L52.4797 243.865H52.6464C58.2038 245.715 62.3903 248.103 82.2855 251.638C82.0262 250.306 81.8039 248.936 81.6557 247.529Z" fill="#2875A6"/>
</g>
<path d="M33.5663 45.1046C33.5663 45.1046 48.8304 68.2584 26.1565 122.302C18.0798 141.347 -6.13161 164.187 -11.1702 181.14C-19.2654 208.773 -33.3996 235.443 -46.0888 238.035L-35.9745 239.645C-27.4532 239.238 -15.0974 234.777 -7.57652 216.01C5.48321 183.509 85.0457 82.8799 58.9818 46.2891C58.9818 46.2706 48.9415 48.6767 33.5663 45.1046Z" fill="#B20000"/>
<path d="M58.9818 46.2706C58.9818 46.2706 48.9416 48.6582 33.5663 45.0861C33.5663 45.0861 48.8304 68.2399 26.1565 122.284C18.0799 141.348 -6.13156 164.187 -11.1702 181.14C-12.152 184.49 -13.2449 187.803 -14.3749 191.079C-13.4664 192.87 -12.6925 194.726 -12.0594 196.632C-9.85562 203.536 -8.60906 210.71 -8.3545 217.953C-8.07663 217.305 -7.78024 216.658 -7.50237 215.954C5.48326 183.509 85.0642 82.8799 58.9818 46.2706Z" fill="#8E0000"/>
<path d="M34.2702 99.2597L58.352 98.5379C65.206 79.9371 66.9473 57.4681 58.9818 46.2891C58.9818 46.2891 48.9416 48.6767 33.5663 45.1046C33.5663 45.1046 44.4216 63.2242 34.2702 99.2597Z" fill="#950000"/>
<path d="M-10.8368 58.3195C-10.8368 58.3195 -21.8218 71.0902 -21.9515 105.941C-22.0811 140.792 -30.7135 163.613 -44.6439 181.029C-58.5743 198.445 -65.4098 218.767 -46.0888 238.035L-35.9744 239.645C-35.9744 239.645 -51.6276 225.801 -39.2347 205.442C-26.8419 185.082 -17.5797 183.657 -10.5219 149.917C-3.46407 116.176 -1.25966 63.3722 10.0958 48.1214C10.0958 48.214 -9.00287 56.5797 -10.8368 58.3195Z" fill="#DC0E05"/>
<path d="M-10.8368 58.3195C-10.8368 58.3195 -21.8218 71.0902 -21.9515 105.941C-21.9515 130.002 -26.1565 148.27 -33.3069 163.021C-27.4347 169.776 -26.6937 180.178 -28.2313 190.024C-21.1364 180.9 -15.2641 172.83 -10.5404 150.009C-3.46408 116.361 -1.2782 63.4648 10.0773 48.214C10.0958 48.214 -9.00289 56.5797 -10.8368 58.3195Z" fill="#8E0000"/>
<path d="M-5.9093 123.172C-1.72278 94.9658 1.50047 59.6706 10.0958 48.214C10.0958 48.214 -9.00289 56.5797 -10.8368 58.3195C-10.8368 58.3195 -21.8218 71.0902 -21.9515 105.941C-21.9515 112.234 -22.2664 118.138 -22.8406 123.691L-5.9093 123.172Z" fill="#950000"/>
<path d="M-4.89046 255.414C-4.89046 255.414 -3.18621 232.76 -3.20473 226.689C-4.01838 216.697 -5.67291 206.791 -8.15076 197.076L69.1702 191.949C69.1702 191.949 73.153 201.925 65.8358 227.115C65.8358 227.115 62.7422 246.511 67.6883 256.099C67.6883 256.099 36.3449 271.775 16.0977 265.593C-4.14948 259.412 -4.89046 255.414 -4.89046 255.414Z" fill="url(#paint30_linear_14_141)"/>
<path d="M39.5867 259.467C56.4625 257.968 66.1693 252.804 66.2804 252.601C63.1312 242.31 64.6317 226.189 64.6317 226.189C67.3733 217.694 70.5595 207.015 70.1891 197.983C62.7793 203.072 47.7004 205.201 41.328 205.849C29.6972 206.827 18.0185 207.111 6.35386 206.7H5.14977C2.2806 206.572 -0.545246 207.435 -2.85278 209.143C-3.63081 209.717 -4.40883 210.328 -5.16833 210.994C-4.18379 216.148 -3.52794 221.359 -3.20475 226.596C-3.20475 230.298 -3.83458 240.441 -4.33474 247.603C-3.75668 250.542 -2.26575 253.223 -0.0741158 255.266C13.8748 262.151 29.9355 260.319 39.5867 259.467Z" fill="#072A81"/>
<g style="mix-blend-mode:multiply" opacity="0.32">
<path d="M13.5228 237.942C13.8377 224.764 15.6717 211.679 12.6522 198.779L-5.72406 200.019C-3.45985 209.134 -1.94201 218.419 -1.18557 227.781C-1.18557 233.482 -2.70458 254.785 -2.70458 254.785C-2.70458 254.785 -2.09327 258.486 16.3756 264.39C17.5867 264.778 18.8251 265.075 20.0805 265.279C16.3571 256.598 13.2635 248.14 13.5228 237.942Z" fill="#072A81"/>
</g>
<path d="M-8.15076 196.983C-8.15076 196.983 6.66879 207.2 38.4197 202.924C70.1705 198.649 69.1702 191.819 69.1702 191.819C69.1702 191.819 57.2034 187.415 27.7681 189.302C0.296383 191.098 -8.15076 196.983 -8.15076 196.983Z" fill="#4454D3"/>
<path d="M3.57524 179.53C3.57524 179.53 -2.07472 189.358 3.42704 196.391C13.7259 199.586 24.5891 200.545 35.2891 199.204C51.7758 196.743 57.5184 194.114 61.2233 192.523C61.2233 192.523 66.4286 180.844 57.8333 175.477C57.8148 175.532 28.009 182.584 3.57524 179.53Z" fill="url(#paint31_linear_14_141)"/>
<path style="mix-blend-mode:multiply" d="M8.68798 180.067C6.94668 179.956 5.20539 179.789 3.50114 179.586C3.50114 179.586 -2.14881 189.413 3.35294 196.447C3.35294 196.447 4.66818 196.891 6.94669 197.465C5.87035 191.617 6.47409 185.585 8.68798 180.067Z" fill="url(#paint32_linear_14_141)"/>
<path style="mix-blend-mode:multiply" d="M15.8198 188.414C16.1507 185.648 16.8163 182.932 17.802 180.326C16.3756 180.326 14.9677 180.326 13.5413 180.326C10.7071 185.268 10.2996 192.874 11.8371 198.575C13.0597 198.797 14.4305 199.019 15.8384 199.223C15.6364 195.623 15.6302 192.015 15.8198 188.414Z" fill="url(#paint33_linear_14_141)"/>
<path style="mix-blend-mode:multiply" d="M26.527 179.993C25.1747 179.993 23.8224 180.159 22.4331 180.215C21.219 183.365 20.4339 186.665 20.099 190.024C20.099 193.245 20.099 196.447 20.2842 199.667C22.1367 199.815 24.1188 199.889 26.1565 199.889C26.0824 193.208 26.3232 186.637 26.527 179.993Z" fill="url(#paint34_linear_14_141)"/>
<path style="mix-blend-mode:multiply" d="M34.1961 179.345L30.9173 179.66C30.7135 186.36 30.4727 193.004 30.5468 199.741C31.9361 199.741 33.3625 199.519 34.7889 199.315C34.9 196.039 34.7889 192.763 34.5296 189.432C34.2702 186.1 34.6222 182.676 34.1961 179.345Z" fill="url(#paint35_linear_14_141)"/>
<path style="mix-blend-mode:multiply" d="M43.4398 189.284C43.236 186.267 43.4398 181.529 41.9949 178.383L38.4197 178.864C38.7346 181.492 38.679 184.213 38.8272 186.933C39.0495 190.857 39.3089 194.744 39.2348 198.631L43.236 197.909C43.5269 195.043 43.595 192.16 43.4398 189.284Z" fill="url(#paint36_linear_14_141)"/>
<path style="mix-blend-mode:multiply" d="M49.9974 177.105L46.2925 177.716C47.038 180.34 47.4732 183.042 47.5893 185.767C47.8183 189.51 47.7873 193.264 47.4966 197.002C48.9971 196.669 50.3679 196.317 51.5905 195.984C53.2071 189.692 52.6457 183.038 49.9974 177.105Z" fill="url(#paint37_linear_14_141)"/>
<path style="mix-blend-mode:multiply" d="M57.8147 175.532C57.8147 175.532 56.6107 175.81 54.5174 176.236C56.4279 180.348 57.4263 184.824 57.4443 189.358C57.4047 191.032 57.2062 192.7 56.8515 194.337C58.7039 193.67 60.0191 193.078 61.1862 192.486C61.2047 192.578 66.4101 180.9 57.8147 175.532Z" fill="url(#paint38_linear_14_141)"/>
<path style="mix-blend-mode:multiply" opacity="0.55" d="M33.3996 190.635C43.2825 188.667 53.0281 186.065 62.5755 182.843C62.376 181.355 61.8447 179.93 61.0207 178.675C60.1968 177.419 59.1012 176.364 57.8148 175.588C57.8148 175.588 56.6107 175.865 54.5174 176.291C53.2948 176.55 51.7758 176.846 49.9975 177.161L46.2926 177.772L42.032 178.383L38.4567 178.864L34.2332 179.345L30.9173 179.66L26.5085 180.011C25.1562 180.011 23.8039 180.178 22.4146 180.233C20.8771 180.233 19.3395 180.233 17.7835 180.344C16.3571 180.344 14.9492 180.344 13.5229 180.344C12.0965 180.344 10.3366 180.233 8.74355 180.122C7.15044 180.011 5.26095 179.845 3.55671 179.641C2.26196 182.071 1.42675 184.719 1.09296 187.452C14.5417 191.69 21.2105 192.486 33.3996 190.635Z" fill="url(#paint39_linear_14_141)"/>
<path d="M66.5212 173.533C56.9964 177.323 47.2612 180.561 37.3638 183.232C23.9706 186.582 -3.66785 181.048 -6.70586 177.957C-9.74386 174.866 -23.6372 138.312 -26.175 127.355C-28.7129 116.398 -48.923 81.7139 -2.27852 66.278C44.366 50.8421 50.7014 49.9723 63.0016 59.2264C75.3018 68.4805 66.3916 73.5888 67.0584 79.4559C67.7253 85.323 76.7652 83.5832 79.3587 80.5479C81.9521 77.5125 97.0124 85.5636 93.5669 111.253C90.3622 135.018 84.8048 141.681 78.0434 153.156C71.282 164.631 70.1335 171.72 66.5212 173.533Z" fill="url(#paint40_linear_14_141)"/>
<g style="mix-blend-mode:multiply" opacity="0.32">
<path d="M87.8799 128.392C83.2091 126.97 78.2829 126.591 73.4494 127.281C64.817 128.133 59.6116 133.148 51.9981 136.702C29.4724 147.215 11.9668 142.551 5.50176 137.942C-2.16736 132.39 -6.98371 125.467 -12.8189 118.268C-18.0203 111.978 -24.7857 107.165 -32.4363 104.312C-31.3619 114.029 -27.2494 122.821 -26.175 127.355C-23.6372 138.312 -9.74385 174.903 -6.70584 177.994C-3.66784 181.085 23.9706 186.619 37.3638 183.232C47.262 180.549 56.9972 177.298 66.5212 173.496C70.2261 171.646 71.282 164.538 78.0434 153.045C82.6375 145.216 86.6943 139.626 89.825 129.336C89.2065 128.963 88.5555 128.647 87.8799 128.392Z" fill="#072A81"/>
</g>
<g style="mix-blend-mode:multiply" opacity="0.55">
<path d="M57.4443 168.943C50.9219 165.229 43.9575 162.35 36.7154 160.374H36.5858C29.8757 158.539 22.916 157.783 15.9681 158.134C6.70587 158.523 -4.07535 156.284 -10.8368 151.471C-12.9455 149.929 -14.9277 148.221 -16.7646 146.363C-12.1335 159.319 -5.89075 174.884 -4.03831 176.772C-1.27816 179.53 23.9151 184.583 36.1041 181.529C45.117 179.097 53.9805 176.143 62.6496 172.682L62.9831 172.478C61.038 171.09 59.0744 169.887 57.4443 168.943Z" fill="#2875AE"/>
</g>
<g style="mix-blend-mode:multiply">
<path d="M67.0585 79.3819C67.0585 77.4519 67.5155 75.5492 68.3922 73.8294C64.3724 73.2927 60.5564 73.1631 56.5922 75.8838C51.6049 79.0244 47.615 83.5179 45.0885 88.8396C40.6611 99.2597 40.8834 115.991 53.6838 120.729C66.4842 125.467 75.3759 116.25 77.6174 104.479C79.1179 96.7796 78.5992 89.2098 78.099 81.5474C74.5979 83.8239 67.6512 84.5087 67.0585 79.3819Z" fill="#2875AE"/>
</g>
<g style="mix-blend-mode:screen" opacity="0.55">
<path d="M61.1121 67.7587C57.4807 65.3154 53.6442 63.1913 49.6455 61.4104C39.7349 57.1905 30.3615 60.1703 20.84 64.1496C8.13684 69.5959 -4.84882 74.3593 -18.0613 78.4194C-14.023 84.8788 -9.11404 90.7645 -2.76016 93.6147C7.13189 98.0382 27.4161 98.5564 35.5113 89.9131C41.5503 83.4352 45.2737 74.3476 54.0358 70.9606C56.9302 69.8421 60.0093 69.277 63.1127 69.2949C62.4088 68.7396 61.7975 68.2214 61.1121 67.7587Z" fill="#2875AE"/>
</g>
<path d="M72.2453 96.2429C72.1156 93.2075 71.9489 87.4145 71.8192 83.2871C70.7837 83.3648 69.7537 83.0779 68.9078 82.4761C68.0619 81.8743 67.4535 80.9957 67.1881 79.9926C63.0201 84.2495 57.222 88.8951 55.6103 91.7269C53.1651 96.0208 51.7017 108.569 59.5375 111.827C67.3734 115.084 72.449 101.092 72.2453 96.2429Z" fill="url(#paint41_linear_14_141)"/>
<g style="mix-blend-mode:screen" opacity="0.55">
<path d="M33.9553 102.702C33.2199 101.537 32.1549 100.616 30.8952 100.056C29.6355 99.4956 28.2377 99.3216 26.879 99.5559C23.1993 100.101 19.4842 100.373 15.7643 100.37C9.77321 100.656 3.77201 100.083 -2.0562 98.6675C-4.21601 97.8904 -6.5956 97.997 -8.67715 98.964C-10.7587 99.9311 -12.3738 101.68 -13.1709 103.831C-13.2724 104.158 -13.3468 104.492 -13.3932 104.831C-13.7827 108.894 -12.6325 112.956 -10.1699 116.213C-8.72664 118.073 -7.00163 119.697 -5.05716 121.025C11.1332 132.315 42.7544 118.046 33.9553 102.739V102.702Z" fill="#2875AE"/>
</g>
<path d="M70.2446 199.889C70.2446 199.889 51.2941 211.679 5.59436 207.755C-11.1888 206.311 -9.63272 251.86 5.68698 255.062C21.0067 258.264 49.5714 259.208 65.558 249.232C65.558 249.232 64.6132 234.796 66.1693 226.245C67.7253 217.694 71.1523 205.645 70.2446 199.889Z" fill="url(#paint42_linear_14_141)"/>
<path style="mix-blend-mode:multiply" opacity="0.5" d="M41.2354 254.248C40.5879 249.681 38.6006 245.409 35.5245 241.97C32.4485 238.531 28.4215 236.079 23.9521 234.925L22.5072 234.518C12.6337 231.575 7.09489 220.119 5.22392 209.772C-8.70645 211.013 -6.94663 250.398 6.70587 253.248C18.0935 255.462 29.7598 255.862 41.2725 254.433L41.2354 254.248Z" fill="url(#paint43_linear_14_141)"/>
<path d="M8.57682 212.271C8.84203 212.253 9.10816 212.253 9.37337 212.271C16.0804 212.862 22.8159 213.066 29.5465 212.882C47.1817 212.345 64.9281 205.867 70.3002 203.628C70.3002 203.054 70.3002 202.499 70.3002 201.98C57.3247 207.487 43.4923 210.706 29.4168 211.494C22.7414 211.671 16.0614 211.461 9.41042 210.864C3.38998 210.383 -0.666871 216.139 -1.53752 226.004C-2.55636 237.646 1.27819 251.249 9.28075 252.915C16.9108 254.403 24.685 255.024 32.4548 254.766C43.7845 253.825 54.8845 251.043 65.3171 246.53C65.3171 246.049 65.3171 245.493 65.3171 244.901C56.6292 249.362 40.0498 253.063 32.4733 253.304C24.8142 253.553 17.1515 252.932 9.63271 251.453C2.649 249.991 -0.981787 237.183 -0.0185167 226.115C0.778034 217.583 3.96423 212.419 8.57682 212.271Z" fill="#282B36"/>
<g style="mix-blend-mode:screen" opacity="0.55">
<path d="M60.9825 242.125C60.5749 239.164 60.3156 234.296 60.3341 233.778C60.6078 229.124 61.6663 224.55 63.4647 220.248C64.9643 216.484 66.0211 212.559 66.6139 208.551H66.4101C61.5713 212.093 55.8174 214.174 49.8307 214.548C50.0979 218.109 49.8294 221.69 49.0342 225.171C47.5337 230.872 44.6995 236.517 44.9773 241.829C45.0436 243.574 45.3362 245.304 45.848 246.974C51.2125 246.612 56.4076 244.947 60.9825 242.125Z" fill="#2875AE"/>
</g>
<g style="mix-blend-mode:multiply" opacity="0.75">
<path d="M58.2038 137.128C57.1455 133.129 55.1447 129.442 52.3686 126.374C52.0536 126.023 51.7017 125.764 51.3682 125.43C50.8681 124.949 50.3494 124.505 49.8307 124.061L49.0527 123.339H48.9415C47.6316 122.314 46.2443 121.392 44.7921 120.581C44.5327 120.433 44.2363 120.322 43.9585 120.174C43.3472 119.859 42.7544 119.508 42.106 119.212C40.3832 116.287 36.5487 110.531 35.0112 108.218C34.8022 107.915 34.5266 107.664 34.2054 107.485C33.8843 107.305 33.5262 107.201 33.1587 107.181H31.9917C34.9741 94.3365 41.8096 68.4805 51.1459 54.4327C46.4407 54.0626 38.5678 52.9706 34.0664 54.4327C29.565 55.8949 28.7684 56.5612 24.1003 57.9863C22.1246 62.4185 20.4233 66.9678 19.006 71.6084L18.5429 70.5164C18.7282 70.9421 18.8579 71.2938 19.006 71.6084C18.6356 70.6645 18.2836 69.7576 17.9131 68.8877C16.5608 65.6117 15.2641 62.817 14.06 60.4109C13.7061 60.386 13.3536 60.3427 13.0041 60.2814C10.5589 61.2438 8.09516 61.8546 5.59436 62.6134C4.65607 63.7012 3.43948 64.5136 2.07472 64.9639C-1.27821 66.0929 -3.48261 66.5557 -7.92848 68.425C-4.29227 74.9449 -1.07488 81.6894 1.70423 88.6175C2.48225 90.4683 3.24176 92.3191 4.00126 94.17C6.31681 100.056 8.29893 105.46 9.65121 109.328L7.39123 109.995C6.82251 110.173 6.34477 110.565 6.05747 111.086C5.87859 111.329 5.7524 111.607 5.68698 111.901C5.05715 114.918 3.51962 119.896 2.63045 122.636L2.00062 123.117C1.51898 123.487 1.0744 123.876 0.611284 124.264L0.0555525 124.746C-0.426083 125.19 -0.907719 125.652 -1.3523 126.134C-1.47873 126.241 -1.59642 126.359 -1.70427 126.485C-2.26 127.078 -2.79721 127.688 -3.29737 128.336C-6.40802 132.267 -8.4499 136.934 -9.22519 141.884C-9.35486 142.699 -9.44748 143.531 -9.50305 144.346C-9.63871 146.246 -9.58908 148.155 -9.35486 150.046C-9.21041 151.25 -8.98764 152.443 -8.68798 153.618C-8.69518 153.686 -8.69518 153.754 -8.68798 153.822C-8.2959 155.339 -7.78808 156.824 -7.16898 158.264C-7.17559 158.313 -7.17559 158.363 -7.16898 158.412C-4.64016 163.93 -0.673366 168.666 4.31617 172.127C5.26092 172.812 6.16861 173.496 7.2986 174.126C7.89139 174.477 8.48417 174.792 9.15105 175.107C14.4437 177.732 20.3061 179.004 26.2121 178.808H26.6566C27.4532 178.808 28.2312 178.808 29.0278 178.66H29.5279C31.8297 178.422 34.1051 177.976 36.3264 177.328L37.4934 176.957C38.0492 176.772 38.6049 176.587 39.1606 176.365C39.7164 176.143 40.1424 175.976 40.6241 175.754C41.1057 175.532 41.7541 175.273 42.2913 174.995C42.8285 174.718 43.7732 174.237 44.4771 173.811L45.533 173.145C46.0888 172.775 46.626 172.386 47.1632 171.997L48.0894 171.294C48.7748 170.739 49.4417 170.165 50.0715 169.554C50.1827 169.443 50.3123 169.35 50.4235 169.221C51.1631 168.494 51.8561 167.721 52.4982 166.907L53.054 166.167C53.5295 165.573 53.9746 164.955 54.3877 164.316C54.573 164.039 54.7397 163.779 54.8879 163.502C55.4442 162.566 55.9392 161.596 56.3698 160.596C56.6662 159.874 56.9441 159.152 57.2034 158.394C58.772 153.851 59.4696 149.054 59.2596 144.253C59.1625 141.847 58.8085 139.459 58.2038 137.128ZM30.4171 116.01H30.2504C29.0278 115.88 27.8052 115.825 26.5455 115.806H25.7304C24.2299 115.806 22.748 115.806 21.266 116.028C20.3213 116.121 19.4136 116.25 18.4503 116.398C17.487 116.546 16.4126 116.75 15.4308 116.991L14.5046 117.231L12.6522 117.768L11.6148 118.138C11.0467 118.323 10.491 118.527 9.9476 118.749H9.76236L10.7627 113.437V113.289H11.0035C11.2258 113.974 11.4851 114.677 11.7074 115.362C12.5981 115.473 13.4966 115.51 14.3935 115.473H17.1907H18.7467C21.266 115.362 23.9706 115.195 26.1565 115.047L30.3986 114.751C30.3986 114.751 30.5653 113.9 30.8802 112.364L33.2143 116.417C32.2881 116.25 31.3433 116.102 30.3986 116.01H30.4171Z" fill="#2875AE"/>
</g>
<path d="M32.6401 111.808C32.6401 111.808 16.9684 113.011 14.4676 112.53C14.4676 112.53 0.0555754 68.6656 -10.8368 58.3195C-4.98085 53.0043 2.28878 49.4948 10.0958 48.214C10.0958 48.214 24.656 64.7789 32.6401 111.808Z" fill="#F83313"/>
<path d="M20.5806 67.3885C20.5806 67.3885 11.3184 81.5844 4.7793 86.5631C8.31746 95.0769 11.5592 103.757 14.4676 112.475C16.9684 112.956 32.64 111.753 32.64 111.753C30.265 96.5487 26.2208 81.6522 20.5806 67.333V67.3885Z" fill="#B20000"/>
<path d="M4.98309 121.636C6.42937 117.556 7.66595 113.405 8.68798 109.199C8.75236 108.772 8.936 108.371 9.21781 108.044C9.49962 107.717 9.86816 107.475 10.2811 107.348C18.3986 104.848 26.9072 103.863 35.3817 104.442C35.7485 104.456 36.1071 104.555 36.4288 104.731C36.7505 104.908 37.0263 105.158 37.2341 105.46C38.9384 108.014 43.551 114.936 44.6439 117.157L37.2341 116.639L32.6586 108.68C26.245 108.142 19.7869 108.769 13.597 110.531L11.8557 119.785L4.98309 121.636Z" fill="#FBA200"/>
<path d="M32.603 108.754L36.9007 116.158L43.3657 116.528C42.2172 114.677 37.8084 108.662 35.9559 106.441C35.749 106.174 35.4856 105.956 35.1846 105.802C34.8836 105.649 34.5524 105.564 34.2146 105.553C26.1833 105.055 18.1217 105.678 10.2625 107.403C9.85948 107.528 9.49887 107.761 9.22086 108.078C8.94286 108.395 8.75838 108.783 8.68797 109.199C8.03962 112.308 6.39094 117.601 5.57587 120.137L10.7998 118.878L12.6522 110.864L13.671 110.642V110.494C19.8263 108.785 26.239 108.196 32.603 108.754Z" fill="#FFD000"/>
<path d="M34.2702 105.627C26.5156 105.174 18.7352 105.753 11.1332 107.348C11.7424 108.491 12.2627 109.679 12.6892 110.901L13.5228 110.716V110.568C19.7127 108.806 26.1709 108.179 32.5845 108.717L33.9923 111.161C33.9923 110.753 34.1591 110.346 34.2702 109.939C34.458 109.111 34.7311 108.305 35.0853 107.533C35.2705 107.144 35.5669 106.7 35.7707 106.256C35.3671 105.866 34.8316 105.641 34.2702 105.627Z" fill="#EDA900"/>
<path d="M39.6238 111.29L37.3638 108.31C36.6043 109.254 35.8448 110.161 35.0297 111.142L34.3999 111.864L36.2523 115.066C37.3823 113.826 38.5309 112.586 39.6238 111.29Z" fill="#FFEA3A"/>
<path d="M59.6487 133.722C58.6203 129.835 56.6768 126.249 53.9802 123.265C46.3481 114.973 34.7148 112.16 23.7854 113.178C22.8777 113.27 21.9329 113.382 21.0438 113.53C-9.46598 118.323 -16.1903 153.822 10.2811 169.758C25.9898 179.197 50.4606 174.015 57.9074 156.524C60.9784 149.321 61.5904 141.308 59.6487 133.722Z" fill="#FFD000"/>
<path d="M10.9665 127.577C16.5366 123.317 22.3173 119.339 28.2868 115.658C29.7317 114.807 31.2137 114.011 32.6771 113.196C29.7211 112.891 26.7414 112.891 23.7854 113.196C22.8777 113.289 21.933 113.4 21.0438 113.548C4.37179 116.176 -5.22386 128.022 -6.11304 140.811C-0.463085 136.332 5.18687 131.853 10.9665 127.577Z" fill="#FFEA3A"/>
<path d="M15.8013 137.257C26.2121 130.872 36.4746 124.005 46.7001 117.546C44.3107 116.201 41.7666 115.15 39.1236 114.418C36.9748 115.769 34.7333 116.972 32.4733 118.305C26.6459 121.803 21.0009 125.596 15.5605 129.669C8.26189 135.073 1.14851 140.774 -5.9834 146.326C-5.82698 147.536 -5.5981 148.735 -5.29799 149.917C1.75982 145.641 8.8732 141.533 15.8013 137.257Z" fill="#FFEA3A"/>
<path d="M25.7119 139.089C34.6222 133.259 44.2734 128.373 53.1466 122.34C52.3769 121.616 51.5667 120.936 50.7199 120.304C39.0865 127.577 27.6199 135.203 15.9495 142.514C9.46598 146.53 2.77866 150.38 -3.81604 154.322C-3.47347 155.143 -3.07744 155.94 -2.63048 156.709C6.83551 150.824 16.4867 145.234 25.7119 139.089Z" fill="#FFEA3A"/>
<path d="M7.29865 167.759C8.24339 168.444 9.15109 169.11 10.2811 169.758C10.8368 170.091 11.4111 170.405 12.0039 170.702C19.9138 166.019 27.9163 161.447 35.604 156.395C43.7177 151.046 52.5724 146.215 60.7046 140.663C60.6409 139.285 60.4924 137.913 60.26 136.554C42.9952 147.492 25.36 157.968 7.29865 167.759Z" fill="#FFEA3A"/>
<path d="M23.6927 174.144C37.4379 175.699 52.3686 169.517 57.9074 156.524C58.4444 155.246 58.9022 153.935 59.2782 152.6C47.4781 159.93 35.7151 167.222 23.6927 174.144Z" fill="#FFEA3A"/>
<path d="M54.4618 134C53.5882 130.66 51.9308 127.577 49.627 125.005C43.1434 117.842 33.2143 115.343 23.9151 116.287C23.137 116.287 22.359 116.472 21.5995 116.583C-4.3347 120.711 -10.0958 151.323 12.4299 165.075C25.8046 173.219 46.6631 168.777 52.9799 153.674C55.5971 147.45 56.1173 140.545 54.4618 134Z" fill="#FFE73A"/>
<path d="M53.1466 134.74C52.308 131.575 50.7341 128.651 48.5525 126.208C42.3654 119.434 32.8994 117.065 24.0447 117.953C23.3037 117.953 22.5628 118.12 21.8218 118.249C-3.01948 122.154 -8.46566 151.157 13.0042 164.168C25.7675 171.886 45.6257 167.648 51.6646 153.359C54.1892 147.483 54.71 140.941 53.1466 134.74Z" fill="#EA8600"/>
<path d="M53.1466 133.852C52.3404 130.843 50.8364 128.065 48.7563 125.745C42.8656 119.304 33.9368 117.065 25.4155 117.916C24.7116 117.916 24.0077 118.064 23.3037 118.175C-0.259337 121.877 -5.4647 149.454 14.9863 161.836C27.1383 169.239 46.0518 165.149 51.7943 151.564C54.1745 145.967 54.6496 139.744 53.1466 133.852Z" fill="#FFD000"/>
<g style="mix-blend-mode:multiply" opacity="0.55">
<path d="M51.7387 151.564C52.4296 149.917 52.957 148.206 53.3133 146.456C50.7995 146.724 48.2578 146.536 45.8109 145.901C43.9585 145.401 36.0671 140.922 34.9371 141.477C32.4972 142.825 29.776 143.586 26.9901 143.698C23.7474 143.683 20.5429 142.998 17.5781 141.685C14.6133 140.373 11.9523 138.462 9.76238 136.073C7.95651 134.144 6.46277 131.946 5.33503 129.558C-0.74098 139.682 1.81539 153.859 14.9307 161.799C27.0827 169.165 45.9962 165.149 51.7387 151.564Z" fill="#EBAE00"/>
</g>
<path d="M42.032 141.292C42.2543 148.047 36.4746 153.711 29.0649 153.952C21.6551 154.192 15.542 148.88 15.3383 142.106C15.1345 135.332 20.8956 129.687 28.3054 129.447C35.7151 129.206 41.8838 134.518 42.032 141.292Z" fill="#EA8600"/>
<path d="M41.2539 141.958C41.4577 148.714 35.6966 154.377 28.2868 154.618C20.877 154.858 14.7639 149.528 14.5602 142.773C14.3564 136.017 20.1175 130.335 27.5273 130.113C34.937 129.891 41.0501 135.11 41.2539 141.958Z" fill="#FFE73A"/>
<path d="M39.3644 142.014C39.3014 144.917 38.1027 147.68 36.0251 149.711C33.9475 151.742 31.1563 152.879 28.2498 152.878C26.8021 153.035 25.3375 152.891 23.9481 152.456C22.5587 152.02 21.2745 151.302 20.1762 150.347C19.0779 149.392 18.1893 148.22 17.5661 146.905C16.943 145.59 16.5988 144.16 16.5553 142.706C16.5117 141.251 16.7697 139.804 17.313 138.454C17.8563 137.104 18.6732 135.881 19.7123 134.862C20.7515 133.843 21.9904 133.049 23.3512 132.531C24.7121 132.013 26.1654 131.782 27.6199 131.853C30.518 131.678 33.3693 132.644 35.5641 134.543C37.7589 136.442 39.1229 139.123 39.3644 142.014Z" fill="#FFBA00"/>
<path d="M33.381 146.049H33.2143L30.1578 145.863L30.1392 143.235V143.013L30.1022 136.184V133.796V133.093L26.8234 132.852L26.0453 133.222L22.6183 138.59L20.6547 141.292L22.2108 144.216L23.2481 143.828L26.8234 140.274L26.916 142.939L26.9901 145.29L27.0086 146.03L23.3778 146.419L22.5998 146.789L23.489 149.843L32.9735 149.898L33.7515 149.528L33.381 146.049Z" fill="#EA8600"/>
<path d="M19.8767 141.662L22.2108 144.216L26.0453 140.644L26.2306 146.4L22.5998 146.789L22.6924 150.213L32.9735 149.898L32.603 146.419L29.3797 146.252L29.3056 133.463L26.0453 133.222L19.8767 141.662Z" fill="#FFD000"/>
<path d="M24.656 139.608C26.2491 138.738 27.7681 137.572 29.3242 136.554V134.166C27.1012 135.573 24.9524 137.165 22.7109 138.442L21.8959 138.886L19.8026 141.662L20.062 141.958C21.6551 141.199 23.1741 140.422 24.656 139.608Z" fill="#FFE262"/>
<path d="M27.2124 145.068C27.9163 144.586 28.6943 144.105 29.4538 143.606V141.218C28.4168 141.971 27.3409 142.669 26.2306 143.309V145.678L27.2124 145.068Z" fill="#FFE262"/>
<path d="M32.4363 146.419C30.732 147.751 28.7314 148.899 26.879 150.12L32.8994 149.935L32.5289 146.456L32.4363 146.419Z" fill="#FFE262"/>
<path d="M45.0514 129.817C45.1839 130.49 45.1063 131.188 44.8292 131.815C44.5521 132.443 44.0888 132.97 43.5019 133.326C42.915 133.683 42.2329 133.85 41.5477 133.806C40.8624 133.763 40.2072 133.51 39.6704 133.082C39.1337 132.654 38.7414 132.072 38.5465 131.414C38.3516 130.756 38.3635 130.054 38.5807 129.404C38.7978 128.753 39.2097 128.184 39.7607 127.775C40.3117 127.366 40.9751 127.135 41.6615 127.115C42.4692 127.026 43.2792 127.261 43.9144 127.767C44.5496 128.273 44.9584 129.01 45.0514 129.817Z" fill="#FFEA3A"/>
<path d="M33.5663 45.1046C33.5663 45.1046 17.7094 62.0767 14.4676 112.53L32.6401 111.975C32.6401 111.975 43.1064 58.412 58.9818 46.2706C58.9818 46.2706 44.1252 43.0687 33.5663 45.1046Z" fill="#F83313"/>
<g style="mix-blend-mode:screen" opacity="0.75">
<path d="M41.2539 55.0065C43.4243 55.6759 45.4395 56.7707 47.1817 58.2269C49.2179 54.3556 51.6183 50.6867 54.3507 47.2701C47.87 46.2452 41.2883 46.0153 34.7518 46.5853C33.0974 48.8893 31.5879 51.2939 30.2319 53.785C33.95 53.4988 37.6889 53.9131 41.2539 55.0065Z" fill="#FB8968"/>
</g>
</g>
<defs>
<radialGradient id="paint0_radial_14_141" cx="0" cy="0" r="1" gradientUnits="userSpaceOnUse" gradientTransform="translate(161.132 126.972) rotate(5.28541) scale(110.886 110.791)">
<stop offset="0.12" stop-color="#777B85"/>
<stop offset="0.94" stop-color="#1A1F2A"/>
<stop offset="0.99" stop-color="#626570"/>
<stop offset="1" stop-color="#7B7E88"/>
</radialGradient>
<linearGradient id="paint1_linear_14_141" x1="152.256" y1="156.3" x2="131.668" y2="205.762" gradientUnits="userSpaceOnUse">
<stop offset="0.1" stop-color="#5E626E"/>
<stop offset="1" stop-color="#1A1F2A"/>
</linearGradient>
<linearGradient id="paint2_linear_14_141" x1="171.037" y1="135.119" x2="192.594" y2="192.24" gradientUnits="userSpaceOnUse">
<stop offset="0.1" stop-color="#3F4452"/>
<stop offset="1" stop-color="#1A1F2A"/>
</linearGradient>
<linearGradient id="paint3_linear_14_141" x1="151.193" y1="137.261" x2="84.5887" y2="179.662" gradientUnits="userSpaceOnUse">
<stop offset="0.1" stop-color="#3F4452"/>
<stop offset="1" stop-color="#1A1F2A"/>
</linearGradient>
<linearGradient id="paint4_linear_14_141" x1="122.616" y1="80.0631" x2="51.5652" y2="125.309" gradientUnits="userSpaceOnUse">
<stop offset="0.1" stop-color="#3F4452"/>
<stop offset="1" stop-color="#1A1F2A"/>
</linearGradient>
<linearGradient id="paint5_linear_14_141" x1="0.0751872" y1="252.021" x2="-1.47149" y2="174.619" gradientUnits="userSpaceOnUse">
<stop stop-color="#003D97"/>
<stop offset="0.65" stop-color="#2F65D0"/>
<stop offset="1" stop-color="#4477EB"/>
</linearGradient>
<linearGradient id="paint6_linear_14_141" x1="59.3997" y1="193.9" x2="26.1252" y2="228.052" gradientUnits="userSpaceOnUse">
<stop offset="0.1" stop-color="#3F4452"/>
<stop offset="1" stop-color="#1A1F2A"/>
</linearGradient>
<linearGradient id="paint7_linear_14_141" x1="71.8841" y1="206.556" x2="38.8269" y2="240.463" gradientUnits="userSpaceOnUse">
<stop offset="0.1" stop-color="#3F4452"/>
<stop offset="1" stop-color="#1A1F2A"/>
</linearGradient>
<linearGradient id="paint8_linear_14_141" x1="66.5901" y1="201.311" x2="33.4785" y2="235.274" gradientUnits="userSpaceOnUse">
<stop offset="0.1" stop-color="#3F4452"/>
<stop offset="1" stop-color="#1A1F2A"/>
</linearGradient>
<linearGradient id="paint9_linear_14_141" x1="61.58" y1="196.356" x2="28.414" y2="230.376" gradientUnits="userSpaceOnUse">
<stop offset="0.1" stop-color="#3F4452"/>
<stop offset="1" stop-color="#1A1F2A"/>
</linearGradient>
<linearGradient id="paint10_linear_14_141" x1="57.4961" y1="192.308" x2="24.2938" y2="226.367" gradientUnits="userSpaceOnUse">
<stop offset="0.1" stop-color="#3F4452"/>
<stop offset="1" stop-color="#1A1F2A"/>
</linearGradient>
<linearGradient id="paint11_linear_14_141" x1="53.9791" y1="188.805" x2="20.7405" y2="222.901" gradientUnits="userSpaceOnUse">
<stop offset="0.1" stop-color="#3F4452"/>
<stop offset="1" stop-color="#1A1F2A"/>
</linearGradient>
<linearGradient id="paint12_linear_14_141" x1="50.5569" y1="185.411" x2="17.3001" y2="219.526" gradientUnits="userSpaceOnUse">
<stop offset="0.1" stop-color="#3F4452"/>
<stop offset="1" stop-color="#1A1F2A"/>
</linearGradient>
<linearGradient id="paint13_linear_14_141" x1="47.2092" y1="182.034" x2="13.898" y2="216.206" gradientUnits="userSpaceOnUse">
<stop offset="0.1" stop-color="#3F4452"/>
<stop offset="1" stop-color="#1A1F2A"/>
</linearGradient>
<linearGradient id="paint14_linear_14_141" x1="58.2445" y1="199.144" x2="-60.9934" y2="321.467" gradientUnits="userSpaceOnUse">
<stop offset="0.1" stop-color="#3F4452"/>
<stop offset="1" stop-color="#1A1F2A"/>
</linearGradient>
<linearGradient id="paint15_linear_14_141" x1="-7.48162" y1="234.638" x2="-0.799938" y2="169.068" gradientUnits="userSpaceOnUse">
<stop stop-color="#003D97"/>
<stop offset="0.65" stop-color="#2F65D0"/>
<stop offset="1" stop-color="#4477EB"/>
</linearGradient>
<linearGradient id="paint16_linear_14_141" x1="29.7935" y1="208.401" x2="168.832" y2="209.688" gradientUnits="userSpaceOnUse">
<stop stop-color="#003D97"/>
<stop offset="0.65" stop-color="#2F65D0"/>
<stop offset="1" stop-color="#4477EB"/>
</linearGradient>
<linearGradient id="paint17_linear_14_141" x1="143.851" y1="204.606" x2="58.7513" y2="208.12" gradientUnits="userSpaceOnUse">
<stop offset="0.1" stop-color="#3F4452"/>
<stop offset="1" stop-color="#1A1F2A"/>
</linearGradient>
<linearGradient id="paint18_linear_14_141" x1="100.061" y1="212.271" x2="172.081" y2="212.938" gradientUnits="userSpaceOnUse">
<stop stop-color="#003D97"/>
<stop offset="0.65" stop-color="#2F65D0"/>
<stop offset="1" stop-color="#4477EB"/>
</linearGradient>
<linearGradient id="paint19_linear_14_141" x1="141.619" y1="177.618" x2="154.382" y2="177.736" gradientUnits="userSpaceOnUse">
<stop offset="0.1" stop-color="#3F4452"/>
<stop offset="1" stop-color="#1A1F2A"/>
</linearGradient>
<linearGradient id="paint20_linear_14_141" x1="140.168" y1="184.286" x2="147.318" y2="184.352" gradientUnits="userSpaceOnUse">
<stop offset="0.1" stop-color="#3F4452"/>
<stop offset="1" stop-color="#1A1F2A"/>
</linearGradient>
<linearGradient id="paint21_linear_14_141" x1="139.109" y1="186.571" x2="144.055" y2="186.617" gradientUnits="userSpaceOnUse">
<stop offset="0.1" stop-color="#3F4452"/>
<stop offset="1" stop-color="#1A1F2A"/>
</linearGradient>
<linearGradient id="paint22_linear_14_141" x1="60.6603" y1="181.978" x2="116.546" y2="182.495" gradientUnits="userSpaceOnUse">
<stop offset="0.1" stop-color="#3F4452"/>
<stop offset="1" stop-color="#1A1F2A"/>
</linearGradient>
<linearGradient id="paint23_linear_14_141" x1="60.7394" y1="173.427" x2="121.164" y2="173.987" gradientUnits="userSpaceOnUse">
<stop offset="0.1" stop-color="#3F4452"/>
<stop offset="1" stop-color="#1A1F2A"/>
</linearGradient>
<linearGradient id="paint24_linear_14_141" x1="60.4174" y1="178.2" x2="120.434" y2="178.756" gradientUnits="userSpaceOnUse">
<stop offset="0.1" stop-color="#3F4452"/>
<stop offset="1" stop-color="#1A1F2A"/>
</linearGradient>
<linearGradient id="paint25_linear_14_141" x1="60.2162" y1="181.918" x2="119.325" y2="182.466" gradientUnits="userSpaceOnUse">
<stop offset="0.1" stop-color="#3F4452"/>
<stop offset="1" stop-color="#1A1F2A"/>
</linearGradient>
<linearGradient id="paint26_linear_14_141" x1="60.1442" y1="185.693" x2="118.308" y2="186.232" gradientUnits="userSpaceOnUse">
<stop offset="0.1" stop-color="#3F4452"/>
<stop offset="1" stop-color="#1A1F2A"/>
</linearGradient>
<linearGradient id="paint27_linear_14_141" x1="59.9913" y1="188.209" x2="117.507" y2="188.742" gradientUnits="userSpaceOnUse">
<stop offset="0.1" stop-color="#3F4452"/>
<stop offset="1" stop-color="#1A1F2A"/>
</linearGradient>
<linearGradient id="paint28_linear_14_141" x1="60.641" y1="190.066" x2="116.471" y2="190.583" gradientUnits="userSpaceOnUse">
<stop offset="0.1" stop-color="#3F4452"/>
<stop offset="1" stop-color="#1A1F2A"/>
</linearGradient>
<linearGradient id="paint29_linear_14_141" x1="67.0923" y1="169.562" x2="133.777" y2="170.18" gradientUnits="userSpaceOnUse">
<stop stop-color="#003D97"/>
<stop offset="0.65" stop-color="#2F65D0"/>
<stop offset="1" stop-color="#4477EB"/>
</linearGradient>
<linearGradient id="paint30_linear_14_141" x1="-7.13005" y1="231.121" x2="71.1176" y2="228.728" gradientUnits="userSpaceOnUse">
<stop stop-color="#003D97"/>
<stop offset="0.65" stop-color="#2F65D0"/>
<stop offset="1" stop-color="#4477EB"/>
</linearGradient>
<linearGradient id="paint31_linear_14_141" x1="48.345" y1="168.877" x2="16.0984" y2="203.703" gradientUnits="userSpaceOnUse">
<stop offset="0.1" stop-color="#3F4452"/>
<stop offset="1" stop-color="#1A1F2A"/>
</linearGradient>
<linearGradient id="paint32_linear_14_141" x1="34.9751" y1="156.509" x2="2.72851" y2="191.334" gradientUnits="userSpaceOnUse">
<stop offset="0.1" stop-color="#3F4452"/>
<stop offset="1" stop-color="#1A1F2A"/>
</linearGradient>
<linearGradient id="paint33_linear_14_141" x1="40.6394" y1="161.743" x2="8.39284" y2="196.568" gradientUnits="userSpaceOnUse">
<stop offset="0.1" stop-color="#3F4452"/>
<stop offset="1" stop-color="#1A1F2A"/>
</linearGradient>
<linearGradient id="paint34_linear_14_141" x1="45.9609" y1="166.673" x2="13.7143" y2="201.498" gradientUnits="userSpaceOnUse">
<stop offset="0.1" stop-color="#3F4452"/>
<stop offset="1" stop-color="#1A1F2A"/>
</linearGradient>
<linearGradient id="paint35_linear_14_141" x1="50.2907" y1="170.688" x2="18.0627" y2="205.513" gradientUnits="userSpaceOnUse">
<stop offset="0.1" stop-color="#3F4452"/>
<stop offset="1" stop-color="#1A1F2A"/>
</linearGradient>
<linearGradient id="paint36_linear_14_141" x1="54.0284" y1="174.129" x2="21.7824" y2="208.973" gradientUnits="userSpaceOnUse">
<stop offset="0.1" stop-color="#3F4452"/>
<stop offset="1" stop-color="#1A1F2A"/>
</linearGradient>
<linearGradient id="paint37_linear_14_141" x1="57.6522" y1="177.481" x2="25.4062" y2="212.325" gradientUnits="userSpaceOnUse">
<stop offset="0.1" stop-color="#3F4452"/>
<stop offset="1" stop-color="#1A1F2A"/>
</linearGradient>
<linearGradient id="paint38_linear_14_141" x1="61.2188" y1="180.78" x2="28.9727" y2="215.623" gradientUnits="userSpaceOnUse">
<stop offset="0.1" stop-color="#3F4452"/>
<stop offset="1" stop-color="#1A1F2A"/>
</linearGradient>
<linearGradient id="paint39_linear_14_141" x1="43.1794" y1="170.257" x2="-72.2891" y2="295.042" gradientUnits="userSpaceOnUse">
<stop offset="0.1" stop-color="#3F4452"/>
<stop offset="1" stop-color="#1A1F2A"/>
</linearGradient>
<linearGradient id="paint40_linear_14_141" x1="-32.0918" y1="120.893" x2="94.5005" y2="117.022" gradientUnits="userSpaceOnUse">
<stop stop-color="#003D97"/>
<stop offset="0.65" stop-color="#2F65D0"/>
<stop offset="1" stop-color="#4477EB"/>
</linearGradient>
<linearGradient id="paint41_linear_14_141" x1="72.5505" y1="77.4059" x2="61.5037" y2="101.101" gradientUnits="userSpaceOnUse">
<stop offset="0.1" stop-color="#3F4452"/>
<stop offset="1" stop-color="#0D121E"/>
</linearGradient>
<linearGradient id="paint42_linear_14_141" x1="-5.33435" y1="236.51" x2="66.4755" y2="225.485" gradientUnits="userSpaceOnUse">
<stop stop-color="#3E72D3"/>
<stop offset="0.06" stop-color="#1A54B1"/>
<stop offset="0.11" stop-color="#003D97"/>
<stop offset="0.59" stop-color="#265EC6"/>
<stop offset="1" stop-color="#4477EB"/>
</linearGradient>
<linearGradient id="paint43_linear_14_141" x1="6.13839" y1="234.716" x2="72.1189" y2="224.574" gradientUnits="userSpaceOnUse">
<stop stop-color="#003D97"/>
<stop offset="0.65" stop-color="#2F65D0"/>
<stop offset="1" stop-color="#4477EB"/>
</linearGradient>
<clipPath id="clip0_14_141">
<rect width="290" height="267" fill="white" transform="translate(-58)"/>
</clipPath>
</defs>
</svg>
