<svg width="215" height="267" viewBox="0 0 215 267" fill="none" xmlns="http://www.w3.org/2000/svg">
<g clip-path="url(#clip0_14_22)">
<path d="M72.4586 219.07L77.9224 227.683C77.9224 227.683 106.573 229.645 121.515 227.977C136.457 226.309 160.682 220.247 160.682 220.247L165.362 210.555L72.4586 219.07Z" fill="#9F4100"/>
<path d="M110 215.99C109.946 215.875 109.9 215.757 109.863 215.637L72.4586 219.07L77.9224 227.683C77.9224 227.683 103.831 229.527 119.224 228.213C115.476 224.695 112.357 220.561 110 215.99Z" fill="#8E3200"/>
<path d="M85.5402 199.274C85.5402 199.274 73.5748 209.711 72.439 219.07C72.439 219.07 102.147 222.798 122.083 220.149C136.714 217.892 151.184 214.688 165.401 210.555C165.401 210.555 157.725 196.939 151.34 192.78L85.5402 199.274Z" fill="#C76632"/>
<g style="mix-blend-mode:screen" opacity="0.65">
<path d="M155.003 206.16C152.946 208.789 150.851 211.418 148.638 214.008L147.933 215.224C157.979 212.831 165.401 210.634 165.401 210.634C163.447 207.245 161.302 203.97 158.978 200.824C157.783 202.59 156.413 204.375 155.003 206.16Z" fill="#C76632"/>
</g>
<path d="M119.694 195.899L85.5402 199.274C85.5402 199.274 73.5748 209.711 72.439 219.07C85.9341 220.678 99.5287 221.294 113.114 220.914C112.922 212.123 115.202 203.455 119.694 195.899Z" fill="#B1501C"/>
<path d="M121.985 219.286C103.009 221.817 72.4782 218.795 72.439 219.07C72.3998 219.345 102.147 222.798 122.083 220.149C136.714 217.892 151.184 214.688 165.401 210.555C165.401 210.555 140.511 216.833 121.985 219.286Z" fill="#F6A479"/>
<path d="M80.8011 193.369L87.0678 211.399C97.5525 212.684 108.133 213 118.675 212.34C129.468 211.086 140.142 208.967 150.596 206.003L155.61 186.757L80.8011 193.369Z" fill="#9F4100"/>
<path d="M90.3578 178.536L80.8011 193.408C92.9519 196.994 105.691 198.134 118.284 196.763C131.192 195.527 143.805 192.153 155.61 186.776L145.485 173.631L90.3578 178.536Z" fill="#C76632"/>
<path d="M118.225 196.056C105.687 197.129 93.0583 196.222 80.8011 193.369C92.9519 196.954 105.691 198.095 118.284 196.723C131.192 195.488 143.805 192.114 155.61 186.737C143.61 191.473 131.041 194.606 118.225 196.056Z" fill="#F6A479"/>
<g style="mix-blend-mode:screen" opacity="0.65">
<path d="M155.61 186.737L145.485 173.631H144.525C142.567 177.555 140.726 181.479 138.65 185.403C136.888 188.346 135.263 191.171 133.813 194.232C141.324 192.517 148.631 190.004 155.61 186.737Z" fill="#C76632"/>
</g>
<path d="M132.521 177.34C130.431 179.45 127.931 181.109 125.176 182.212C122.42 183.316 119.468 183.841 116.502 183.755C105.75 183.755 100.835 180.479 100.835 180.479C100.835 180.479 112.585 172.513 132.521 177.34Z" fill="url(#paint0_linear_14_22)"/>
<path d="M100.796 180.498L98.5632 186.384C104.698 188.22 111.114 188.925 117.5 188.464C123.786 187.554 129.908 185.737 135.674 183.068L132.54 177.339C132.54 177.339 120.301 188.444 100.796 180.498Z" fill="url(#paint1_linear_14_22)"/>
<path style="mix-blend-mode:screen" opacity="0.5" d="M126.842 180.793C125.74 181.284 124.609 181.703 123.454 182.048C123.595 183.768 123.93 185.466 124.452 187.11C126.274 186.619 127.958 186.09 129.466 185.56C128.526 183.99 127.625 182.46 126.842 180.793Z" fill="url(#paint2_linear_14_22)"/>
<g style="mix-blend-mode:multiply" opacity="0.35">
<path d="M111.41 183.186C107.76 182.813 104.184 181.908 100.796 180.498L98.5632 186.384C103.022 187.705 107.626 188.469 112.272 188.66C111.864 186.856 111.576 185.028 111.41 183.186Z" fill="#E69288"/>
</g>
<path d="M110.587 156.288C110.587 156.288 113.31 167.059 104.105 180.165C112.393 182.173 121.092 181.64 129.074 178.634C123.506 172.146 120.498 163.843 120.614 155.287C117.463 156.682 113.951 157.032 110.587 156.288Z" fill="url(#paint3_linear_14_22)"/>
<g style="mix-blend-mode:multiply" opacity="0.35">
<path d="M116.678 169.296C116.247 165.077 115.855 159.231 114.994 155.072C114.739 155.072 114.25 156.641 113.995 156.641C113.995 160.879 113.858 165.136 113.682 169.354C113.635 173.469 112.7 177.525 110.94 181.244C113.657 181.41 116.384 181.331 119.087 181.008C117.801 177.219 116.992 173.285 116.678 169.296Z" fill="#E69288"/>
</g>
<path style="mix-blend-mode:multiply" d="M110.783 163.39C114.358 163.222 117.858 162.314 121.065 160.722C120.788 158.923 120.638 157.107 120.614 155.287C117.463 156.682 113.951 157.032 110.587 156.288C111.039 158.629 111.105 161.028 110.783 163.39Z" fill="url(#paint4_linear_14_22)"/>
<path d="M110.49 158.642C110.49 158.642 117.305 160.192 121.143 157.602L124.727 147.577L105.3 149.539L110.49 158.642Z" fill="url(#paint5_linear_14_22)"/>
<g style="mix-blend-mode:multiply" opacity="0.35">
<path d="M113.016 151.422C112.925 150.503 113.025 149.574 113.31 148.695L108.59 149.107C109.197 150.696 109.745 152.325 110.411 153.914C111.077 155.503 111.625 157.249 112.213 158.917C113.078 159.016 113.947 159.069 114.817 159.074C113.866 156.619 113.26 154.044 113.016 151.422Z" fill="#E69288"/>
</g>
<path d="M105.3 149.5C105.3 149.5 113.035 142.182 124.727 147.538C124.727 147.577 118.577 155.484 105.3 149.5Z" fill="url(#paint6_linear_14_22)"/>
<path d="M103.792 134.55L110.901 149.107C112.531 149.636 114.223 149.952 115.934 150.049C117.437 149.731 118.857 149.103 120.105 148.205L123.18 131.862C117.132 134.684 110.377 135.62 103.792 134.55Z" fill="url(#paint7_linear_14_22)"/>
<g style="mix-blend-mode:multiply" opacity="0.35">
<path d="M110.196 134.981C110.901 136.943 111.625 138.768 112.154 140.749C112.977 143.751 113.368 146.812 113.917 149.853C114.477 149.971 115.048 150.036 115.62 150.049C115.546 144.756 115.768 139.464 116.286 134.197C114.285 134.648 112.246 134.911 110.196 134.981Z" fill="#E69288"/>
</g>
<path style="mix-blend-mode:multiply" d="M116.169 141.259C118.18 140.861 120.1 140.089 121.828 138.984L123.18 131.803C117.138 134.645 110.383 135.602 103.792 134.55L106.847 140.828C109.905 141.519 113.06 141.665 116.169 141.259Z" fill="url(#paint8_linear_14_22)"/>
<path d="M44.6306 26.8785C44.6306 26.8785 59.2007 55.9937 61.2765 74.5536C63.3523 93.1135 69.3057 111.83 81.1536 122.915C93.0016 134 107.807 138.493 113.388 137.944C118.969 137.394 146.68 123.877 151.928 94.7812C157.176 65.6857 156.217 26.3292 167.36 14.6949C167.36 14.7342 116.11 31.0967 44.6306 26.8785Z" fill="url(#paint9_linear_14_22)"/>
<path style="mix-blend-mode:screen" opacity="0.5" d="M139.042 40.5925C135.772 41.4165 132.462 42.064 129.133 42.5544C129.329 46.3017 129.446 50.0687 129.407 53.8552C129.231 68.0596 128.291 82.6368 124.629 96.4488C122.949 102.912 120.756 109.23 118.068 115.342C123.336 113.047 129.055 109.888 131.777 106.16C134.939 101.366 137.239 96.054 138.572 90.4649C142.487 73.4043 145.261 56.1007 146.875 38.6698C144.31 39.3761 141.666 39.9647 139.042 40.5925Z" fill="url(#paint10_linear_14_22)"/>
<g style="mix-blend-mode:multiply" opacity="0.35">
<path d="M104.556 113.302C98.2108 108.848 95.4495 101.648 93.8045 94.3692C92.0616 86.7176 90.5733 78.968 89.2612 71.2379C88.0099 62.3235 86.1716 53.5017 83.7582 44.8303C81.9957 39.0818 80.1549 33.3137 78.8428 27.4279C69.0511 27.6829 58.809 27.6045 48.0186 27.0551C52.0527 35.825 60.8653 56.2487 62.4515 70.4728C64.5273 88.9935 70.4024 107.75 82.0349 118.835C93.6674 129.919 108.237 134.53 113.721 133.941C118.715 133.451 141.549 122.17 149.558 98.4304C148.912 99.3132 148.246 100.157 147.6 100.981C137.573 112.635 119.459 123.739 104.556 113.302Z" fill="#E69288"/>
</g>
<path style="mix-blend-mode:multiply" d="M105.065 41.5735C117.422 39.6115 129.818 37.6496 141.94 34.6086C148.207 33.0194 154.493 30.5474 160.838 28.7228C162.425 22.6015 164.501 17.6574 167.36 14.7342C167.36 14.7342 116.11 31.0967 44.6306 26.8786C44.6306 26.8786 49.1348 35.8838 53.4823 47.0865C70.7157 45.6543 87.9099 44.2025 105.065 41.5735Z" fill="url(#paint11_linear_14_22)"/>
<path d="M177.151 2.29547C177.151 2.29547 160.545 -3.23719 98.622 2.88405C49.7418 7.71041 33.6835 18.2068 33.6835 18.2068C33.6835 18.2068 53.6194 28.0165 102.578 22.1306C151.536 16.2448 167.83 9.80969 177.151 2.29547Z" fill="#FFDB0B"/>
<path d="M164.755 4.27702C164.755 4.27702 147.13 1.05944 100.13 5.72885C64.3314 9.26034 48.0968 16.7549 48.0968 16.7549C48.0968 16.7549 62.941 20.8554 102.754 16.3429C142.567 11.8305 157 8.73062 164.755 4.27702Z" fill="#C76632"/>
<path d="M102.754 16.343C128.33 13.4589 143.409 11.1438 153.005 8.67178C135.666 8.3788 118.327 9.18481 101.09 11.085C87.4028 12.2978 73.8463 14.6937 60.5715 18.246C74.6607 18.7585 88.768 18.1221 102.754 16.343Z" fill="#AB3D1C"/>
<path d="M33.6835 18.2068L39.1668 30.8417C39.1668 30.8417 68.7965 35.0991 113.897 29.9392C158.998 24.7793 172.98 17.0885 172.98 17.0885L177.151 2.29547C177.151 2.29547 151.243 16.7157 107.826 19.9529C64.4098 23.1901 42.026 21.3263 33.6835 18.2068Z" fill="url(#paint12_linear_14_22)"/>
<g style="mix-blend-mode:multiply" opacity="0.35">
<path d="M70.2261 22.2484C70.2261 22.0129 70.2261 21.7775 70.089 21.5421C50.6427 21.6794 39.1472 20.2472 33.6835 18.2068L39.1668 30.8417C50.4364 32.1513 61.7815 32.6954 73.1244 32.4701C71.959 29.1227 70.9913 25.7096 70.2261 22.2484Z" fill="#E69288"/>
</g>
<path style="mix-blend-mode:screen" opacity="0.32" d="M121.065 18.5207C120.125 22.1503 119.282 25.8191 118.264 29.4291C121.907 28.9778 125.334 28.5266 128.545 28.0361C129.466 24.3476 130.504 20.6396 131.15 16.9315C127.938 17.5201 124.57 18.0498 121.065 18.5207Z" fill="url(#paint13_linear_14_22)"/>
<path style="mix-blend-mode:screen" opacity="0.32" d="M143.918 14.2044C143.331 18.1283 142.43 22.0522 141.51 25.976C145.093 25.309 148.305 24.6419 151.203 24.0141C151.634 21.4832 152.085 18.9523 152.574 16.4214C152.868 14.8519 153.24 13.2627 153.612 11.6735C150.636 12.4975 147.404 13.3412 143.918 14.2044Z" fill="url(#paint14_linear_14_22)"/>
<path d="M171.1 49.6174C171.028 49.9131 170.888 50.188 170.692 50.4203C170.496 50.6526 170.248 50.836 169.969 50.9559C169.69 51.0758 169.386 51.129 169.083 51.1112C168.78 51.0934 168.485 51.0052 168.221 50.8534C166.4 50.0686 166.263 46.3606 170.689 45.3796C174.605 44.5164 178.189 50.7357 173.098 54.1887C168.006 57.6417 156.354 58.8581 157.862 45.8701C158.41 41.1222 163.56 31.9011 171.453 26.2507C180.755 19.5998 194.953 14.2633 205.293 21.5421C214.125 27.7222 216.259 40.4944 212.891 50.2256C209.873 58.845 204.349 66.3616 197.028 71.8069C187.746 78.4775 176.055 82.9703 172.02 85.2854C166.792 88.3068 158.449 93.1332 155.903 99.019C153.945 103.414 155.296 108.711 160.153 107.141C160.525 107.029 160.864 106.827 161.14 106.553C161.416 106.28 161.622 105.943 161.739 105.572C161.813 105.402 161.847 105.217 161.839 105.032C161.831 104.846 161.781 104.665 161.692 104.502C161.603 104.339 161.478 104.199 161.327 104.092C161.175 103.985 161.002 103.914 160.819 103.885C160.819 103.885 160.29 105.847 158.567 104.846C157.372 104.1 157.901 102.158 158.567 101.314C158.879 100.969 159.264 100.698 159.695 100.522C160.125 100.345 160.589 100.267 161.054 100.294C167.203 100.687 166.087 106.592 164.716 108.574C164.028 109.591 163.099 110.421 162.012 110.989C160.925 111.558 159.714 111.847 158.488 111.83C157.174 111.857 155.871 111.572 154.687 111C153.503 110.427 152.47 109.583 151.673 108.535C150.875 107.488 150.335 106.267 150.097 104.971C149.859 103.676 149.93 102.342 150.302 101.079C152.378 92.7212 159.33 84.8538 176.916 72.317C194.091 60.1138 198.262 48.7738 194.855 40.4748C190.762 30.6651 178.17 33.863 173.313 37.5907C168.456 41.3184 162.542 48.0871 166.85 51.7559C167.495 52.1482 168.239 52.3458 168.993 52.3249C169.746 52.3041 170.478 52.0656 171.1 51.6382C171.362 51.3673 171.509 51.005 171.509 50.6278C171.509 50.2506 171.362 49.8883 171.1 49.6174Z" fill="url(#paint15_linear_14_22)"/>
<path style="mix-blend-mode:multiply" opacity="0.55" d="M170.689 45.3796C166.224 46.3606 166.4 50.0686 168.221 50.8534C168.485 51.0051 168.78 51.0934 169.083 51.1112C169.386 51.129 169.69 51.0758 169.969 50.9559C170.248 50.836 170.496 50.6526 170.692 50.4203C170.888 50.188 171.028 49.9131 171.1 49.6174C171.345 49.8852 171.481 50.2352 171.481 50.5984C171.481 50.9616 171.345 51.3116 171.1 51.5793C170.478 52.0067 169.746 52.2452 168.993 52.2661C168.239 52.287 167.495 52.0894 166.851 51.6971C162.542 48.0282 168.378 41.2792 173.313 37.5319C173.629 37.3007 173.956 37.0846 174.292 36.8844C172.124 35.4875 170.367 33.5371 169.201 31.234C168.83 30.4623 168.522 29.6619 168.28 28.8405C162.19 34.4124 158.312 41.7893 157.842 45.8701C156.334 58.8581 167.928 57.6417 173.078 54.1887C178.228 50.7357 174.606 44.5164 170.689 45.3796Z" fill="url(#paint16_linear_14_22)"/>
<g style="mix-blend-mode:multiply" opacity="0.32">
<g style="mix-blend-mode:multiply">
<path d="M194.6 29.8803C191.349 27.781 185.827 28.4677 182.439 30.0765C175.173 33.4706 173.313 37.5515 173.254 37.5907C178.17 33.863 190.762 30.567 194.796 40.4748C198.204 48.7738 194.032 60.0941 176.858 72.317C165.832 80.1647 158.978 86.1879 154.905 91.6617C163.86 84.7251 173.356 78.5186 183.301 73.1018C190.135 69.531 198.967 62.0561 201.474 54.738C203.197 49.9509 205.959 37.2768 194.6 29.8803Z" fill="#E69288"/>
</g>
</g>
<path style="mix-blend-mode:screen" opacity="0.75" d="M194.6 29.8803C195.783 30.643 196.885 31.5238 197.89 32.5093C200.749 29.174 203.178 25.4856 205.724 21.9933L205.195 21.5617C201.918 19.3138 198.043 18.1039 194.071 18.0891C192.838 21.0712 191.663 24.0926 190.155 26.9178L189.293 28.5658C191.151 28.4903 192.992 28.9463 194.6 29.8803Z" fill="url(#paint17_linear_14_22)"/>
<g style="mix-blend-mode:screen">
<path style="mix-blend-mode:screen" opacity="0.32" d="M202.943 48.3225C202.731 50.5099 202.257 52.6638 201.533 54.7381C201.031 56.1162 200.374 57.4326 199.574 58.6619C202.629 58.7993 205.665 58.917 208.72 58.917C210.392 56.1867 211.771 53.2864 212.832 50.2649C213.581 48.0423 214.055 45.7362 214.242 43.3981C210.561 45.2292 206.79 46.8728 202.943 48.3225Z" fill="url(#paint18_linear_14_22)"/>
</g>
<path d="M44.2976 62.782C44.4081 63.0654 44.5828 63.3193 44.808 63.5234C45.0332 63.7276 45.3028 63.8765 45.5953 63.9583C45.8878 64.0401 46.1953 64.0527 46.4935 63.9949C46.7917 63.9372 47.0725 63.8108 47.3135 63.6256C49.0368 62.625 48.7235 58.8974 44.1606 58.5246C40.146 58.1911 37.4239 64.8224 42.9268 67.5691C48.4297 70.3158 60.121 70.0019 56.9289 57.3278C55.7735 52.6976 49.4481 44.2221 40.9097 39.6704C30.8047 34.3143 16.1172 30.8809 6.73672 39.4546C-1.21414 46.753 -1.66456 59.7017 2.95712 68.8836C7.063 77.0769 13.5399 83.8392 21.5418 88.2872C31.6272 93.7217 43.7885 96.5862 48.1164 98.3715C53.6781 100.667 62.569 104.375 65.8785 109.888C68.3461 113.969 67.8369 119.403 62.7256 118.481C62.3434 118.419 61.9819 118.265 61.6716 118.033C61.3614 117.801 61.1116 117.497 60.9435 117.147C60.8497 116.986 60.7935 116.806 60.7791 116.62C60.7647 116.434 60.7924 116.248 60.8602 116.074C60.928 115.9 61.0342 115.744 61.1707 115.618C61.3072 115.491 61.4706 115.397 61.6485 115.342C61.6485 115.342 62.4319 117.304 63.9985 115.99C65.0952 115.107 64.3119 113.243 63.4306 112.517C63.0732 112.212 62.6515 111.991 62.1971 111.872C61.7426 111.754 61.2672 111.739 60.8064 111.83C54.7552 113.027 56.6352 118.736 58.2606 120.522C59.0887 121.448 60.1362 122.151 61.3065 122.566C62.4769 122.981 63.7326 123.094 64.9581 122.896C66.2708 122.754 67.5311 122.302 68.6354 121.577C69.7397 120.851 70.6565 119.874 71.3103 118.725C71.9641 117.576 72.3364 116.288 72.3964 114.966C72.4564 113.645 72.2026 112.328 71.6556 111.124C68.5419 103.041 60.591 96.1349 41.4972 86.0506C22.893 76.2016 17.2726 65.5091 19.5834 56.8962C22.3251 46.5371 35.2501 48.1459 40.616 51.2066C45.9818 54.2672 52.6598 60.1726 48.8802 64.3908C48.2934 64.8663 47.5821 65.1618 46.8316 65.2419C46.0812 65.3219 45.3237 65.1831 44.6502 64.842C44.4892 64.7323 44.3519 64.5911 44.2466 64.4271C44.1412 64.263 44.07 64.0793 44.0371 63.887C44.0042 63.6947 44.0103 63.4978 44.0551 63.3079C44.0998 63.1181 44.1823 62.9392 44.2976 62.782Z" fill="url(#paint19_linear_14_22)"/>
<path style="mix-blend-mode:multiply" opacity="0.55" d="M56.929 57.3278C55.7736 52.6976 49.4482 44.2221 40.9098 39.6704C37.8383 38.0404 34.6103 36.7258 31.2748 35.7465C32.7444 40.0956 33.8578 44.5574 34.604 49.0877C36.6964 49.4034 38.7217 50.0665 40.5965 51.0496C45.9819 54.1102 52.6403 60.0157 48.8607 64.2338C48.2739 64.7093 47.5626 65.0049 46.8121 65.0849C46.0617 65.165 45.3042 65.0261 44.6307 64.6851C44.3362 64.462 44.1377 64.1348 44.0759 63.7702C44.014 63.4056 44.0934 63.0311 44.2977 62.7231C44.4082 63.0066 44.5829 63.2604 44.8081 63.4646C45.0333 63.6687 45.3028 63.8176 45.5954 63.8994C45.8879 63.9813 46.1954 63.9938 46.4936 63.9361C46.7918 63.8783 47.0725 63.7519 47.3136 63.5668C49.0369 62.5662 48.7236 58.8385 44.1606 58.4657C40.1461 58.1322 37.424 64.7635 42.9269 67.5103C48.4298 70.257 60.1211 70.0019 56.929 57.3278Z" fill="url(#paint20_linear_14_22)"/>
<path d="M108.257 200.902L109.961 207.475C115.771 208.724 121.81 208.392 127.449 206.514L128.937 198.98C122.137 200.395 115.201 201.04 108.257 200.902Z" fill="#813200"/>
<path d="M110.02 201.942L111.371 206.572C116.272 207.392 121.294 207.084 126.058 205.67L127.41 200.314C121.679 201.417 115.855 201.963 110.02 201.942Z" fill="#722B00"/>
<g style="mix-blend-mode:multiply" opacity="0.32">
<g style="mix-blend-mode:multiply">
<path d="M17.4489 47.4004C20.2297 44.7126 25.7914 44.3202 29.3751 45.1246C37.2085 47.0865 39.7935 50.6768 39.8523 50.7161C34.2906 48.0086 21.3068 47.2435 19.2309 57.7594C17.6251 66.7059 23.9505 76.7902 41.9673 86.5214C53.541 92.7996 61.159 96.802 67.6607 104.395C66.0352 103.492 61.9619 99.9215 56.4785 96.9001C50.0278 93.5691 43.3299 90.7421 36.4447 88.4441C28.0435 85.4816 19.4659 79.0661 15.5297 72.3759C12.9838 68.0007 7.83342 56.8962 17.4489 47.4004Z" fill="#E69288"/>
</g>
</g>
<path style="mix-blend-mode:screen" opacity="0.75" d="M41.4972 86.0506C35.8306 83.2053 30.6329 79.5066 26.0851 75.0833C30.7895 79.6692 36.1568 83.5186 42.0064 86.5018C47.5093 89.5036 52.131 91.9756 56.1456 94.5654C51.4106 91.4792 46.5214 88.6373 41.4972 86.0506Z" fill="url(#paint21_linear_14_22)"/>
<path style="mix-blend-mode:screen" opacity="0.32" d="M17.4684 47.4004C18.6673 46.3251 20.1252 45.5813 21.6984 45.2423C21.0913 43.8885 20.4842 42.5152 19.8967 41.1418C18.9567 38.9641 18.0951 36.7471 17.1159 34.5693C13.2516 35.1386 9.64094 36.838 6.73669 39.4546C5.84528 40.2869 5.03239 41.1998 4.30835 42.1817C8.79485 43.6571 13.1894 45.3998 17.4684 47.4004Z" fill="url(#paint22_linear_14_22)"/>
<path style="mix-blend-mode:screen" opacity="0.32" d="M12.3964 64.7439C11.86 62.5837 11.701 60.3468 11.9264 58.1322C8.10983 56.3562 4.18538 54.8228 0.176351 53.5413C-0.190777 57.5165 0.269337 61.5249 1.5276 65.3129C5.13095 65.2736 8.77346 65.0774 12.3964 64.7439Z" fill="url(#paint23_linear_14_22)"/>
<path style="mix-blend-mode:screen" opacity="0.75" d="M64.214 100.804C65.4149 101.93 66.5587 103.115 67.6411 104.355C66.5813 103.094 65.4362 101.908 64.214 100.804Z" fill="url(#paint24_linear_14_22)"/>
<path d="M299.802 121.522C299.802 121.522 252.802 58.5834 178.385 97.8418C141.98 117.049 137.26 183.284 172.961 216.578C200.749 242.495 267.196 249.225 295.944 211.771C332.369 164.391 302.935 125.211 299.802 121.522Z" fill="#E2DDC8"/>
<path d="M313.471 171.807C313.924 168.17 314.081 164.502 313.941 160.84C313.567 151.82 311.452 142.959 307.714 134.746L290.813 121.012L283.509 105.533L281.355 103.983L290.128 122.248L280.708 139.906L247.025 134.02L221.782 109.986L235.804 96.0172L263.632 101.354L267.685 95.3109C266.767 94.9454 265.882 94.4989 265.042 93.9768C263.945 93.4471 262.848 92.937 261.732 92.4465C259.617 91.5244 257.482 90.6611 255.328 89.9156C250.865 88.3385 246.28 87.1311 241.62 86.3056C232.434 84.5898 223.024 84.4505 213.792 85.8936L233.904 95.3305L220.92 109.241L187.315 119.541L170.865 116.009L181.029 96.5273C173.723 100.063 167.34 105.256 162.386 111.693C157.41 118.398 153.748 125.987 151.595 134.059L170.219 116.892L186.904 120.463L187.864 151.854L170.571 175.868L152.751 167.216L148.481 155.837C148.481 157.112 148.481 158.407 148.481 159.761L151.673 167.746L151.164 178.889C155.081 194.722 163.815 209.829 176.818 219.953L189.117 212.36L224.543 222.523L245.752 237.434C258.932 236.041 272.522 231.96 283.274 223.975L282.001 198.98L295.709 171.826L313.471 171.807ZM225.209 220.953L188.98 210.575L172.099 177.222L189.195 153.267L226.404 164.528L226.619 164.253L243.755 194.369L225.209 220.953ZM280.728 197.41L245.086 193.153L227.579 163.057L247.338 135.962L280.043 141.456L294.515 171.042L280.728 197.41Z" fill="url(#paint25_linear_14_22)"/>
<g style="mix-blend-mode:multiply">
<path d="M306.989 186.247C296.904 190.641 284.938 191.465 274.07 191.936C252.352 192.878 228.44 191.936 207.995 183.814C199.214 180.122 191.406 174.441 185.185 167.218C178.964 159.994 174.498 151.425 172.138 142.182C169.906 132.372 169.906 122.366 169.533 112.419C169.533 110.987 169.533 109.496 169.533 108.024C168.043 109.446 166.65 110.967 165.362 112.576C160.826 118.394 157.352 124.97 155.1 131.999C150.492 146.498 149.897 161.979 153.377 176.79C153.514 177.398 153.671 178.007 153.828 178.615C157.201 192.885 164.725 205.831 175.448 215.813C185.239 224.446 197.479 229.802 209.973 232.862C221.534 235.71 233.497 236.546 245.341 235.334C260.087 233.784 274.716 228.683 286.074 218.834C291.727 213.734 296.544 207.775 300.35 201.177C303.23 196.391 305.612 191.323 307.459 186.05L306.989 186.247Z" fill="#BFC0AC"/>
</g>
<path d="M107.415 154.581C107.415 154.581 84.3458 152.207 76.0816 147.028C70.0891 143.261 67.6803 140.573 66.0157 134.138C64.3511 127.702 65.0365 120.267 56.4982 122.935C45.4923 126.368 46.0211 134.844 50.349 147.028C54.6769 159.211 74.9457 168.609 90.9649 165.823C106.984 163.037 107.278 159.898 107.415 154.581Z" fill="url(#paint26_linear_14_22)"/>
<path d="M37.3065 213.851C37.3065 213.851 35.074 223.661 37.1694 225.23C40.03 226.857 43.1737 227.922 46.4323 228.369C47.1713 228.355 47.8885 228.116 48.4896 227.686C49.0908 227.255 49.5479 226.652 49.8007 225.956L52.3465 219.403C47.1728 218.022 42.1379 216.163 37.3065 213.851Z" fill="url(#paint27_linear_14_22)"/>
<path d="M68.3461 222.464C68.3461 222.464 66.9165 232.274 69.1295 233.824C72.1194 235.203 75.3411 236.008 78.6274 236.198C79.3523 236.1 80.0319 235.789 80.5795 235.303C81.127 234.818 81.5178 234.18 81.702 233.471L83.6603 226.721C78.4372 225.771 73.3114 224.346 68.3461 222.464Z" fill="url(#paint28_linear_14_22)"/>
<path d="M116.521 235.001C116.521 235.001 115.072 244.81 117.305 246.36C120.293 247.743 123.516 248.548 126.803 248.734C127.535 248.659 128.227 248.364 128.79 247.888C129.352 247.412 129.759 246.777 129.955 246.066L131.914 239.317C126.662 238.355 121.509 236.91 116.521 235.001Z" fill="url(#paint29_linear_14_22)"/>
<path d="M143.918 241.868C143.918 241.868 142.489 251.677 144.702 253.227C147.692 254.607 150.913 255.412 154.2 255.601C154.932 255.525 155.625 255.23 156.187 254.754C156.75 254.278 157.156 253.644 157.353 252.933L159.311 246.184C154.059 245.219 148.907 243.774 143.918 241.868Z" fill="url(#paint30_linear_14_22)"/>
<path d="M168.123 246.89C168.123 246.89 170.689 256.523 173.333 257.014C176.622 257.102 179.899 256.562 182.987 255.425C183.63 255.067 184.149 254.524 184.478 253.866C184.806 253.208 184.928 252.465 184.828 251.736L184.025 244.752C178.802 245.955 173.479 246.671 168.123 246.89Z" fill="url(#paint31_linear_14_22)"/>
<path d="M210.11 233.215C207.759 235.245 205.049 236.815 202.12 237.846C199.692 238.728 197.264 239.553 194.796 240.22C195.854 242.613 198.967 249.225 201.259 249.343C204.526 248.941 207.685 247.908 210.561 246.302C211.179 245.677 211.637 244.912 211.896 244.071C212.155 243.231 212.208 242.34 212.049 241.475L210.11 233.215Z" fill="url(#paint32_linear_14_22)"/>
<path d="M48.4102 130.312C48.4102 130.312 23.7939 151.599 27.1622 181.852C27.1622 181.852 32.5672 201.275 31.6272 202.59C30.4604 205.557 29.9525 208.744 30.1389 211.928C30.511 213.89 62.569 229.429 85.5011 228.428C85.5011 228.428 92.4141 216.931 100.424 222.543C108.433 228.154 110.117 240.2 155.257 247.106C200.397 254.012 225.15 226.447 220.587 217.677C216.024 208.907 182.948 200.549 168.065 190.838C153.181 181.126 133.167 169.845 126.567 162.703C126.567 162.703 111.195 169.845 105.32 168.589C99.4445 167.334 92.8645 165.509 87.1461 165.646C81.4278 165.784 62.2556 162.998 56.2435 154.581C51.2627 147.461 48.5334 139.005 48.4102 130.312Z" fill="url(#paint33_linear_14_22)"/>
<g style="mix-blend-mode:multiply">
<path d="M220.568 217.657C218.962 214.577 213.831 211.556 207.192 208.495C205.556 210.067 203.801 211.51 201.944 212.811C193.053 218.933 183.007 220.659 172.393 219.56C160.498 218.206 149.122 213.926 139.277 207.102C130.367 201.216 122.044 197.842 111.214 198.823C88.282 200.785 63.0194 202.55 46.589 182.99C40.4532 175.237 35.2597 166.781 31.1181 157.799C30.9223 157.387 30.7264 156.975 30.511 156.563C27.6863 163.807 26.4507 171.575 26.8881 179.341C39.0494 190.74 47.9794 205.238 50.1336 221.542C60.924 225.466 74.2799 228.919 85.3836 228.428C85.3836 228.428 92.2966 216.931 100.306 222.542C108.316 228.154 110 240.2 155.14 247.106C200.279 254.012 225.209 226.368 220.568 217.657Z" fill="#36DDC8"/>
</g>
<path d="M220.568 217.657C219.491 215.578 216.749 213.518 213.048 211.438C208.034 220.816 202.003 229.095 190.977 233.235C172.412 240.298 151.478 236.472 133.187 230.273C124.112 227.243 115.392 223.237 107.18 218.324C102.715 215.636 98.6612 213.223 93.2758 213.969C88.995 214.896 84.6463 215.473 80.2724 215.695C70.7135 215.229 61.2547 213.528 52.1311 210.634C47.3332 209.34 42.6755 207.573 38.2269 205.356C36.0531 204.198 33.9381 203.021 31.7448 202.04C31.752 202.23 31.7116 202.419 31.6273 202.59C30.4604 205.557 29.9526 208.744 30.1389 211.928C30.511 213.89 62.569 229.429 85.5012 228.428C85.5012 228.428 92.4141 216.931 100.424 222.543C108.433 228.154 110.117 240.2 155.257 247.106C200.397 254.012 225.209 226.368 220.568 217.657Z" fill="url(#paint34_linear_14_22)"/>
<path d="M88.3994 165.823C92.5009 165.343 96.3118 163.461 99.1904 160.495C102.069 157.529 103.839 153.66 104.203 149.539C106.299 134.275 116.227 141.416 118.323 148.558C120.418 155.699 139.571 173.259 161.837 186.855C161.837 186.855 158.175 193.741 148.52 192.191C138.866 190.641 126.293 180.851 114.954 175.24C103.616 169.629 91.7482 167.039 88.3994 165.823Z" fill="url(#paint35_linear_14_22)"/>
<path style="mix-blend-mode:multiply" opacity="0.55" d="M118.734 177.241C122.759 175.176 127.03 173.634 131.444 172.65C133.931 171.983 136.359 171.081 138.905 170.59C137.143 169.158 135.439 167.746 133.833 166.353C133.579 166.749 133.21 167.057 132.776 167.236C132.342 167.415 131.863 167.456 131.405 167.353C125.138 166.137 119.517 168.53 114.132 171.277C114.206 171.712 114.148 172.159 113.967 172.561C113.785 172.963 113.488 173.301 113.114 173.533L112.311 174.004C113.192 174.416 114.073 174.789 114.955 175.221C116.208 175.868 117.5 176.574 118.734 177.241Z" fill="url(#paint36_linear_14_22)"/>
<path style="mix-blend-mode:multiply" opacity="0.55" d="M147.189 177.026L143.997 174.612C140.884 175.516 137.727 176.256 134.538 176.829C130.885 177.662 127.293 178.744 123.787 180.067L130.856 184.422C135.968 181.277 141.455 178.792 147.189 177.026Z" fill="url(#paint37_linear_14_22)"/>
<path style="mix-blend-mode:multiply" opacity="0.55" d="M153.945 181.734L151.987 180.439C146.345 182.161 140.866 184.38 135.615 187.071C138.291 188.592 141.08 189.904 143.958 190.995C146.655 187.287 150.047 184.142 153.945 181.734Z" fill="url(#paint38_linear_14_22)"/>
<path style="mix-blend-mode:multiply" opacity="0.55" d="M152.104 191.25L150.596 192.388C152.795 192.58 155.005 192.166 156.987 191.191C158.968 190.216 160.645 188.716 161.837 186.855L160.408 185.952C157.521 187.524 154.747 189.294 152.104 191.25Z" fill="url(#paint39_linear_14_22)"/>
<g style="mix-blend-mode:overlay" opacity="0.75">
<path d="M87.3811 187.483H87.479C91.3957 186.266 90.6124 181.911 87.479 180.851C82.0936 179.066 76.6298 176.927 73.9861 174.966C66.7206 169.354 49.4089 153.679 47.5289 163.763C45.6489 173.847 60.5127 185.638 71.8906 187.62C77.0075 188.654 82.2833 188.607 87.3811 187.483Z" fill="#E2DDC8"/>
</g>
<g style="mix-blend-mode:overlay" opacity="0.75">
<path d="M189.45 204.277C187.178 202.57 173.352 196.056 167.516 192.348C162.542 189.209 148.129 196.527 158.802 203.06C169.475 209.594 197.185 210.065 189.45 204.277Z" fill="#E2DDC8"/>
</g>
<g style="mix-blend-mode:overlay" opacity="0.75">
<path d="M200.005 209.927C200.142 210.947 199.085 211.889 197.283 211.889C194.972 211.889 192.524 210.516 192.524 208.907C192.524 207.298 194.757 206.847 196.931 207.436C197.618 207.54 198.264 207.826 198.805 208.264C199.345 208.702 199.759 209.276 200.005 209.927Z" fill="#E2DDC8"/>
</g>
<path d="M102.441 184.638C105.718 184.638 108.374 182.152 108.374 179.086C108.374 176.019 105.718 173.533 102.441 173.533C99.1636 173.533 96.507 176.019 96.507 179.086C96.507 182.152 99.1636 184.638 102.441 184.638Z" fill="url(#paint40_linear_14_22)"/>
<path d="M123.826 186.384C123.965 187.464 123.772 188.562 123.273 189.529C122.774 190.497 121.992 191.289 121.032 191.8C120.072 192.312 118.979 192.517 117.899 192.39C116.82 192.263 115.804 191.809 114.988 191.089C114.173 190.368 113.596 189.416 113.334 188.359C113.073 187.301 113.139 186.189 113.525 185.171C113.911 184.152 114.597 183.276 115.493 182.658C116.389 182.041 117.451 181.712 118.538 181.715C119.856 181.639 121.15 182.087 122.139 182.961C123.129 183.835 123.735 185.065 123.826 186.384Z" fill="url(#paint41_linear_14_22)"/>
<path d="M137.084 193.565C137.211 194.561 137.032 195.573 136.571 196.465C136.11 197.357 135.389 198.088 134.504 198.559C133.618 199.03 132.61 199.22 131.614 199.103C130.618 198.986 129.681 198.568 128.928 197.904C128.176 197.24 127.643 196.363 127.4 195.388C127.158 194.413 127.217 193.387 127.571 192.447C127.925 191.507 128.557 190.698 129.381 190.126C130.206 189.555 131.185 189.249 132.188 189.248C133.408 189.173 134.608 189.585 135.525 190.394C136.443 191.203 137.003 192.343 137.084 193.565Z" fill="url(#paint42_linear_14_22)"/>
<path d="M149.206 199.961C149.333 200.957 149.154 201.969 148.693 202.861C148.233 203.753 147.511 204.484 146.626 204.955C145.74 205.426 144.732 205.616 143.736 205.499C142.74 205.382 141.803 204.964 141.051 204.3C140.298 203.636 139.765 202.759 139.522 201.784C139.28 200.809 139.339 199.783 139.693 198.843C140.047 197.903 140.679 197.094 141.503 196.522C142.328 195.951 143.307 195.645 144.31 195.644C145.53 195.569 146.73 195.981 147.647 196.79C148.565 197.599 149.125 198.739 149.206 199.961Z" fill="url(#paint43_linear_14_22)"/>
<path d="M132.462 165.254C132.462 165.254 100.58 166.451 100.15 177.771C99.7383 188.13 111.9 173.455 121.3 171.022C126.211 169.645 131.264 168.835 136.359 168.609L132.462 165.254Z" fill="#FFD000"/>
<path d="M141.451 172.65C141.451 172.65 118.284 177.143 117.5 185.952C116.717 194.761 129.466 179.655 136.457 177.693C143.448 175.731 144.408 174.926 144.408 174.926L141.451 172.65Z" fill="#FFD000"/>
<path d="M150.322 179.341C150.322 179.341 130.171 183.814 129.623 192.957C129.074 202.099 141.177 187.267 143.977 185.403C146.778 183.539 152.3 180.714 152.3 180.714L150.322 179.341Z" fill="#FFD000"/>
<path d="M158.312 184.638C158.312 184.638 140.57 194.703 143.272 200.333C145.975 205.964 149.539 191.073 160.643 186.031L158.312 184.638Z" fill="#FFD000"/>
<g style="mix-blend-mode:multiply" opacity="0.65">
<path d="M220.568 217.657C220.426 217.377 220.263 217.108 220.078 216.853L219.882 216.617L219.667 216.362L219.432 216.068C219.295 215.911 219.119 215.754 218.962 215.597L218.844 215.48L218.707 215.323C218.511 215.146 218.296 214.95 218.061 214.773C217.985 214.691 217.9 214.619 217.806 214.557L217.513 214.302L217.239 214.126L216.984 213.91L216.788 213.773L216.005 213.243L215.711 213.027L214.536 212.301L213.224 211.536L212.166 210.967L211.853 210.791C210.463 210.065 208.974 209.339 207.388 208.593C195.168 202.962 177.896 197.214 168.221 190.936C166.263 189.641 164.148 188.307 162.013 187.012L157.999 184.422C153.181 181.322 148.54 178.085 144.29 174.867L141.647 172.906C139.806 171.473 138.024 170.021 136.34 168.609L132.521 165.313C124.687 158.348 119.4 152.187 118.362 148.617C116.267 141.475 106.338 134.334 104.242 149.598C104.027 151.135 103.66 152.646 103.146 154.11C95.9586 153.031 82.1132 150.794 76.1011 147.028C70.089 143.261 67.6998 140.573 66.0352 134.138C64.3706 127.702 65.0561 120.267 56.5177 122.935C51.4456 124.505 48.8606 127.173 47.9206 130.783C39.7345 138.603 33.4961 148.239 29.7081 158.917C29.7081 159.113 29.5906 159.329 29.5122 159.545C29.3164 160.153 29.1206 160.781 28.9443 161.507C28.9443 161.762 28.8072 162.017 28.7289 162.272L28.2589 164.116L28.0826 164.92C27.9455 165.568 27.828 166.215 27.7105 166.882C27.7105 167.137 27.6126 167.392 27.5735 167.648C27.456 168.354 27.358 169.06 27.2601 169.786C27.2601 170.002 27.2601 170.198 27.2601 170.414C27.1622 171.257 27.0839 172.101 27.0447 172.964C27.0357 173.056 27.0357 173.148 27.0447 173.239C26.8641 176.124 26.9362 179.019 27.2601 181.891C27.2601 181.891 31.921 198.685 31.8426 202.08C31.8426 202.197 31.8426 202.315 31.8426 202.393C31.8569 202.465 31.8569 202.538 31.8426 202.609C31.3562 203.557 31.0255 204.577 30.8635 205.631C30.7656 206.101 30.6872 206.572 30.6089 207.063C30.5306 207.553 30.6089 207.553 30.6089 207.789C30.4545 208.874 30.376 209.969 30.3739 211.065C30.3501 211.359 30.3501 211.654 30.3739 211.948C30.3739 212.125 30.7264 212.419 31.2747 212.811L31.921 213.223C32.391 213.537 32.9785 213.871 33.6639 214.244C34.3493 214.616 35.1131 215.028 35.9552 215.44L37.0518 215.99C36.5231 218.933 35.8377 224.112 37.326 225.289C40.1866 226.916 43.3303 227.981 46.5889 228.428C47.3272 228.411 48.0432 228.172 48.6439 227.741C49.2445 227.311 49.7022 226.709 49.9573 226.015L51.5239 221.954L52.2289 222.209L52.9339 222.444L54.3244 222.915L55.1077 223.17L56.0085 223.465L56.459 223.602L57.3206 223.857L58.6523 224.269L59.5727 224.544L60.5127 224.818H60.8848L61.8836 225.093L63.1369 225.427L64.1944 225.682L65.4281 225.976L66.5248 226.231L67.7194 226.506H68.0915C67.9348 229.39 68.0915 232.823 69.2665 233.667C72.2564 235.046 75.4781 235.851 78.7644 236.041C79.4452 235.931 80.0814 235.632 80.6008 235.177C81.1201 234.723 81.5017 234.132 81.7019 233.471L83.2099 228.409H83.3665H85.5011C85.5011 228.409 92.414 216.912 100.424 222.523C104.85 225.564 107.356 230.645 116.325 235.746C116.051 238.003 115.327 245.164 117.207 246.419C120.195 247.802 123.418 248.607 126.705 248.793C127.437 248.718 128.13 248.422 128.692 247.947C129.254 247.471 129.661 246.836 129.857 246.125L131.13 241.868C134.695 242.947 138.788 244.006 143.507 244.987C143.272 248.028 143.194 252.325 144.604 253.286C147.594 254.665 150.815 255.471 154.102 255.66C154.834 255.584 155.527 255.289 156.089 254.813C156.652 254.337 157.058 253.703 157.255 252.992L158.88 247.577C161.798 247.91 164.638 248.107 167.379 248.165C167.712 248.165 168.045 248.165 168.398 248.165C169.181 250.755 171.178 256.719 173.254 257.112C176.544 257.2 179.82 256.661 182.909 255.523C183.551 255.166 184.071 254.622 184.399 253.964C184.728 253.306 184.85 252.563 184.75 251.834L184.182 246.812C188.303 246.028 192.347 244.879 196.265 243.378C197.694 246.125 199.672 249.264 201.258 249.401C204.526 249 207.685 247.967 210.561 246.36C211.179 245.736 211.637 244.971 211.896 244.13C212.155 243.29 212.208 242.399 212.049 241.534L210.6 235.393C217.18 230.273 220.803 224.642 221.096 220.62C221.208 219.602 221.024 218.574 220.568 217.657Z" fill="#AEB4BB"/>
</g>
<path d="M89.0849 166.235C89.0849 166.235 65.9569 164.469 57.5752 159.505C51.5044 155.896 49.0173 153.267 47.1764 146.871C45.3356 140.475 45.8448 133.137 37.3847 135.923C26.4768 139.651 27.221 148.107 31.8622 160.173C36.5035 172.238 57.0073 181.146 72.9873 177.83C88.9674 174.514 89.0849 171.571 89.0849 166.235Z" fill="url(#paint44_linear_14_22)"/>
<path d="M20.5626 227.369H20.4647C20.4647 227.369 18.5063 237.179 20.6213 238.768C23.53 240.317 26.7072 241.296 29.9822 241.652C30.7227 241.618 31.4356 241.36 32.0265 240.911C32.6175 240.463 33.0587 239.846 33.2918 239.141L35.681 232.529C30.4974 231.266 25.4377 229.539 20.5626 227.369Z" fill="url(#paint45_linear_14_22)"/>
<path style="mix-blend-mode:multiply" opacity="0.5" d="M35.6614 232.529C30.4845 231.265 25.4314 229.538 20.5626 227.369H20.4647C20.0379 229.577 19.7696 231.813 19.6617 234.059C23.6159 237.1 28.3929 238.878 33.3701 239.16L35.6614 232.529Z" fill="url(#paint46_linear_14_22)"/>
<path d="M51.7981 235.119C51.7981 235.119 50.6036 244.928 52.8752 246.459C55.9008 247.756 59.1423 248.475 62.4319 248.577C63.1603 248.481 63.843 248.168 64.3913 247.678C64.9396 247.188 65.3282 246.545 65.5065 245.831L67.3474 239.042C62.056 238.211 56.8514 236.897 51.7981 235.119Z" fill="url(#paint47_linear_14_22)"/>
<path style="mix-blend-mode:multiply" opacity="0.5" d="M65.8003 244.477L67.269 239.042C62.0042 238.206 56.826 236.893 51.7982 235.119C51.5176 237.56 51.439 240.021 51.5632 242.476C56.2632 246.282 61.0219 245.831 65.8003 244.477Z" fill="url(#paint48_linear_14_22)"/>
<path d="M100.287 246.38H100.189C100.189 246.38 99.0137 256.19 101.266 257.72C104.288 259.027 107.532 259.746 110.822 259.839C111.555 259.749 112.244 259.438 112.796 258.948C113.349 258.457 113.74 257.81 113.917 257.092L115.738 250.304C110.478 249.474 105.306 248.16 100.287 246.38Z" fill="url(#paint49_linear_14_22)"/>
<path style="mix-blend-mode:multiply" opacity="0.5" d="M115.738 250.304C110.478 249.474 105.306 248.16 100.287 246.38H100.189C99.9764 248.282 99.8718 250.195 99.8753 252.109C103.655 255.562 109.138 256.229 114.093 256.366L115.738 250.304Z" fill="url(#paint50_linear_14_22)"/>
<path d="M127.86 252.541H127.762C127.762 252.541 126.587 262.35 128.839 263.881C131.868 265.167 135.108 265.879 138.396 265.98C139.129 265.89 139.817 265.579 140.37 265.089C140.922 264.598 141.313 263.951 141.49 263.233L143.331 256.445C138.065 255.624 132.886 254.317 127.86 252.541Z" fill="url(#paint51_linear_14_22)"/>
<path style="mix-blend-mode:multiply" opacity="0.5" d="M141.627 262.743L143.331 256.445C138.064 255.617 132.885 254.304 127.86 252.521H127.762C127.51 254.781 127.425 257.056 127.508 259.329C132.208 262.291 135.87 262.684 141.627 262.743Z" fill="url(#paint52_linear_14_22)"/>
<path d="M152.202 257.014C152.202 257.014 155.022 266.588 157.685 267.02C160.971 267.014 164.227 266.388 167.281 265.175C167.92 264.803 168.43 264.246 168.745 263.577C169.06 262.907 169.164 262.158 169.044 261.428L168.045 254.463C162.854 255.804 157.551 256.658 152.202 257.014Z" fill="url(#paint53_linear_14_22)"/>
<path style="mix-blend-mode:multiply" opacity="0.5" d="M168.789 260.329L167.947 254.444C162.813 255.76 157.569 256.601 152.281 256.955C152.945 259.114 153.757 261.224 154.709 263.272C158.371 263.998 162.718 263.782 168.789 260.329Z" fill="url(#paint54_linear_14_22)"/>
<path d="M193.876 242.142C191.59 244.239 188.933 245.889 186.042 247.008C183.634 247.95 181.225 248.832 178.777 249.558C179.893 251.932 183.183 258.446 185.474 258.505C188.732 258.021 191.864 256.908 194.698 255.228C195.298 254.587 195.734 253.809 195.97 252.962C196.205 252.115 196.232 251.223 196.049 250.363L193.876 242.142Z" fill="url(#paint55_linear_14_22)"/>
<path style="mix-blend-mode:multiply" opacity="0.5" d="M181.734 255.052C186.806 254.601 192.289 252.776 195.619 249.009L193.876 242.142C191.59 244.239 188.933 245.889 186.042 247.008C183.634 247.95 181.225 248.832 178.777 249.558C179.635 251.456 180.623 253.291 181.734 255.052Z" fill="url(#paint56_linear_14_22)"/>
<path d="M29.4731 143.516C29.4731 143.516 5.42466 165.45 9.57634 195.605C9.57634 195.605 15.4514 214.871 14.5897 216.205C13.4914 219.215 13.0637 222.43 13.3363 225.623C13.7672 227.467 46.2169 242.26 69.1098 240.671C69.1098 240.671 75.7094 228.899 83.8757 234.314C92.042 239.729 94.0199 251.717 139.297 257.445C184.573 263.174 208.641 234.962 203.922 226.368C199.202 217.775 165.852 210.222 150.733 200.863C135.615 191.505 115.209 180.832 108.453 173.867C108.453 173.867 93.2562 181.401 87.3616 180.302C81.467 179.203 74.8282 177.536 69.1098 177.83C63.3915 178.124 44.1606 175.868 37.9331 167.589C32.7674 160.596 29.8198 152.208 29.4731 143.516Z" fill="url(#paint57_linear_14_22)"/>
<path style="mix-blend-mode:multiply" d="M203.844 226.309C202.159 223.288 196.95 220.424 190.253 217.52C188.651 219.134 186.93 220.622 185.102 221.974C176.555 227.988 166.106 230.661 155.727 229.488C143.801 228.455 132.316 224.478 122.298 217.912C113.231 212.262 104.83 209.103 94.0199 210.359C71.1661 213.008 45.9427 215.342 29.0618 196.213C22.7304 188.625 17.3263 180.306 12.9643 171.434L12.318 170.218C9.69161 177.539 8.6632 185.34 9.30219 193.094C21.7572 204.159 31.0593 218.442 33.6443 234.687C44.5327 238.297 57.9473 241.397 69.1098 240.573C69.1098 240.573 75.7094 228.801 83.8757 234.216C92.042 239.631 94.0199 251.618 139.297 257.347C184.573 263.076 208.641 234.922 203.844 226.309Z" fill="url(#paint58_linear_14_22)"/>
<path d="M203.844 226.309C202.708 224.348 199.927 222.386 196.186 220.306C191.408 229.821 185.592 238.199 174.645 242.672C156.295 250.206 135.243 246.929 116.815 241.22C107.657 238.443 98.8302 234.667 90.4949 229.959C85.9711 227.389 81.8586 225.093 76.4928 226.035C72.204 226.721 67.8956 227.997 63.5285 227.997C53.9557 227.774 44.4513 226.317 35.2501 223.661C30.4168 222.495 25.7127 220.845 21.2089 218.736C19.0155 217.638 16.8613 216.519 14.6288 215.597C14.6714 215.778 14.6714 215.966 14.6288 216.147C13.5087 219.172 13.0675 222.407 13.3363 225.623C13.7672 227.467 46.2168 242.26 69.1098 240.671C69.1098 240.671 75.7094 228.899 83.8757 234.314C92.042 239.729 94.0199 251.717 139.297 257.445C184.573 263.174 208.641 234.922 203.844 226.309Z" fill="url(#paint59_linear_14_22)"/>
<path d="M70.3632 177.967C74.4495 177.384 78.2101 175.406 81.0105 172.369C83.811 169.331 85.48 165.418 85.7361 161.291C87.4399 145.968 97.4861 152.855 99.8362 159.937C102.186 167.02 121.73 184.069 144.349 197.057C144.349 197.057 140.844 204.041 131.17 202.766C121.495 201.491 108.649 191.995 97.1728 186.698C85.6969 181.401 73.7511 179.086 70.3632 177.967Z" fill="url(#paint60_linear_14_22)"/>
<path style="mix-blend-mode:multiply" opacity="0.55" d="M100.208 188.169C102.537 186.719 105.063 185.616 107.709 184.893C112.056 183.657 116.247 182.127 120.595 181.165C118.636 179.713 116.893 178.281 115.209 176.869C110.92 178.007 105.907 178.831 102.186 180.91C99.4862 182.582 96.6417 184.006 93.687 185.168C94.862 185.639 96.037 186.149 97.212 186.698C98.1716 187.149 99.1899 187.659 100.208 188.169Z" fill="url(#paint61_linear_14_22)"/>
<path style="mix-blend-mode:multiply" opacity="0.55" d="M131.209 197.077C133.194 195.544 135.267 194.129 137.417 192.839L133.696 190.504C129.747 191.748 126.005 193.573 122.592 195.919C121.339 196.684 120.046 197.449 118.852 198.332C121.377 199.636 123.995 200.751 126.685 201.668C128.024 199.978 129.54 198.439 131.209 197.077Z" fill="url(#paint62_linear_14_22)"/>
<path style="mix-blend-mode:multiply" opacity="0.55" d="M134.577 200.51C133.684 201.216 132.852 201.997 132.09 202.845C134.484 203.177 136.924 202.796 139.103 201.749C141.283 200.703 143.108 199.037 144.349 196.959C143.546 196.508 142.783 196.037 141.999 195.566C139.414 197.04 136.934 198.692 134.577 200.51Z" fill="url(#paint63_linear_14_22)"/>
<path style="mix-blend-mode:multiply" opacity="0.55" d="M116.09 194.369C118.618 192.7 121.233 191.167 123.924 189.778C125.549 188.935 127.194 188.032 128.859 187.247L125.921 185.168C124.445 185.317 122.98 185.559 121.535 185.894C119.752 187.993 117.07 188.66 114.641 189.817C112.471 190.607 110.358 191.544 108.316 192.623C110.274 193.781 112.389 194.938 114.387 196.037C114.872 195.402 115.445 194.84 116.09 194.369Z" fill="url(#paint64_linear_14_22)"/>
<g style="mix-blend-mode:overlay" opacity="0.75">
<path d="M69.9128 199.666C73.8294 198.332 72.8894 194.016 69.6973 193.055C64.8965 191.839 60.2843 189.971 55.989 187.502C48.7431 182.048 31.0397 166.765 29.3752 176.947C27.7106 187.13 43.0835 198.509 54.4419 200.118C59.5739 201.048 64.8435 200.895 69.9128 199.666Z" fill="#E2DDC8"/>
</g>
<g style="mix-blend-mode:overlay" opacity="0.75">
<path d="M172.334 213.851C170.023 212.203 156.021 206.003 150.087 202.492C145.054 199.49 130.817 207.181 141.666 213.42C152.515 219.658 180.285 219.364 172.334 213.851Z" fill="#E2DDC8"/>
</g>
<g style="mix-blend-mode:overlay" opacity="0.75">
<path d="M183.085 219.05C183.261 220.07 182.204 221.012 180.422 221.012C178.111 221.012 175.624 219.776 175.585 218.167C175.546 216.559 177.758 216.029 179.952 216.578C180.647 216.671 181.305 216.95 181.856 217.385C182.407 217.82 182.832 218.395 183.085 219.05Z" fill="#E2DDC8"/>
</g>
<path d="M90.7103 190.72C90.8071 191.891 90.552 193.064 89.9777 194.088C89.4035 195.112 88.5365 195.941 87.4882 196.467C86.44 196.994 85.2584 197.194 84.0956 197.042C82.9329 196.89 81.8421 196.393 80.9636 195.615C80.0852 194.837 79.4593 193.813 79.1665 192.675C78.8737 191.538 78.9273 190.339 79.3205 189.232C79.7138 188.125 80.4286 187.162 81.373 186.465C82.3174 185.769 83.4482 185.372 84.6199 185.325C85.3737 185.277 86.1296 185.379 86.8441 185.624C87.5585 185.869 88.2176 186.254 88.7835 186.755C89.3493 187.256 89.8108 187.865 90.1415 188.545C90.4721 189.225 90.6654 189.965 90.7103 190.72Z" fill="url(#paint65_linear_14_22)"/>
<path d="M106.338 197.626C106.509 198.702 106.348 199.804 105.878 200.786C105.407 201.768 104.649 202.582 103.704 203.122C102.76 203.661 101.673 203.898 100.59 203.803C99.5075 203.708 98.4792 203.284 97.6428 202.588C96.8063 201.893 96.2015 200.958 95.909 199.909C95.6164 198.86 95.6501 197.746 96.0054 196.717C96.3607 195.688 97.0208 194.791 97.8977 194.148C98.7746 193.504 99.8265 193.143 100.913 193.113C102.228 192.999 103.536 193.408 104.551 194.253C105.567 195.098 106.209 196.31 106.338 197.626Z" fill="url(#paint66_linear_14_22)"/>
<path d="M119.694 204.414C119.848 205.407 119.698 206.423 119.262 207.328C118.826 208.232 118.125 208.982 117.252 209.478C116.38 209.974 115.378 210.191 114.379 210.102C113.38 210.013 112.432 209.621 111.661 208.978C110.891 208.335 110.333 207.473 110.064 206.505C109.795 205.537 109.826 204.511 110.154 203.561C110.482 202.612 111.091 201.785 111.899 201.191C112.708 200.597 113.678 200.263 114.68 200.235C115.284 200.179 115.892 200.242 116.471 200.421C117.05 200.601 117.588 200.893 118.053 201.282C118.519 201.67 118.904 202.146 119.185 202.684C119.467 203.222 119.64 203.81 119.694 204.414Z" fill="url(#paint67_linear_14_22)"/>
<path d="M132.051 210.496C132.206 211.489 132.055 212.505 131.619 213.41C131.183 214.314 130.482 215.064 129.61 215.56C128.737 216.056 127.735 216.273 126.736 216.184C125.737 216.095 124.789 215.703 124.019 215.06C123.248 214.417 122.691 213.555 122.421 212.587C122.152 211.619 122.183 210.592 122.511 209.643C122.839 208.694 123.448 207.867 124.256 207.273C125.065 206.679 126.035 206.345 127.038 206.317C128.255 206.208 129.466 206.587 130.405 207.37C131.345 208.153 131.937 209.277 132.051 210.496Z" fill="url(#paint68_linear_14_22)"/>
<path d="M114.406 176.241C114.406 176.241 82.5636 178.203 82.4265 189.602C82.2503 199.98 94.0003 184.971 103.4 182.303C108.273 180.806 113.298 179.864 118.382 179.498L114.406 176.241Z" fill="#FFD000"/>
<path d="M123.591 183.48C123.591 183.48 100.561 188.503 99.8753 197.351C99.1899 206.2 111.625 190.72 118.617 188.581C125.608 186.443 126.45 185.599 126.45 185.599L123.591 183.48Z" fill="#FFD000"/>
<path d="M132.619 189.857C132.619 189.857 112.605 194.86 112.291 204.041C111.978 213.223 123.689 198.038 126.45 196.194C129.211 194.349 134.655 191.269 134.655 191.269L132.619 189.857Z" fill="#FFD000"/>
<path d="M140.746 194.958C140.746 194.958 123.278 205.474 126.137 211.104C128.996 216.735 132.168 201.687 143.135 196.351L140.746 194.958Z" fill="#FFD000"/>
</g>
<defs>
<linearGradient id="paint0_linear_14_22" x1="124.11" y1="171.407" x2="111.325" y2="187.246" gradientUnits="userSpaceOnUse">
<stop stop-color="#FFCF61"/>
<stop offset="0.22" stop-color="#F6D019"/>
<stop offset="0.27" stop-color="#F4D008"/>
<stop offset="1" stop-color="#FC8008"/>
</linearGradient>
<linearGradient id="paint1_linear_14_22" x1="126.334" y1="173.482" x2="110.144" y2="193.52" gradientUnits="userSpaceOnUse">
<stop stop-color="#FFCF61"/>
<stop offset="0.22" stop-color="#F6D019"/>
<stop offset="0.27" stop-color="#F4D008"/>
<stop offset="1" stop-color="#FC8008"/>
</linearGradient>
<linearGradient id="paint2_linear_14_22" x1="124.562" y1="184.856" x2="130.202" y2="184.293" gradientUnits="userSpaceOnUse">
<stop stop-color="white"/>
<stop offset="0.31" stop-color="#FEDAB6"/>
<stop offset="1" stop-color="#FC8008"/>
</linearGradient>
<linearGradient id="paint3_linear_14_22" x1="126.34" y1="161.057" x2="109.377" y2="182.082" gradientUnits="userSpaceOnUse">
<stop stop-color="#FFCF61"/>
<stop offset="0.22" stop-color="#F6D019"/>
<stop offset="0.27" stop-color="#F4D008"/>
<stop offset="1" stop-color="#FC8008"/>
</linearGradient>
<linearGradient id="paint4_linear_14_22" x1="119.502" y1="155.56" x2="102.556" y2="176.564" gradientUnits="userSpaceOnUse">
<stop stop-color="#FFCF61"/>
<stop offset="0.22" stop-color="#F6D019"/>
<stop offset="0.27" stop-color="#F4D008"/>
<stop offset="1" stop-color="#FC8008"/>
</linearGradient>
<linearGradient id="paint5_linear_14_22" x1="121.145" y1="145.27" x2="111.129" y2="157.686" gradientUnits="userSpaceOnUse">
<stop stop-color="#FFCF61"/>
<stop offset="0.22" stop-color="#F6D019"/>
<stop offset="0.27" stop-color="#F4D008"/>
<stop offset="1" stop-color="#FC8008"/>
</linearGradient>
<linearGradient id="paint6_linear_14_22" x1="119.856" y1="144.051" x2="112.045" y2="153.735" gradientUnits="userSpaceOnUse">
<stop stop-color="#FFCF61"/>
<stop offset="0.22" stop-color="#F6D019"/>
<stop offset="0.27" stop-color="#F4D008"/>
<stop offset="1" stop-color="#FC8008"/>
</linearGradient>
<linearGradient id="paint7_linear_14_22" x1="121.413" y1="131.114" x2="109.35" y2="146.05" gradientUnits="userSpaceOnUse">
<stop stop-color="#FFCF61"/>
<stop offset="0.22" stop-color="#F6D019"/>
<stop offset="0.27" stop-color="#F4D008"/>
<stop offset="1" stop-color="#FC8008"/>
</linearGradient>
<linearGradient id="paint8_linear_14_22" x1="119.694" y1="129.741" x2="107.629" y2="144.657" gradientUnits="userSpaceOnUse">
<stop stop-color="#FFCF61"/>
<stop offset="0.22" stop-color="#F6D019"/>
<stop offset="0.27" stop-color="#F4D008"/>
<stop offset="1" stop-color="#FC8008"/>
</linearGradient>
<linearGradient id="paint9_linear_14_22" x1="148.411" y1="4.48303" x2="69.4297" y2="102.377" gradientUnits="userSpaceOnUse">
<stop stop-color="#FFCF61"/>
<stop offset="0.22" stop-color="#F6D019"/>
<stop offset="0.27" stop-color="#F4D008"/>
<stop offset="1" stop-color="#FC8008"/>
</linearGradient>
<linearGradient id="paint10_linear_14_22" x1="143.407" y1="53.8297" x2="119.181" y2="95.704" gradientUnits="userSpaceOnUse">
<stop stop-color="white"/>
<stop offset="0.31" stop-color="#FEDAB6"/>
<stop offset="1" stop-color="#FC8008"/>
</linearGradient>
<linearGradient id="paint11_linear_14_22" x1="132.407" y1="-8.41866" x2="53.4242" y2="89.4561" gradientUnits="userSpaceOnUse">
<stop stop-color="#FFCF61"/>
<stop offset="0.22" stop-color="#F6D019"/>
<stop offset="0.27" stop-color="#F4D008"/>
<stop offset="1" stop-color="#FC8008"/>
</linearGradient>
<linearGradient id="paint12_linear_14_22" x1="138.376" y1="-25.3051" x2="76.2351" y2="51.7151" gradientUnits="userSpaceOnUse">
<stop stop-color="#FFCF61"/>
<stop offset="0.22" stop-color="#F6D019"/>
<stop offset="0.27" stop-color="#F4D008"/>
<stop offset="1" stop-color="#FC8008"/>
</linearGradient>
<linearGradient id="paint13_linear_14_22" x1="154.229" y1="-12.527" x2="92.0684" y2="64.4951" gradientUnits="userSpaceOnUse">
<stop stop-color="#FFCF61"/>
<stop offset="0.22" stop-color="#F6D019"/>
<stop offset="0.27" stop-color="#F4D008"/>
<stop offset="1" stop-color="#FC8008"/>
</linearGradient>
<linearGradient id="paint14_linear_14_22" x1="166.016" y1="-3.02727" x2="103.858" y2="74.0144" gradientUnits="userSpaceOnUse">
<stop stop-color="#FFCF61"/>
<stop offset="0.22" stop-color="#F6D019"/>
<stop offset="0.27" stop-color="#F4D008"/>
<stop offset="1" stop-color="#FC8008"/>
</linearGradient>
<linearGradient id="paint15_linear_14_22" x1="205.026" y1="24.5713" x2="147.064" y2="96.4057" gradientUnits="userSpaceOnUse">
<stop stop-color="#FFCF61"/>
<stop offset="0.22" stop-color="#F6D019"/>
<stop offset="0.27" stop-color="#F4D008"/>
<stop offset="1" stop-color="#FC8008"/>
</linearGradient>
<linearGradient id="paint16_linear_14_22" x1="192.959" y1="14.8421" x2="134.997" y2="86.6764" gradientUnits="userSpaceOnUse">
<stop stop-color="#FFCF61"/>
<stop offset="0.22" stop-color="#F6D019"/>
<stop offset="0.27" stop-color="#F4D008"/>
<stop offset="1" stop-color="#FC8008"/>
</linearGradient>
<linearGradient id="paint17_linear_14_22" x1="201.086" y1="20.1707" x2="159.471" y2="71.7539" gradientUnits="userSpaceOnUse">
<stop stop-color="#FFCF61"/>
<stop offset="0.22" stop-color="#F6D019"/>
<stop offset="0.27" stop-color="#F4D008"/>
<stop offset="1" stop-color="#FC8008"/>
</linearGradient>
<linearGradient id="paint18_linear_14_22" x1="220.311" y1="37.01" x2="170.672" y2="98.5356" gradientUnits="userSpaceOnUse">
<stop stop-color="#FFCF61"/>
<stop offset="0.22" stop-color="#F6D019"/>
<stop offset="0.27" stop-color="#F4D008"/>
<stop offset="1" stop-color="#FC8008"/>
</linearGradient>
<linearGradient id="paint19_linear_14_22" x1="7.72333" y1="38.5693" x2="74.1518" y2="102.003" gradientUnits="userSpaceOnUse">
<stop stop-color="#FFCF61"/>
<stop offset="0.22" stop-color="#F6D019"/>
<stop offset="0.27" stop-color="#F4D008"/>
<stop offset="1" stop-color="#FC8008"/>
</linearGradient>
<linearGradient id="paint20_linear_14_22" x1="18.3854" y1="27.4092" x2="84.8138" y2="90.8428" gradientUnits="userSpaceOnUse">
<stop stop-color="#FFCF61"/>
<stop offset="0.22" stop-color="#F6D019"/>
<stop offset="0.27" stop-color="#F4D008"/>
<stop offset="1" stop-color="#FC8008"/>
</linearGradient>
<linearGradient id="paint21_linear_14_22" x1="47.147" y1="78.0576" x2="40.5189" y2="86.2977" gradientUnits="userSpaceOnUse">
<stop stop-color="#FFCF61"/>
<stop offset="0.22" stop-color="#F6D019"/>
<stop offset="0.27" stop-color="#F4D008"/>
<stop offset="1" stop-color="#FC8008"/>
</linearGradient>
<linearGradient id="paint22_linear_14_22" x1="25.4917" y1="28.5482" x2="-4.50425" y2="65.7143" gradientUnits="userSpaceOnUse">
<stop stop-color="#FFCF61"/>
<stop offset="0.22" stop-color="#F6D019"/>
<stop offset="0.27" stop-color="#F4D008"/>
<stop offset="1" stop-color="#FC8008"/>
</linearGradient>
<linearGradient id="paint23_linear_14_22" x1="28.9776" y1="31.3694" x2="-0.998722" y2="68.5336" gradientUnits="userSpaceOnUse">
<stop stop-color="#FFCF61"/>
<stop offset="0.22" stop-color="#F6D019"/>
<stop offset="0.27" stop-color="#F4D008"/>
<stop offset="1" stop-color="#FC8008"/>
</linearGradient>
<linearGradient id="paint24_linear_14_22" x1="66.6188" y1="102.719" x2="66.2675" y2="103.17" gradientUnits="userSpaceOnUse">
<stop stop-color="#FFCF61"/>
<stop offset="0.22" stop-color="#F6D019"/>
<stop offset="0.27" stop-color="#F4D008"/>
<stop offset="1" stop-color="#FC8008"/>
</linearGradient>
<linearGradient id="paint25_linear_14_22" x1="148.54" y1="161.134" x2="314" y2="161.134" gradientUnits="userSpaceOnUse">
<stop offset="0.04" stop-color="#3C414A"/>
<stop offset="0.28" stop-color="#31353C"/>
<stop offset="0.74" stop-color="#131518"/>
<stop offset="1"/>
</linearGradient>
<linearGradient id="paint26_linear_14_22" x1="86.1083" y1="135.276" x2="62.8783" y2="158.815" gradientUnits="userSpaceOnUse">
<stop offset="0.1" stop-color="#3F4452"/>
<stop offset="1" stop-color="#1A1F2A"/>
</linearGradient>
<linearGradient id="paint27_linear_14_22" x1="43.1815" y1="228.389" x2="45.1076" y2="212.832" gradientUnits="userSpaceOnUse">
<stop stop-color="#35B4C5"/>
<stop offset="0.1" stop-color="#30A3B9"/>
<stop offset="0.72" stop-color="#143B6B"/>
<stop offset="1" stop-color="#08124C"/>
</linearGradient>
<linearGradient id="paint28_linear_14_22" x1="75.3834" y1="236.441" x2="76.0353" y2="220.759" gradientUnits="userSpaceOnUse">
<stop stop-color="#35B4C5"/>
<stop offset="0.1" stop-color="#30A3B9"/>
<stop offset="0.72" stop-color="#143B6B"/>
<stop offset="1" stop-color="#08124C"/>
</linearGradient>
<linearGradient id="paint29_linear_14_22" x1="123.539" y1="248.965" x2="124.212" y2="233.3" gradientUnits="userSpaceOnUse">
<stop stop-color="#35B4C5"/>
<stop offset="0.1" stop-color="#30A3B9"/>
<stop offset="0.72" stop-color="#143B6B"/>
<stop offset="1" stop-color="#08124C"/>
</linearGradient>
<linearGradient id="paint30_linear_14_22" x1="150.957" y1="255.84" x2="151.609" y2="240.157" gradientUnits="userSpaceOnUse">
<stop stop-color="#35B4C5"/>
<stop offset="0.1" stop-color="#30A3B9"/>
<stop offset="0.72" stop-color="#143B6B"/>
<stop offset="1" stop-color="#08124C"/>
</linearGradient>
<linearGradient id="paint31_linear_14_22" x1="179.24" y1="255.332" x2="173.602" y2="240.727" gradientUnits="userSpaceOnUse">
<stop stop-color="#35B4C5"/>
<stop offset="0.1" stop-color="#30A3B9"/>
<stop offset="0.72" stop-color="#143B6B"/>
<stop offset="1" stop-color="#08124C"/>
</linearGradient>
<linearGradient id="paint32_linear_14_22" x1="208.219" y1="247.997" x2="200.806" y2="233.746" gradientUnits="userSpaceOnUse">
<stop stop-color="#35B4C5"/>
<stop offset="0.1" stop-color="#30A3B9"/>
<stop offset="0.72" stop-color="#143B6B"/>
<stop offset="1" stop-color="#08124C"/>
</linearGradient>
<linearGradient id="paint33_linear_14_22" x1="132.638" y1="156.896" x2="118.057" y2="221.884" gradientUnits="userSpaceOnUse">
<stop stop-color="#00CEFF"/>
<stop offset="0.73" stop-color="#00A7FF"/>
<stop offset="1" stop-color="#00BFC5"/>
</linearGradient>
<linearGradient id="paint34_linear_14_22" x1="115.836" y1="233.372" x2="129.663" y2="205.749" gradientUnits="userSpaceOnUse">
<stop offset="0.04" stop-color="#3F4452"/>
<stop offset="1" stop-color="#646873"/>
</linearGradient>
<linearGradient id="paint35_linear_14_22" x1="144.036" y1="196.645" x2="99.6708" y2="149.149" gradientUnits="userSpaceOnUse">
<stop stop-color="#646873"/>
<stop offset="1" stop-color="#8E9199"/>
</linearGradient>
<linearGradient id="paint36_linear_14_22" x1="146.268" y1="194.546" x2="101.903" y2="147.05" gradientUnits="userSpaceOnUse">
<stop stop-color="#646873"/>
<stop offset="1" stop-color="#8E9199"/>
</linearGradient>
<linearGradient id="paint37_linear_14_22" x1="148.462" y1="192.505" x2="104.097" y2="145.01" gradientUnits="userSpaceOnUse">
<stop stop-color="#646873"/>
<stop offset="1" stop-color="#8E9199"/>
</linearGradient>
<linearGradient id="paint38_linear_14_22" x1="150.518" y1="190.583" x2="106.153" y2="143.087" gradientUnits="userSpaceOnUse">
<stop stop-color="#646873"/>
<stop offset="1" stop-color="#8E9199"/>
</linearGradient>
<linearGradient id="paint39_linear_14_22" x1="154.043" y1="187.287" x2="109.678" y2="139.791" gradientUnits="userSpaceOnUse">
<stop stop-color="#646873"/>
<stop offset="1" stop-color="#8E9199"/>
</linearGradient>
<linearGradient id="paint40_linear_14_22" x1="106.201" y1="175.279" x2="98.9217" y2="182.663" gradientUnits="userSpaceOnUse">
<stop offset="0.1" stop-color="#3F4452"/>
<stop offset="1" stop-color="#1A1F2A"/>
</linearGradient>
<linearGradient id="paint41_linear_14_22" x1="121.789" y1="183.108" x2="115.471" y2="189.531" gradientUnits="userSpaceOnUse">
<stop offset="0.1" stop-color="#3F4452"/>
<stop offset="1" stop-color="#1A1F2A"/>
</linearGradient>
<linearGradient id="paint42_linear_14_22" x1="135.125" y1="190.484" x2="129.279" y2="196.418" gradientUnits="userSpaceOnUse">
<stop offset="0.1" stop-color="#3F4452"/>
<stop offset="1" stop-color="#1A1F2A"/>
</linearGradient>
<linearGradient id="paint43_linear_14_22" x1="147.326" y1="196.88" x2="141.479" y2="202.814" gradientUnits="userSpaceOnUse">
<stop offset="0.1" stop-color="#3F4452"/>
<stop offset="1" stop-color="#1A1F2A"/>
</linearGradient>
<linearGradient id="paint44_linear_14_22" x1="67.2752" y1="147.492" x2="44.688" y2="171.633" gradientUnits="userSpaceOnUse">
<stop offset="0.1" stop-color="#3F4452"/>
<stop offset="1" stop-color="#1A1F2A"/>
</linearGradient>
<linearGradient id="paint45_linear_14_22" x1="26.7961" y1="241.7" x2="28.3131" y2="226.078" gradientUnits="userSpaceOnUse">
<stop stop-color="#35B4C5"/>
<stop offset="0.1" stop-color="#30A3B9"/>
<stop offset="0.72" stop-color="#143B6B"/>
<stop offset="1" stop-color="#08124C"/>
</linearGradient>
<linearGradient id="paint46_linear_14_22" x1="26.9272" y1="238.729" x2="28.4013" y2="226.781" gradientUnits="userSpaceOnUse">
<stop stop-color="#35B4C5"/>
<stop offset="0.1" stop-color="#30A3B9"/>
<stop offset="0.72" stop-color="#143B6B"/>
<stop offset="1" stop-color="#08124C"/>
</linearGradient>
<linearGradient id="paint47_linear_14_22" x1="59.1691" y1="248.925" x2="59.4123" y2="233.231" gradientUnits="userSpaceOnUse">
<stop stop-color="#35B4C5"/>
<stop offset="0.1" stop-color="#30A3B9"/>
<stop offset="0.72" stop-color="#143B6B"/>
<stop offset="1" stop-color="#08124C"/>
</linearGradient>
<linearGradient id="paint48_linear_14_22" x1="58.4369" y1="245.674" x2="59.7931" y2="234.668" gradientUnits="userSpaceOnUse">
<stop stop-color="#35B4C5"/>
<stop offset="0.1" stop-color="#30A3B9"/>
<stop offset="0.72" stop-color="#143B6B"/>
<stop offset="1" stop-color="#08124C"/>
</linearGradient>
<linearGradient id="paint49_linear_14_22" x1="107.653" y1="260.188" x2="107.896" y2="244.494" gradientUnits="userSpaceOnUse">
<stop stop-color="#35B4C5"/>
<stop offset="0.1" stop-color="#30A3B9"/>
<stop offset="0.72" stop-color="#143B6B"/>
<stop offset="1" stop-color="#08124C"/>
</linearGradient>
<linearGradient id="paint50_linear_14_22" x1="107.023" y1="255.974" x2="108.261" y2="246.086" gradientUnits="userSpaceOnUse">
<stop stop-color="#35B4C5"/>
<stop offset="0.1" stop-color="#30A3B9"/>
<stop offset="0.72" stop-color="#143B6B"/>
<stop offset="1" stop-color="#08124C"/>
</linearGradient>
<linearGradient id="paint51_linear_14_22" x1="135.221" y1="266.349" x2="135.464" y2="250.655" gradientUnits="userSpaceOnUse">
<stop stop-color="#35B4C5"/>
<stop offset="0.1" stop-color="#30A3B9"/>
<stop offset="0.72" stop-color="#143B6B"/>
<stop offset="1" stop-color="#08124C"/>
</linearGradient>
<linearGradient id="paint52_linear_14_22" x1="134.558" y1="262.527" x2="135.835" y2="252.168" gradientUnits="userSpaceOnUse">
<stop stop-color="#35B4C5"/>
<stop offset="0.1" stop-color="#30A3B9"/>
<stop offset="0.72" stop-color="#143B6B"/>
<stop offset="1" stop-color="#08124C"/>
</linearGradient>
<linearGradient id="paint53_linear_14_22" x1="164.422" y1="266.624" x2="158.435" y2="252.119" gradientUnits="userSpaceOnUse">
<stop stop-color="#35B4C5"/>
<stop offset="0.1" stop-color="#30A3B9"/>
<stop offset="0.72" stop-color="#143B6B"/>
<stop offset="1" stop-color="#08124C"/>
</linearGradient>
<linearGradient id="paint54_linear_14_22" x1="159.761" y1="264.273" x2="161.275" y2="251.972" gradientUnits="userSpaceOnUse">
<stop stop-color="#35B4C5"/>
<stop offset="0.1" stop-color="#30A3B9"/>
<stop offset="0.72" stop-color="#143B6B"/>
<stop offset="1" stop-color="#08124C"/>
</linearGradient>
<linearGradient id="paint55_linear_14_22" x1="192.309" y1="256.974" x2="184.525" y2="242.922" gradientUnits="userSpaceOnUse">
<stop stop-color="#35B4C5"/>
<stop offset="0.1" stop-color="#30A3B9"/>
<stop offset="0.72" stop-color="#143B6B"/>
<stop offset="1" stop-color="#08124C"/>
</linearGradient>
<linearGradient id="paint56_linear_14_22" x1="186.316" y1="256.131" x2="188.537" y2="238.082" gradientUnits="userSpaceOnUse">
<stop stop-color="#35B4C5"/>
<stop offset="0.1" stop-color="#30A3B9"/>
<stop offset="0.72" stop-color="#143B6B"/>
<stop offset="1" stop-color="#08124C"/>
</linearGradient>
<linearGradient id="paint57_linear_14_22" x1="114.354" y1="167.885" x2="101.481" y2="233.215" gradientUnits="userSpaceOnUse">
<stop stop-color="#00CEFF"/>
<stop offset="0.73" stop-color="#00A7FF"/>
<stop offset="1" stop-color="#00BFC5"/>
</linearGradient>
<linearGradient id="paint58_linear_14_22" x1="105.652" y1="213.184" x2="99.3634" y2="249.005" gradientUnits="userSpaceOnUse">
<stop offset="0.05" stop-color="#36DDC8"/>
<stop offset="1" stop-color="#66E5D5"/>
</linearGradient>
<linearGradient id="paint59_linear_14_22" x1="99.5357" y1="244.757" x2="112.655" y2="216.799" gradientUnits="userSpaceOnUse">
<stop offset="0.04" stop-color="#3F4452"/>
<stop offset="1" stop-color="#646873"/>
</linearGradient>
<linearGradient id="paint60_linear_14_22" x1="130.817" y1="211.163" x2="81.4347" y2="161.578" gradientUnits="userSpaceOnUse">
<stop stop-color="#646873"/>
<stop offset="1" stop-color="#8E9199"/>
</linearGradient>
<linearGradient id="paint61_linear_14_22" x1="132.854" y1="209.143" x2="83.4909" y2="159.537" gradientUnits="userSpaceOnUse">
<stop stop-color="#646873"/>
<stop offset="1" stop-color="#8E9199"/>
</linearGradient>
<linearGradient id="paint62_linear_14_22" x1="137.24" y1="204.787" x2="87.8581" y2="155.201" gradientUnits="userSpaceOnUse">
<stop stop-color="#646873"/>
<stop offset="1" stop-color="#8E9199"/>
</linearGradient>
<linearGradient id="paint63_linear_14_22" x1="140.139" y1="201.883" x2="90.7563" y2="152.298" gradientUnits="userSpaceOnUse">
<stop stop-color="#646873"/>
<stop offset="1" stop-color="#8E9199"/>
</linearGradient>
<linearGradient id="paint64_linear_14_22" x1="135.282" y1="206.729" x2="85.8997" y2="157.144" gradientUnits="userSpaceOnUse">
<stop stop-color="#646873"/>
<stop offset="1" stop-color="#8E9199"/>
</linearGradient>
<linearGradient id="paint65_linear_14_22" x1="88.4057" y1="186.936" x2="81.303" y2="194.528" gradientUnits="userSpaceOnUse">
<stop offset="0.1" stop-color="#3F4452"/>
<stop offset="1" stop-color="#1A1F2A"/>
</linearGradient>
<linearGradient id="paint66_linear_14_22" x1="104.194" y1="194.372" x2="98.0457" y2="200.94" gradientUnits="userSpaceOnUse">
<stop offset="0.1" stop-color="#3F4452"/>
<stop offset="1" stop-color="#1A1F2A"/>
</linearGradient>
<linearGradient id="paint67_linear_14_22" x1="117.718" y1="201.397" x2="112.028" y2="207.482" gradientUnits="userSpaceOnUse">
<stop offset="0.1" stop-color="#3F4452"/>
<stop offset="1" stop-color="#1A1F2A"/>
</linearGradient>
<linearGradient id="paint68_linear_14_22" x1="130.082" y1="207.471" x2="124.372" y2="213.556" gradientUnits="userSpaceOnUse">
<stop offset="0.1" stop-color="#3F4452"/>
<stop offset="1" stop-color="#1A1F2A"/>
</linearGradient>
<clipPath id="clip0_14_22">
<rect width="314" height="267" fill="white"/>
</clipPath>
</defs>
</svg>
