<svg width="135" height="135" viewBox="0 0 135 135" fill="none" xmlns="http://www.w3.org/2000/svg">
<path d="M84.1875 47.0625C83.4458 47.0625 82.7208 47.2824 82.1041 47.6945C81.4874 48.1065 81.0068 48.6922 80.723 49.3774C80.4391 50.0627 80.3649 50.8167 80.5096 51.5441C80.6542 52.2715 81.0114 52.9397 81.5359 53.4642C82.0603 53.9886 82.7285 54.3457 83.4559 54.4904C84.1833 54.6351 84.9373 54.5609 85.6226 54.277C86.3078 53.9932 86.8935 53.5126 87.3055 52.8959C87.7176 52.2792 87.9375 51.5542 87.9375 50.8125C87.9375 49.8179 87.5424 48.8641 86.8392 48.1608C86.1359 47.4576 85.1821 47.0625 84.1875 47.0625ZM98.5625 54.625C98.5012 52.0322 98.0156 49.467 97.125 47.0312C96.334 44.9455 95.0968 43.0577 93.5 41.5C91.9526 39.8982 90.0611 38.6693 87.9687 37.9062C85.5396 36.988 82.9714 36.4913 80.375 36.4375C77.0625 36.25 76 36.25 67.5 36.25C59 36.25 57.9375 36.25 54.625 36.4375C52.0286 36.4913 49.4604 36.988 47.0312 37.9062C44.9437 38.6789 43.0543 39.9065 41.5 41.5C39.8982 43.0474 38.6693 44.9389 37.9062 47.0312C36.988 49.4604 36.4913 52.0286 36.4375 54.625C36.25 57.9375 36.25 59 36.25 67.5C36.25 76 36.25 77.0625 36.4375 80.375C36.4913 82.9714 36.988 85.5396 37.9062 87.9687C38.6693 90.0611 39.8982 91.9526 41.5 93.5C43.0543 95.0935 44.9437 96.3211 47.0312 97.0937C49.4604 98.012 52.0286 98.5087 54.625 98.5625C57.9375 98.75 59 98.75 67.5 98.75C76 98.75 77.0625 98.75 80.375 98.5625C82.9714 98.5087 85.5396 98.012 87.9687 97.0937C90.0611 96.3307 91.9526 95.1018 93.5 93.5C95.1008 91.9456 96.3386 90.0569 97.125 87.9687C98.0156 85.533 98.5012 82.9678 98.5625 80.375C98.5625 77.0625 98.75 76 98.75 67.5C98.75 59 98.75 57.9375 98.5625 54.625ZM92.9375 80C92.9154 81.9837 92.5561 83.9492 91.875 85.8125C91.376 87.1725 90.5746 88.4013 89.5312 89.4063C88.517 90.4383 87.2909 91.238 85.9375 91.75C84.0742 92.4311 82.1087 92.7904 80.125 92.8125C77 92.9688 75.8438 93 67.625 93C59.4062 93 58.25 93 55.125 92.8125C53.0652 92.853 51.0139 92.5357 49.0625 91.875C47.7693 91.3354 46.5997 90.5379 45.625 89.5312C44.5878 88.5273 43.7964 87.2975 43.3125 85.9375C42.547 84.0481 42.1238 82.0376 42.0625 80C42.0625 76.875 41.875 75.7188 41.875 67.5C41.875 59.2812 41.875 58.125 42.0625 55C42.0739 52.9718 42.4442 50.9616 43.1563 49.0625C43.7064 47.7435 44.5508 46.5677 45.625 45.625C46.5716 44.5475 47.7457 43.6936 49.0625 43.125C50.9669 42.4359 52.9748 42.0766 55 42.0625C58.125 42.0625 59.2812 41.875 67.5 41.875C75.7188 41.875 76.875 41.875 80 42.0625C81.9837 42.0846 83.9492 42.4439 85.8125 43.125C87.2326 43.652 88.5072 44.5089 89.5312 45.625C90.5522 46.5876 91.3519 47.7604 91.875 49.0625C92.5702 50.9653 92.9297 52.9743 92.9375 55C93.0937 58.125 93.125 59.2812 93.125 67.5C93.125 75.7188 93.0937 76.875 92.9375 80ZM67.5 51.4687C64.3307 51.4749 61.2343 52.4204 58.602 54.1857C55.9698 55.951 53.9199 58.4569 52.7114 61.3867C51.5028 64.3166 51.1898 67.539 51.8119 70.6467C52.434 73.7544 53.9632 76.6079 56.2065 78.8468C58.4497 81.0857 61.3063 82.6094 64.4152 83.2255C67.5241 83.8415 70.7458 83.5222 73.6733 82.3079C76.6008 81.0936 79.1027 79.0389 80.8629 76.4032C82.6231 73.7676 83.5625 70.6693 83.5625 67.5C83.5666 65.391 83.1538 63.3019 82.3476 61.353C81.5415 59.4041 80.358 57.6338 78.8652 56.1439C77.3724 54.654 75.5998 53.474 73.6494 52.6717C71.6989 51.8693 69.609 51.4605 67.5 51.4687ZM67.5 77.9062C65.4418 77.9062 63.4299 77.2959 61.7186 76.1525C60.0073 75.009 58.6735 73.3838 57.8859 71.4823C57.0983 69.5808 56.8922 67.4885 57.2937 65.4698C57.6952 63.4512 58.6863 61.597 60.1417 60.1417C61.597 58.6863 63.4512 57.6952 65.4698 57.2937C67.4885 56.8922 69.5808 57.0983 71.4823 57.8859C73.3838 58.6735 75.009 60.0073 76.1525 61.7186C77.2959 63.4299 77.9062 65.4418 77.9062 67.5C77.9062 68.8666 77.6371 70.2198 77.1141 71.4823C76.5912 72.7448 75.8246 73.892 74.8583 74.8583C73.892 75.8246 72.7448 76.5912 71.4823 77.1141C70.2198 77.6371 68.8666 77.9062 67.5 77.9062Z" fill="url(#paint0_linear_62_906)"/>
<circle cx="67.5" cy="67.5" r="65.5" stroke="url(#paint1_linear_62_906)" stroke-width="4"/>
<defs>
<linearGradient id="paint0_linear_62_906" x1="32.165" y1="560.06" x2="102.975" y2="559.609" gradientUnits="userSpaceOnUse">
<stop stop-color="#FFC609"/>
<stop offset="0.5" stop-color="#039D4C"/>
<stop offset="1" stop-color="#0298D8"/>
</linearGradient>
<linearGradient id="paint1_linear_62_906" x1="-8.82353" y1="1131.43" x2="144.127" y2="1130.46" gradientUnits="userSpaceOnUse">
<stop stop-color="#FFC609"/>
<stop offset="0.5" stop-color="#039D4C"/>
<stop offset="1" stop-color="#0298D8"/>
</linearGradient>
</defs>
</svg>
