<svg width="21" height="85" viewBox="0 0 21 85" fill="none" xmlns="http://www.w3.org/2000/svg">
<g clip-path="url(#clip0_126_312)">
<path d="M19.2498 77.59L20.0898 0.39L8.1198 0L5.5498 3.46L8.0798 3.62L6.7898 76.79L13.1398 77.2L16.6898 81.04L19.2498 77.59Z" fill="#A67C52"/>
<path d="M16.6902 81.04L4.22021 80.25L5.55022 3.45996L17.5202 3.84996L16.6902 81.04Z" fill="#C69C6D"/>
<path d="M16.8 80.9102L14.89 8.21022L2.41 7.97021L0 11.3002L2.54 11.3502L4.32 80.6702L10.67 80.8002L14.4 84.2502L16.8 80.9102Z" fill="#A67C52"/>
<path d="M14.4 84.2498L1.91 84.0098L0 11.2998L12.49 11.5398L14.4 84.2498Z" fill="#C69C6D"/>
<path d="M0.859863 50.6198H14.2699C14.2699 50.6198 16.3499 44.6998 17.6499 45.5498C18.9499 46.3998 19.0799 50.7498 17.4499 51.9198C15.8199 53.0898 15.2399 50.7498 15.6299 42.9198C16.0199 35.0898 16.6299 34.9198 17.4499 39.4098C18.2699 43.8998 18.2999 46.2998 18.8799 46.2998C19.3074 46.2623 19.716 46.1065 20.0599 45.8498" stroke="#808080" stroke-width="1.56" stroke-linecap="round" stroke-linejoin="round"/>
</g>
<defs>
<clipPath id="clip0_126_312">
<rect width="20.84" height="84.25" fill="white"/>
</clipPath>
</defs>
</svg>
