<svg width="119" height="119" viewBox="0 0 119 119" fill="none" xmlns="http://www.w3.org/2000/svg">
<circle cx="59.5" cy="59.5" r="59.5" fill="url(#paint0_linear_165_633)"/>
<path d="M59.775 98.0655C59.4414 98.0655 59.1078 97.9543 58.8854 97.6207L36.0884 67.8179C27.9705 57.1423 27.9705 42.3521 36.0884 31.6765C41.7599 24.2258 50.4338 20 59.775 20C69.1162 20 77.7901 24.2258 83.4616 31.6765C91.5795 42.3521 91.5795 57.1423 83.4616 67.8179L60.6646 97.6207C60.4422 97.8431 60.1086 98.0655 59.775 98.0655ZM59.775 22.2241C51.101 22.2241 43.0943 26.1162 37.8677 33.0109C30.3058 42.9081 30.3058 56.5863 37.8677 66.4835L59.775 95.063L81.6823 66.4835C89.2442 56.5863 89.2442 42.9081 81.6823 33.0109C76.4557 26.2275 68.4489 22.2241 59.775 22.2241Z" fill="white" stroke="white" stroke-miterlimit="10"/>
<path d="M59.775 67.5954C49.989 67.5954 41.9823 59.5887 41.9823 49.8027C41.9823 40.0167 49.989 32.01 59.775 32.01C69.561 32.01 77.5677 40.0167 77.5677 49.8027C77.5677 59.5887 69.561 67.5954 59.775 67.5954ZM59.775 34.2341C51.2123 34.2341 44.2064 41.24 44.2064 49.8027C44.2064 58.3655 51.2123 65.3714 59.775 65.3714C68.3378 65.3714 75.3436 58.3655 75.3436 49.8027C75.3436 41.24 68.3378 34.2341 59.775 34.2341Z" fill="white" stroke="white" stroke-miterlimit="10"/>
<defs>
<linearGradient id="paint0_linear_165_633" x1="-7.77778" y1="997.333" x2="127.045" y2="996.476" gradientUnits="userSpaceOnUse">
<stop stop-color="#FFC609"/>
<stop offset="0.5" stop-color="#039D4C"/>
<stop offset="1" stop-color="#0298D8"/>
</linearGradient>
</defs>
</svg>
