<svg width="638" height="737" viewBox="0 0 638 737" fill="none" xmlns="http://www.w3.org/2000/svg">
<g clip-path="url(#clip0_160_494)">
<path d="M0 723.67L0 9.40979C0 6.92206 0.988254 4.53625 2.74734 2.77716C4.50644 1.01807 6.89227 0.0297852 9.38 0.0297852H20.73C26.9653 0.0297852 32.9451 2.50679 37.3541 6.91577C41.763 11.3248 44.24 17.3046 44.24 23.5398L44.24 723.67C44.24 727.094 42.8798 730.377 40.4587 732.799C38.0376 735.22 34.7539 736.58 31.33 736.58H12.91C11.2146 736.58 9.53586 736.246 7.96954 735.597C6.40323 734.948 4.98005 733.997 3.78125 732.799C2.58245 731.6 1.63148 730.177 0.982697 728.61C0.333908 727.044 0 725.365 0 723.67Z" fill="#896C52"/>
<g opacity="0.1">
<path d="M44.25 116.69L0 129.14V109.7L44.25 116.69Z" fill="#232222"/>
</g>
<path d="M31.24 116.69C29.29 123.6 30.12 140.84 29.86 149.27L28.81 183.48C28.09 206.507 27.3767 229.54 26.67 252.58L31.2 140.48C31.5 133 32.15 124 31.24 116.69Z" fill="#7A5F49"/>
<path d="M27.15 252.6H26.15L29.35 149.29C29.42 146.95 29.41 143.88 29.35 140.62C29.35 132.17 29.28 121.62 30.7 116.62L31.34 114.34L31.63 116.69C32.41 122.88 32.06 130.34 31.76 136.92C31.7 138.16 31.65 139.38 31.6 140.56L27.15 252.6ZM31.07 120.05C30.33 125.51 30.36 133.73 30.39 140.58C30.39 143.84 30.39 146.92 30.34 149.28L30.26 152L30.72 140.45C30.77 139.27 30.83 138.05 30.89 136.81C31.2443 131.23 31.3044 125.636 31.07 120.05Z" fill="#7A5F49"/>
<path d="M17.0801 401.59C16.8301 343.47 17.2301 285.11 16.2801 227.03C15.8201 285.12 16.8001 343.48 17.0801 401.59Z" fill="#7A5F49"/>
<path d="M16.6 401.59C16.51 382.59 16.34 363.24 16.18 344.53C15.84 305.98 15.5 266.13 15.8 227.03H16.8C17.44 266.14 17.46 306.03 17.49 344.58C17.49 363.28 17.49 382.58 17.6 401.58H16.6V401.59Z" fill="#7A5F49"/>
<path d="M19.88 191.14C21.09 188.54 21.29 185.14 21.41 181.97C21.969 168.876 21.7619 155.76 20.79 142.69C20.84 158.82 20.22 175 19.88 191.14Z" fill="#7A5F49"/>
<path d="M19.36 193.41L19.41 191.13C19.51 186.41 19.6233 181.687 19.75 176.96C20.04 165.72 20.35 154.1 20.31 142.69H21.31C22.2699 155.771 22.4635 168.897 21.89 182C21.76 185.42 21.54 188.7 20.32 191.35L19.36 193.41ZM21.13 158.89C21 165 20.86 171 20.71 177C20.61 180.553 20.52 184.103 20.44 187.65C20.7351 185.77 20.9022 183.872 20.94 181.97C21.24 174 21.3 166.25 21.13 158.89Z" fill="#7A5F49"/>
<path d="M11.66 18.1499C11.95 26.4199 12.17 34.7199 12.9 42.8999C13.49 34.7399 12.22 26.4099 11.66 18.1499Z" fill="#7A5F49"/>
<path d="M12.4199 42.9396C11.7799 35.6796 11.5299 28.2096 11.2799 20.9896L11.1899 18.1696L12.1899 18.1196C12.3399 20.3896 12.5599 22.6996 12.7599 24.9396C13.47 30.9116 13.6908 36.9317 13.4199 42.9396H12.4199Z" fill="#7A5F49"/>
<path d="M11.66 18.1498C11.5867 15.9632 11.5034 13.7765 11.41 11.5898C11.41 13.7698 11.52 15.9998 11.66 18.1498Z" fill="#7A5F49"/>
<path d="M11.1899 18.1898C11.0199 15.6598 10.9399 13.5598 10.9399 11.5898H11.9399C12.0399 13.7698 12.1199 15.9698 12.1899 18.1598L11.1899 18.1898Z" fill="#7A5F49"/>
<path d="M28.8199 61.6597L27.8199 70.0797L28.6199 70.8197C28.8866 67.774 28.9534 64.7141 28.8199 61.6597Z" fill="#7A5F49"/>
<path d="M29 71.8196L27.3 70.2596L28.3601 61.5996H29.31C29.4317 64.6745 29.3582 67.754 29.09 70.8196L29 71.8196Z" fill="#7A5F49"/>
<path d="M24.28 341.08C24.0933 356.36 23.8867 371.667 23.66 387L23.37 370.18V440.02C24.91 408.11 25.21 373.87 24.28 341.08Z" fill="#7A5F49"/>
<path d="M23.8801 440H22.9301V370.16H23.4401L23.8301 341.1H24.8301C25.6901 373.89 25.3901 408.1 23.8801 440ZM23.8801 387V414.24C24.2401 400.76 24.3901 387.06 24.3301 373.4L24.1401 387H23.8801Z" fill="#7A5F49"/>
<path d="M32.67 443.58C33.08 415.48 33.52 391.83 32.11 364.12C32.05 370.56 32.69 376.27 32.62 382.78C32.55 389.29 32 395.56 31.81 402C31.41 417 31.67 432.76 31.73 447.85C31.85 477.78 32.37 507.74 33.73 537.31C32.56 506.27 32.2 474.85 32.67 443.58Z" fill="#7A5F49"/>
<path d="M33.27 537.33C32.05 510.97 31.39 481.7 31.27 447.86C31.27 444.39 31.27 440.86 31.21 437.37C31.13 425.68 31.04 413.58 31.35 401.98C31.43 399.12 31.59 396.24 31.74 393.45C31.93 389.96 32.12 386.36 32.16 382.77C32.16 379.49 32.05 376.36 31.91 373.34C31.77 370.32 31.62 367.34 31.65 364.12H32.65C33.99 390.63 33.65 413.47 33.26 439.93L33.2 443.61C32.74 474.81 33.1 506.33 34.28 537.31L33.27 537.33ZM32.55 395.7C32.44 397.78 32.34 399.9 32.29 402.01C31.98 413.59 32.06 425.68 32.15 437.37C32.15 439.457 32.15 441.543 32.15 443.63V443.58L32.2 439.9C32.47 424.41 32.69 410.17 32.55 395.7Z" fill="#7A5F49"/>
<path d="M24.3899 552.74C24.2799 545.51 25.1999 526.87 23.3199 521.74C23.4399 554.31 24.8799 587.27 25.9099 620.1C25.5899 609.27 25.2599 598.44 25.0399 587.62C24.7999 575.986 24.5833 564.36 24.3899 552.74Z" fill="#7A5F49"/>
<path d="M25.43 620.1C25.1833 612.166 24.92 604.236 24.64 596.31C23.8 571.8 22.93 546.44 22.85 521.72V519L23.78 521.57C25.22 525.51 25.05 537.08 24.93 545.57C24.93 548.47 24.85 550.97 24.88 552.79C25.07 564.39 25.29 576.11 25.52 587.64C25.73 597.52 26.03 607.58 26.31 617.3L26.4 620.12L25.43 620.1ZM23.84 528.6C23.88 532.86 23.94 537.133 24.02 541.42C24.07 537.07 24.06 532.41 23.84 528.6Z" fill="#7A5F49"/>
<path d="M25.91 620.08C26.26 632.16 26.61 644.24 26.78 656.3C26.61 644.26 26.28 632.18 25.91 620.08Z" fill="#7A5F49"/>
<path d="M26.3001 656.31C26.1301 644.39 25.7901 632.38 25.4301 620.1H26.4301C26.8701 634.34 27.1501 645.85 27.3001 656.33L26.3001 656.31Z" fill="#7A5F49"/>
<path d="M17.43 612.61C16.63 648.08 17.86 691.17 18.21 727.41C17.82 688 19.55 652.6 17.43 612.61Z" fill="#7A5F49"/>
<path d="M17.73 727.41C17.63 717.03 17.46 706.29 17.28 694.91C16.84 666.91 16.38 637.91 16.95 612.6H17.9C19.28 638.39 19.05 661.78 18.81 686.55C18.68 699.76 18.55 713.42 18.69 727.41H17.73ZM17.67 630.23C17.58 644.98 17.73 660.53 17.95 676.1C18.08 660.79 18.11 645.81 17.67 630.23Z" fill="#7A5F49"/>
<path d="M14.2 560.31C14.1 522.72 17.1 488.91 14.42 450.71C12.81 484.57 14.11 525.71 14.2 560.31Z" fill="#7A5F49"/>
<path d="M13.72 560.31C13.72 550.4 13.57 540.16 13.44 529.31C13.12 502.54 12.79 474.86 13.94 450.69H14.94C16.67 475.33 16.05 497.69 15.4 521.31C15.05 533.92 14.69 546.96 14.72 560.31H13.72ZM14.51 460.5C13.89 480.43 14.08 502.22 14.33 523.63L14.39 521.28C15 500.81 15.5 481.34 14.51 460.5Z" fill="#7A5F49"/>
<path d="M31.59 267.08C31.88 284.13 32.1 301.29 32.82 318.16C33.42 301.32 32.15 284.12 31.59 267.08Z" fill="#7A5F49"/>
<path d="M32.35 318.18C31.7 303.18 31.45 287.8 31.21 272.9L31.11 267.09H32.11C32.26 271.77 32.47 276.55 32.68 281.17C33.22 293.37 33.77 305.98 33.34 318.17L32.35 318.18Z" fill="#7A5F49"/>
<path d="M34.23 222.46C33.89 225.26 33.54 228.06 33.23 230.87L34.04 231.61C34.2982 228.567 34.3617 225.511 34.23 222.46Z" fill="#7A5F49"/>
<path d="M34.4 232.62L32.7 231.06L33.7 222.4H34.7C34.8267 225.471 34.7532 228.548 34.4799 231.61L34.4 232.62Z" fill="#7A5F49"/>
</g>
<g clip-path="url(#clip1_160_494)">
<path d="M593 723.67V9.40979C593 6.92206 593.988 4.53625 595.747 2.77716C597.506 1.01807 599.892 0.0297852 602.38 0.0297852H613.73C619.965 0.0297852 625.945 2.50679 630.354 6.91577C634.763 11.3248 637.24 17.3046 637.24 23.5398V723.67C637.24 727.094 635.88 730.377 633.459 732.799C631.038 735.22 627.754 736.58 624.33 736.58H605.91C604.215 736.58 602.536 736.246 600.97 735.597C599.403 734.948 597.98 733.997 596.781 732.799C595.582 731.6 594.631 730.177 593.983 728.61C593.334 727.044 593 725.365 593 723.67Z" fill="#896C52"/>
<g opacity="0.1">
<path d="M637.25 116.69L593 129.14V109.7L637.25 116.69Z" fill="#232222"/>
</g>
<path d="M624.24 116.69C622.29 123.6 623.12 140.84 622.86 149.27L621.81 183.48C621.09 206.507 620.377 229.54 619.67 252.58L624.2 140.48C624.5 133 625.15 124 624.24 116.69Z" fill="#7A5F49"/>
<path d="M620.15 252.6H619.15L622.35 149.29C622.42 146.95 622.41 143.88 622.35 140.62C622.35 132.17 622.28 121.62 623.7 116.62L624.34 114.34L624.63 116.69C625.41 122.88 625.06 130.34 624.76 136.92C624.7 138.16 624.65 139.38 624.6 140.56L620.15 252.6ZM624.07 120.05C623.33 125.51 623.36 133.73 623.39 140.58C623.39 143.84 623.39 146.92 623.34 149.28L623.26 152L623.72 140.45C623.77 139.27 623.83 138.05 623.89 136.81C624.244 131.23 624.304 125.636 624.07 120.05Z" fill="#7A5F49"/>
<path d="M610.08 401.59C609.83 343.47 610.23 285.11 609.28 227.03C608.82 285.12 609.8 343.48 610.08 401.59Z" fill="#7A5F49"/>
<path d="M609.6 401.59C609.51 382.59 609.34 363.24 609.18 344.53C608.84 305.98 608.5 266.13 608.8 227.03H609.8C610.44 266.14 610.46 306.03 610.49 344.58C610.49 363.28 610.49 382.58 610.6 401.58H609.6V401.59Z" fill="#7A5F49"/>
<path d="M612.88 191.14C614.09 188.54 614.29 185.14 614.41 181.97C614.969 168.876 614.762 155.76 613.79 142.69C613.84 158.82 613.22 175 612.88 191.14Z" fill="#7A5F49"/>
<path d="M612.36 193.41L612.41 191.13C612.51 186.41 612.623 181.687 612.75 176.96C613.04 165.72 613.35 154.1 613.31 142.69H614.31C615.27 155.771 615.464 168.897 614.89 182C614.76 185.42 614.54 188.7 613.32 191.35L612.36 193.41ZM614.13 158.89C614 165 613.86 171 613.71 177C613.61 180.553 613.52 184.103 613.44 187.65C613.735 185.77 613.902 183.872 613.94 181.97C614.24 174 614.3 166.25 614.13 158.89Z" fill="#7A5F49"/>
<path d="M604.66 18.1499C604.95 26.4199 605.17 34.7199 605.9 42.8999C606.49 34.7399 605.22 26.4099 604.66 18.1499Z" fill="#7A5F49"/>
<path d="M605.42 42.9396C604.78 35.6796 604.53 28.2096 604.28 20.9896L604.19 18.1696L605.19 18.1196C605.34 20.3896 605.56 22.6996 605.76 24.9396C606.47 30.9116 606.691 36.9317 606.42 42.9396H605.42Z" fill="#7A5F49"/>
<path d="M604.66 18.1498C604.587 15.9632 604.503 13.7765 604.41 11.5898C604.41 13.7698 604.52 15.9998 604.66 18.1498Z" fill="#7A5F49"/>
<path d="M604.19 18.1898C604.02 15.6598 603.94 13.5598 603.94 11.5898H604.94C605.04 13.7698 605.12 15.9698 605.19 18.1598L604.19 18.1898Z" fill="#7A5F49"/>
<path d="M621.82 61.6597L620.82 70.0797L621.62 70.8197C621.887 67.774 621.953 64.7141 621.82 61.6597Z" fill="#7A5F49"/>
<path d="M622 71.8196L620.3 70.2596L621.36 61.5996H622.31C622.432 64.6745 622.358 67.754 622.09 70.8196L622 71.8196Z" fill="#7A5F49"/>
<path d="M617.28 341.08C617.093 356.36 616.887 371.667 616.66 387L616.37 370.18V440.02C617.91 408.11 618.21 373.87 617.28 341.08Z" fill="#7A5F49"/>
<path d="M616.88 440H615.93V370.16H616.44L616.83 341.1H617.83C618.69 373.89 618.39 408.1 616.88 440ZM616.88 387V414.24C617.24 400.76 617.39 387.06 617.33 373.4L617.14 387H616.88Z" fill="#7A5F49"/>
<path d="M625.67 443.58C626.08 415.48 626.52 391.83 625.11 364.12C625.05 370.56 625.69 376.27 625.62 382.78C625.55 389.29 625 395.56 624.81 402C624.41 417 624.67 432.76 624.73 447.85C624.85 477.78 625.37 507.74 626.73 537.31C625.56 506.27 625.2 474.85 625.67 443.58Z" fill="#7A5F49"/>
<path d="M626.27 537.33C625.05 510.97 624.39 481.7 624.27 447.86C624.27 444.39 624.27 440.86 624.21 437.37C624.13 425.68 624.04 413.58 624.35 401.98C624.43 399.12 624.59 396.24 624.74 393.45C624.93 389.96 625.12 386.36 625.16 382.77C625.16 379.49 625.05 376.36 624.91 373.34C624.77 370.32 624.62 367.34 624.65 364.12H625.65C626.99 390.63 626.65 413.47 626.26 439.93L626.2 443.61C625.74 474.81 626.1 506.33 627.28 537.31L626.27 537.33ZM625.55 395.7C625.44 397.78 625.34 399.9 625.29 402.01C624.98 413.59 625.06 425.68 625.15 437.37C625.15 439.457 625.15 441.543 625.15 443.63V443.58L625.2 439.9C625.47 424.41 625.69 410.17 625.55 395.7Z" fill="#7A5F49"/>
<path d="M617.39 552.74C617.28 545.51 618.2 526.87 616.32 521.74C616.44 554.31 617.88 587.27 618.91 620.1C618.59 609.27 618.26 598.44 618.04 587.62C617.8 575.986 617.583 564.36 617.39 552.74Z" fill="#7A5F49"/>
<path d="M618.43 620.1C618.183 612.166 617.92 604.236 617.64 596.31C616.8 571.8 615.93 546.44 615.85 521.72V519L616.78 521.57C618.22 525.51 618.05 537.08 617.93 545.57C617.93 548.47 617.85 550.97 617.88 552.79C618.07 564.39 618.29 576.11 618.52 587.64C618.73 597.52 619.03 607.58 619.31 617.3L619.4 620.12L618.43 620.1ZM616.84 528.6C616.88 532.86 616.94 537.133 617.02 541.42C617.07 537.07 617.06 532.41 616.84 528.6Z" fill="#7A5F49"/>
<path d="M618.91 620.08C619.26 632.16 619.61 644.24 619.78 656.3C619.61 644.26 619.28 632.18 618.91 620.08Z" fill="#7A5F49"/>
<path d="M619.3 656.31C619.13 644.39 618.79 632.38 618.43 620.1H619.43C619.87 634.34 620.15 645.85 620.3 656.33L619.3 656.31Z" fill="#7A5F49"/>
<path d="M610.43 612.61C609.63 648.08 610.86 691.17 611.21 727.41C610.82 688 612.55 652.6 610.43 612.61Z" fill="#7A5F49"/>
<path d="M610.73 727.41C610.63 717.03 610.46 706.29 610.28 694.91C609.84 666.91 609.38 637.91 609.95 612.6H610.9C612.28 638.39 612.05 661.78 611.81 686.55C611.68 699.76 611.55 713.42 611.69 727.41H610.73ZM610.67 630.23C610.58 644.98 610.73 660.53 610.95 676.1C611.08 660.79 611.11 645.81 610.67 630.23Z" fill="#7A5F49"/>
<path d="M607.2 560.31C607.1 522.72 610.1 488.91 607.42 450.71C605.81 484.57 607.11 525.71 607.2 560.31Z" fill="#7A5F49"/>
<path d="M606.72 560.31C606.72 550.4 606.57 540.16 606.44 529.31C606.12 502.54 605.79 474.86 606.94 450.69H607.94C609.67 475.33 609.05 497.69 608.4 521.31C608.05 533.92 607.69 546.96 607.72 560.31H606.72ZM607.51 460.5C606.89 480.43 607.08 502.22 607.33 523.63L607.39 521.28C608 500.81 608.5 481.34 607.51 460.5Z" fill="#7A5F49"/>
<path d="M624.59 267.08C624.88 284.13 625.1 301.29 625.82 318.16C626.42 301.32 625.15 284.12 624.59 267.08Z" fill="#7A5F49"/>
<path d="M625.35 318.18C624.7 303.18 624.45 287.8 624.21 272.9L624.11 267.09H625.11C625.26 271.77 625.47 276.55 625.68 281.17C626.22 293.37 626.77 305.98 626.34 318.17L625.35 318.18Z" fill="#7A5F49"/>
<path d="M627.23 222.46C626.89 225.26 626.54 228.06 626.23 230.87L627.04 231.61C627.298 228.567 627.362 225.511 627.23 222.46Z" fill="#7A5F49"/>
<path d="M627.4 232.62L625.7 231.06L626.7 222.4H627.7C627.827 225.471 627.753 228.548 627.48 231.61L627.4 232.62Z" fill="#7A5F49"/>
</g>
<defs>
<clipPath id="clip0_160_494">
<rect width="44.25" height="736.57" fill="white"/>
</clipPath>
<clipPath id="clip1_160_494">
<rect width="44.25" height="736.57" fill="white" transform="translate(593)"/>
</clipPath>
</defs>
</svg>
