<svg width="135" height="135" viewBox="0 0 135 135" fill="none" xmlns="http://www.w3.org/2000/svg">
<circle cx="67.5" cy="67.5" r="65.5" stroke="url(#paint0_linear_276_5)" stroke-width="4"/>
<path d="M67.503 37.0833C84.3022 37.0833 97.9197 50.7008 97.9197 67.4999C97.9197 84.299 84.3022 97.9166 67.503 97.9166C62.1277 97.9258 56.8468 96.5033 52.2035 93.7951L37.0985 97.9166L41.2109 82.8056C38.5006 78.1607 37.077 72.8776 37.0864 67.4999C37.0864 50.7008 50.7039 37.0833 67.503 37.0833ZM57.137 53.2041L56.5287 53.2284C56.1354 53.2555 55.7511 53.3588 55.3972 53.5326C55.0674 53.7197 54.7663 53.9532 54.503 54.2261C54.138 54.5698 53.9311 54.8679 53.7091 55.1568C52.584 56.6196 51.9783 58.4154 51.9875 60.2608C51.9936 61.7512 52.3829 63.202 52.9913 64.5586C54.2353 67.3022 56.2823 70.207 58.9833 72.8989C59.6343 73.5468 60.273 74.1977 60.9604 74.803C64.3167 77.7576 68.316 79.8885 72.6404 81.0262L74.3681 81.2908C74.9308 81.3213 75.4935 81.2787 76.0593 81.2513C76.9449 81.2046 77.8097 80.9648 78.593 80.5487C78.991 80.3429 79.3797 80.1196 79.7579 79.8795C79.7579 79.8795 79.8867 79.7923 80.1381 79.6058C80.5488 79.3016 80.8012 79.0856 81.1419 78.7298C81.3974 78.4661 81.6103 78.1599 81.7806 77.8112C82.0179 77.3154 82.2551 76.3694 82.3525 75.5816C82.4255 74.9794 82.4042 74.6509 82.395 74.4471C82.3829 74.1216 82.1122 73.784 81.8171 73.641L80.0469 72.8472C80.0469 72.8472 77.4006 71.6944 75.7825 70.9583C75.6131 70.8846 75.4317 70.8423 75.2471 70.8336C75.039 70.8118 74.8286 70.835 74.6302 70.9017C74.4319 70.9683 74.2501 71.0768 74.0974 71.2199C74.0822 71.2138 73.8784 71.3872 71.6793 74.0517C71.553 74.2213 71.3792 74.3495 71.1798 74.4199C70.9805 74.4903 70.7647 74.4998 70.5599 74.4471C70.3617 74.3943 70.1675 74.3272 69.979 74.2463C69.6018 74.0882 69.471 74.0273 69.2125 73.9178C67.4662 73.1571 65.8497 72.1277 64.4218 70.867C64.0386 70.5325 63.6827 70.1675 63.3177 69.8146C62.1212 68.6686 61.0783 67.3721 60.2152 65.9578L60.0358 65.6688C59.9088 65.4736 59.8047 65.2643 59.7255 65.0453C59.6099 64.5982 59.911 64.2393 59.911 64.2393C59.911 64.2393 60.6502 63.4302 60.9939 62.9922C61.3285 62.5663 61.6113 62.1527 61.7938 61.8576C62.1528 61.2797 62.2653 60.6866 62.0767 60.2273C61.225 58.1468 60.345 56.0774 59.4365 54.0193C59.2571 53.6117 58.7248 53.3197 58.2412 53.2619C58.0769 53.2416 57.9127 53.2254 57.7484 53.2132C57.34 53.1898 56.9305 53.1939 56.5226 53.2254L57.137 53.2041Z" fill="url(#paint1_linear_276_5)"/>
<defs>
<linearGradient id="paint0_linear_276_5" x1="-8.82353" y1="1131.43" x2="144.127" y2="1130.46" gradientUnits="userSpaceOnUse">
<stop stop-color="#FFC609"/>
<stop offset="0.5" stop-color="#039D4C"/>
<stop offset="1" stop-color="#0298D8"/>
</linearGradient>
<linearGradient id="paint1_linear_276_5" x1="33.1103" y1="546.925" x2="102.033" y2="546.486" gradientUnits="userSpaceOnUse">
<stop stop-color="#FFC609"/>
<stop offset="0.5" stop-color="#039D4C"/>
<stop offset="1" stop-color="#0298D8"/>
</linearGradient>
</defs>
</svg>
