<svg width="119" height="119" viewBox="0 0 119 119" fill="none" xmlns="http://www.w3.org/2000/svg">
<circle cx="59.5" cy="59.5" r="59.5" fill="url(#paint0_linear_165_635)"/>
<path d="M80.831 64.9877L73.6402 59.7389C72.7374 59.0775 71.6247 58.8046 70.5119 58.9831C69.3992 59.151 68.4229 59.7494 67.7721 60.6522L65.5466 63.6965C65.4311 63.8539 65.4731 63.707 65.4206 63.9064C65.4101 63.9274 65.2841 64.0954 64.8852 64.1584C64.2134 64.2633 62.1979 64.1374 57.8414 60.6522L57.4215 60.3477C52.834 57.2929 52.0992 55.4139 51.9942 54.742C51.9417 54.3956 52.0257 54.2277 52.0152 54.2172C52.1622 54.1227 52.1202 54.1227 52.2357 53.9757L54.4612 50.9314C55.1225 50.0286 55.3954 48.9159 55.217 47.8032C55.0385 46.6904 54.4507 45.7141 53.5479 45.0528L46.2311 39.7095C44.3625 38.3449 41.7276 38.7543 40.3629 40.6228L38.1165 43.7091C36.1324 46.428 35.597 50.1441 36.7203 53.4194C38.4524 58.4687 42.8719 63.8329 49.8632 69.3756C49.9577 69.4911 50.0627 69.5856 50.1887 69.6801C50.3671 69.806 50.5456 69.932 50.724 70.0475C50.892 70.1839 51.0705 70.3099 51.2384 70.4464C51.3539 70.5409 51.4904 70.6143 51.6268 70.6668C59.0381 75.6322 65.4941 78.2041 70.8373 78.3196C70.9108 78.3196 70.9738 78.3196 71.0473 78.3196C74.3645 78.3196 77.5243 76.6924 79.5293 73.9316L81.7758 70.8453C82.4372 69.9425 82.7101 68.8298 82.5316 67.717C82.3532 66.6043 81.7338 65.649 80.831 64.9877ZM79.2039 68.9977L76.9574 72.084C75.5088 74.068 73.2308 75.2123 70.8688 75.1703C67.4781 75.0968 61.568 73.7006 52.5506 67.5071C43.9111 60.8096 40.7723 55.6028 39.6701 52.4011C38.8723 50.0916 39.2397 47.4672 40.6359 45.5672L42.8929 42.4809C43.0608 42.2499 43.3023 42.103 43.5752 42.061C43.8481 42.019 44.1316 42.082 44.3625 42.2499L51.6793 47.5932C51.9103 47.7612 52.0572 48.0026 52.0992 48.2755C52.1412 48.5485 52.0782 48.8319 51.9103 49.0629L49.7583 52.0127C49.2544 52.5586 48.7505 53.5558 48.8345 54.8155C49.0024 57.3454 51.2384 60.0013 55.6264 62.9196L55.9413 63.1401C60.0983 66.4678 63.3211 67.7905 65.7775 67.1711C67.0057 66.8667 67.8036 66.0899 68.171 65.4391L70.323 62.4892C70.6589 62.0168 71.3202 61.9224 71.7926 62.2583L78.9835 67.5071C79.2144 67.675 79.3614 67.9165 79.4034 68.1894C79.4348 68.4938 79.3719 68.7773 79.2039 68.9977Z" fill="white"/>
<path d="M59.5 22C39.3762 22 23 38.3762 23 58.5C23 67.129 26.0443 75.4431 31.5975 82.0145L25.1205 94.6431C24.8371 95.1995 24.9106 95.8818 25.3095 96.3647C25.6139 96.7321 26.0653 96.9316 26.5167 96.9316C26.6636 96.9316 26.8211 96.9106 26.9681 96.8686L44.3415 91.7038C49.1179 93.8873 54.2092 94.9895 59.5 94.9895C79.6238 94.9895 96 78.6133 96 58.4895C96 38.3657 79.6238 22 59.5 22ZM59.5 91.8402C54.4822 91.8402 49.6533 90.7485 45.1393 88.5965C44.7824 88.4285 44.3835 88.397 44.0161 88.5125L29.603 92.7955L34.8832 82.4974C35.1772 81.9201 35.0932 81.2167 34.6523 80.7233C29.1726 74.6033 26.1493 66.6986 26.1493 58.4895C26.1493 40.0978 41.1083 25.1388 59.5 25.1388C77.8917 25.1388 92.8507 40.0978 92.8507 58.4895C92.8507 76.8812 77.8917 91.8402 59.5 91.8402Z" fill="white"/>
<defs>
<linearGradient id="paint0_linear_165_635" x1="-7.77778" y1="997.333" x2="127.045" y2="996.476" gradientUnits="userSpaceOnUse">
<stop stop-color="#FFC609"/>
<stop offset="0.5" stop-color="#039D4C"/>
<stop offset="1" stop-color="#0298D8"/>
</linearGradient>
</defs>
</svg>
