<svg width="135" height="135" viewBox="0 0 135 135" fill="none" xmlns="http://www.w3.org/2000/svg">
<path d="M61.0834 77.1251L77.7346 67.5001L61.0834 57.8751V77.1251ZM98.1717 52.0038C98.5888 53.5117 98.8775 55.533 99.07 58.0997C99.2946 60.6663 99.3909 62.8801 99.3909 64.8051L99.5834 67.5001C99.5834 74.5263 99.07 79.6917 98.1717 82.9963C97.3696 85.8838 95.5088 87.7447 92.6213 88.5467C91.1134 88.9638 88.3542 89.2526 84.1192 89.4451C79.9484 89.6697 76.1304 89.7659 72.6013 89.7659L67.5 89.9584C54.0571 89.9584 45.6834 89.4451 42.3788 88.5467C39.4913 87.7447 37.6304 85.8838 36.8284 82.9963C36.4113 81.4884 36.1225 79.4672 35.93 76.9005C35.7054 74.3338 35.6092 72.1201 35.6092 70.1951L35.4167 67.5001C35.4167 60.4738 35.93 55.3084 36.8284 52.0038C37.6304 49.1163 39.4913 47.2555 42.3788 46.4534C43.8867 46.0363 46.6459 45.7476 50.8809 45.5551C55.0517 45.3305 58.8696 45.2342 62.3988 45.2342L67.5 45.0417C80.9429 45.0417 89.3167 45.5551 92.6213 46.4534C95.5088 47.2555 97.3696 49.1163 98.1717 52.0038Z" fill="url(#paint0_linear_62_909)"/>
<circle cx="67.5" cy="67.5" r="65.5" stroke="url(#paint1_linear_62_909)" stroke-width="4"/>
<defs>
<linearGradient id="paint0_linear_62_909" x1="31.2228" y1="421.486" x2="103.918" y2="420.825" gradientUnits="userSpaceOnUse">
<stop stop-color="#FFC609"/>
<stop offset="0.5" stop-color="#039D4C"/>
<stop offset="1" stop-color="#0298D8"/>
</linearGradient>
<linearGradient id="paint1_linear_62_909" x1="-8.82353" y1="1131.43" x2="144.127" y2="1130.46" gradientUnits="userSpaceOnUse">
<stop stop-color="#FFC609"/>
<stop offset="0.5" stop-color="#039D4C"/>
<stop offset="1" stop-color="#0298D8"/>
</linearGradient>
</defs>
</svg>
